<svg width="123" height="381" viewBox="0 0 123 381" fill="none" xmlns="http://www.w3.org/2000/svg">
<path d="M51.78 0.949982C51.39 1.04998 51.26 1.60999 51.53 1.95999C51.72 2.18999 51.92 2.31 52.23 2.31C52.87 2.33 53.18 2.79998 53.34 3.31998C53.48 3.76998 53.55 4.26999 53.61 4.73999C53.67 5.20999 53.32 5.51999 52.97 5.70999C52.54 5.93999 52.39 5.59 52.23 5.28C52.17 5.18 52.02 5.08998 51.92 5.06998C51.57 5.04998 50.89 5.62999 50.91 5.95999C50.95 6.55999 51.03 7.14999 51.12 7.76999C51.12 7.80999 51.18 7.86998 51.24 7.88998C51.4 7.90998 51.53 7.82997 51.53 7.65997C51.51 7.38997 51.43 7.13997 51.39 6.87997C51.31 6.29997 51.47 6.12 51.99 6.12C52.2 6.12 52.4 6.11998 52.61 6.13998C53.35 6.23998 53.56 6.46998 53.48 7.22998C53.4 7.94998 53.19 8.66997 53.44 9.40997C53.52 9.63997 53.34 9.98998 53.05 10.07C52.08 10.28 52.12 10.85 52.39 11.62C52.66 12.34 52.47 13.1 52.47 13.84C52.7 13.9 52.78 13.7 52.88 13.53C53.09 13.2 53.33 13.01 53.7 13.32C54.61 14.06 54.63 14.14 54.24 15.36C54.16 15.63 54.1 15.9 54.01 16.14C53.87 16.61 54.03 16.96 54.44 17.15C54.93 17.38 55.49 17.48 55.39 18.24C55.37 18.36 55.64 18.53 55.8 18.65C56.79 19.47 56.44 20.57 56.36 21.6C56.34 21.79 56.07 21.85 55.84 21.79C55.63 21.75 55.47 21.69 55.49 21.4C55.51 21.07 55.55 20.72 55.53 20.39C55.49 20 55.3 20.02 54.99 20.22C54.64 20.47 54.35 20.37 54.31 19.89C54.31 19.77 54.37 19.62 54.37 19.48C54.29 18.39 53.96 18.18 52.8 18.47C52.68 18.51 52.53 18.53 52.41 18.49C52.31 18.45 52.16 18.35 52.14 18.24C52.1 18.16 52.16 17.97 52.24 17.91C52.43 17.75 52.92 17.85 52.88 17.54C52.8 16.88 52.59 16.26 52.43 15.62C51.54 15.33 51.67 14.63 51.77 13.93C51.81 13.6 51.71 13.25 51.67 12.92C51.65 12.76 51.53 12.67 51.36 12.73C51.26 12.77 51.13 12.87 51.07 12.98C51.01 13.1 51.01 13.25 51.01 13.37C50.87 15.2 51.34 17.02 50.99 18.85C50.95 19.1 51.07 19.55 51.22 19.59C52.17 19.94 52.58 20.6 52.7 21.55C52.7 21.63 52.91 21.76 53.03 21.76C53.94 21.78 53.96 22.5 54 23.08C54.06 23.8 53.94 24.54 53.88 25.43C53.12 25.22 52.4 25.33 51.67 25.41C51.26 25.45 51.07 25.7 51.03 26.07C50.99 26.4 50.93 26.75 50.99 27.08C51.3 28.89 50.83 30.75 51.2 32.54C51.22 32.62 51.18 32.73 51.16 32.85C52.15 32.31 52.23 32.33 52.42 33.18C52.58 33.9 52.56 33.92 51.88 34.23C51.76 34.29 51.59 34.27 51.49 34.33C51.39 34.39 51.3 34.54 51.26 34.64C51.18 34.97 51.47 34.89 51.63 34.95C51.82 35.01 52.08 35.03 52.15 35.16C52.36 35.51 52.01 35.66 51.78 35.7C51.1 35.82 50.89 36.24 50.89 36.87C50.89 37.55 50.79 38.25 50.85 38.91C50.95 40.08 50.58 41.4 51.74 42.33C51.88 42.43 51.76 42.84 51.78 43.11C51.78 43.23 51.82 43.42 51.88 43.46C52.25 43.64 52.66 43.71 53.08 43.62C53.47 43.54 53.62 43.19 53.57 42.84C53.43 41.71 53.92 40.57 53.49 39.44C53.35 39.03 53.51 38.49 53.57 38.02C53.57 37.92 53.71 37.77 53.78 37.77C53.88 37.77 54.05 37.85 54.11 37.93C54.4 38.36 54.15 38.98 54.56 39.39C55.03 39.24 54.97 38.83 55.05 38.55C55.13 38.28 55.15 37.93 55.48 37.95C56.24 37.99 56.82 37.35 57.81 37.37C56.86 38.57 56.82 39.72 57.25 40.93C57.37 41.24 57.5 41.59 57.48 41.92C57.48 42.17 57.25 42.39 57.15 42.64C56.96 43.01 56.88 42.7 56.78 42.58C56.4334 42.2333 56.1234 42.26 55.85 42.66C55.81 42.72 55.79 42.76 55.75 42.82C55.67 42.68 55.61 42.51 55.52 42.37C55.44 42.23 55.38 42.06 55.29 41.9C54.8 42.19 54.4 42.48 54.77 43.05C54.87 43.22 54.96 43.46 55.1 43.54C55.86 43.97 56.01 44.53 55.55 45.29C55.3 45.7 55.01 45.83 54.54 45.62C54.15 45.46 53.82 45.23 53.63 44.84C53.55 44.67 53.4 44.49 53.24 44.39C52.99 44.22 52.72 44.27 52.48 44.41C52.23 44.55 52.27 44.76 52.34 44.93C52.65 45.73 52.63 46.41 51.68 46.76C51.58 46.8 51.45 46.99 51.47 47.07C51.92 48.26 51.39 49.56 51.88 50.7C52.07 51.13 52.21 51.32 51.84 51.71C51.63 51.94 51.57 52.35 51.59 52.68C51.61 53.4 51.36 53.96 50.89 54.53C50.33 55.23 50.31 56.06 51.08 56.72C51.37 56.97 51.27 57.11 51.06 57.34C50.57 57.84 50.4 58.37 51.02 58.93C51.1 59.01 51.23 59.2 51.19 59.26C50.7 60.1 51.17 60.83 51.42 61.59C51.48 61.75 51.42 62.02 51.34 62.17C50.76 63.01 51.07 64.02 50.78 64.93C50.59 65.55 50.92 65.75 51.5 65.84C51.83 65.88 51.83 66.23 51.73 66.5C51.65 66.68 51.54 66.95 51.4 66.99C50.55 67.3 50.6 67.98 50.62 68.68C50.68 70.87 50.76 73.07 50.72 75.26C50.7 76.15 51.01 76.87 51.3 77.63C51.36 77.82 51.63 77.86 51.75 77.63C51.85 77.46 51.83 77.24 51.91 77.05C51.95 76.95 52.07 76.86 52.2 76.82C52.36 76.76 52.47 76.84 52.47 77.03C52.47 77.5 52.7 78 52.41 78.43C51.98 79.05 52.27 79.58 52.53 80.16C52.74 80.57 52.92 80.72 53.46 80.65C54.68 80.51 54.88 80.94 54.28 82.09C54.16 82.34 54.05 82.61 54.01 82.85C53.82 83.9 53.27 84.54 52.2 84.83C51.64 84.97 51.5 85.41 51.64 85.92C51.72 86.21 51.91 86.37 52.13 86.54C52.34 86.68 52.23 86.87 52.11 87.05C51.9 87.34 51.72 87.63 52.21 87.85C52.52 87.99 52.87 88.26 52.85 88.59C52.81 89.19 52.69 89.81 52.48 90.38C52.34 90.75 51.9 90.96 51.49 91.02C51.28 91.06 51 91.14 51.26 91.31C51.86 91.7 51.59 92.13 51.47 92.57C51.28 93.21 51.47 93.54 52.07 93.87C52.65 94.18 52.79 94.78 52.59 95.04C52.26 95.43 51.89 95.29 51.48 95.19C50.99 95.07 50.99 95.5 50.96 95.85C50.94 96.2 51.15 96.34 51.48 96.26C51.79 96.18 52.12 95.91 52.33 96.38C52.47 96.73 52.41 97.06 52.21 97.35C52 97.62 51.53 97.89 51.57 98.07C51.73 98.85 51.2 99.55 51.32 100.3C51.4 100.77 51.28 101.37 51.71 101.64C52.62 102.2 52.56 103.16 52.78 103.99C52.94 104.61 52.76 104.94 52.02 105.12C51.44 105.27 51.22 105.57 51.17 106.09C51.15 106.44 51.09 106.77 51.13 107.12C51.23 108.15 51.13 109.18 50.84 110.17C50.35 111.84 51 113.53 50.76 115.22C50.74 115.38 50.88 115.61 51.01 115.76C51.71 116.48 51.44 117.12 50.89 117.76C50.35 118.4 50.37 118.4 50.52 119.39C50.56 119.66 50.58 119.95 50.38 120.17C50.13 120.44 49.99 120.69 50.05 121.08C50.63 124.73 50.71 128.4 50.67 132.08C50.65 133.23 50.63 134.39 50.65 135.54C50.67 136.36 50.3 137.15 50.59 137.99C50.8 138.63 50.94 139.29 50.71 139.99C50.57 140.44 50.92 140.77 51.33 140.92C51.58 141 51.87 141.04 52.13 141.13C53.02 141.34 53.51 141.97 53.88 142.74C54.04 143.09 53.98 143.42 53.63 143.61C53.32 143.78 52.99 143.88 52.66 143.96C52.06 144.12 51.86 144 51.59 143.38C51.51 143.2 51.49 142.99 51.4 142.8C51.34 142.63 51.19 142.63 51.07 142.78C51.03 142.82 50.99 142.88 50.97 142.94C50.85 143.21 50.78 143.5 51.05 143.68C51.57 144.03 51.5 144.65 51.81 145.1C51.95 145.33 52.02 145.57 51.85 145.86C51.17 147.03 51.36 147.98 52.45 148.91C52.88 149.28 53.6 149.78 53.46 150.58C53.38 151.1 53.5 151.45 53.83 151.84C53.99 152.02 53.91 152.38 53.54 152.46C52.9 152.63 52.67 152.54 52.22 151.8C52.08 151.55 51.85 151.45 51.62 151.31C51.21 151.04 51.37 150.77 51.7 150.53C51.76 150.49 51.76 150.24 51.74 150.22C51.64 150.16 51.47 150.14 51.35 150.14C51.04 150.16 50.79 150.39 50.79 150.66C50.73 153.32 50.65 156 50.69 158.66C50.69 159.3 50.75 160.04 51.25 160.6C51.56 160.97 51.56 161.38 51.19 161.69C50.65 162.16 50.61 162.72 50.76 163.38C50.84 163.71 50.68 164.08 50.74 164.39C51.01 165.54 50.93 166.66 50.78 167.83C50.64 169.02 51.03 170.24 50.94 171.5C50.8 173.42 50.82 175.33 50.82 177.25C50.82 178.2 51.05 179.17 51.05 180.11C51.05 180.75 51.15 181.14 51.87 181.24C52.26 181.3 52.45 181.63 52.34 182C52.24 182.41 52.3 182.8 52.34 183.22C52.42 184.04 52.26 184.89 51.97 185.65C51.37 187.26 51.31 187.24 51.95 188.97C52.07 189.28 51.93 189.46 51.79 189.69C51.19 190.64 51.71 191.81 51.17 192.8C51.13 192.86 51.27 193.05 51.36 193.13C51.52 193.27 51.73 193.27 51.9 193.13C52.54 192.57 52.7 191.77 52.87 191.03C53.41 190.97 53.8 190.91 54.21 190.89C55.41 190.77 56.5 190.91 57.16 192.11C57.24 192.25 57.35 192.29 57.2 192.4C56.33 192.69 56.33 192.71 55.37 192.13C55.16 192.01 55 192.01 54.81 192.05C54.36 192.13 53.9 192.22 53.45 192.28C53.2 192.71 53.22 193.21 53.2 193.68C53.14 194.59 53.12 194.65 52.11 194.79C51.08 194.93 50.91 195.37 50.94 196.11C50.96 196.58 51 197.08 50.98 197.55C50.96 198.29 51.14 198.89 51.8 199.3C52.25 199.59 52.21 199.98 51.86 200.31C51.41 200.74 50.97 201.15 51.1 201.88C51.35 203.24 51.26 204.6 50.94 205.96C50.84 206.41 50.78 206.95 50.9 207.38C51.17 208.37 51.31 209.38 51.31 210.39C51.31 210.55 51.5 210.8 51.64 210.86C51.91 210.96 51.97 210.67 52.01 210.49C52.15 209.89 52.26 209.3 52.38 208.7C52.42 208.49 53 208.41 53.08 208.58C53.37 209.2 53.7 209.8 53.84 210.43C53.92 210.8 53.35 210.78 53.08 210.99C52.81 211.2 52.87 211.44 52.89 211.73C52.97 212.8 52.85 212.93 51.88 212.84C50.89 212.76 50.6 212.94 50.73 213.91C50.89 215.35 50.85 216.77 50.65 218.2C50.57 218.82 50.61 219.44 50.75 220.03C50.85 220.42 50.96 220.81 50.83 221.25C50.46 222.49 50.67 223.66 51.3 224.8C51.55 225.25 51.55 225.67 51.09 226.08C50.74 226.39 50.97 226.68 51.36 226.82C51.63 226.9 51.88 226.99 52.14 227.07C52.43 227.17 52.63 227.48 52.55 227.71C52.12 228.74 52.63 229.87 52.16 230.88C51.71 231.83 51.4 232.76 52.12 233.74C52.28 233.97 52.22 234.46 52.08 234.73C51.85 235.18 51.5 234.71 51.21 234.67C50.88 234.63 50.67 234.77 50.51 234.98C50.02 235.62 50.1 236.38 50.74 236.98C50.88 237.12 51.13 237.12 51.21 236.86C51.27 236.67 51.29 236.45 51.37 236.28C51.47 236.1 51.66 235.99 51.89 236.12C51.99 236.18 52.14 236.31 52.16 236.41C52.18 236.68 52.16 236.97 52.1 237.21C51.91 237.95 51.87 238.63 52.18 239.39C52.45 240.07 52.61 240.9 52.22 241.6C51.68 242.61 51.85 243.7 52.28 244.57C52.88 245.79 52.42 246.82 52.16 247.91C52.1 248.14 51.85 248.18 51.67 248.14C51.46 248.1 51.32 247.95 51.28 247.73C51.18 247.17 51.32 246.66 51.49 246.12C51.55 245.94 51.47 245.67 51.22 245.65C50.97 245.63 50.95 245.9 50.95 246.08C50.87 247.11 50.87 248.14 50.7 249.15C50.6 249.75 50.47 250.37 50.47 250.96C50.47 251.35 50.74 251.45 51.17 251.25C51.81 250.94 52.08 251.04 52.06 251.58C52.02 252.47 52.06 253.37 51.83 254.2C51.56 255.11 51.34 255.99 51.38 256.94C51.38 257.12 51.26 257.35 51.11 257.5C50.31 258.28 50.37 259.27 50.57 260.2C50.94 262.03 50.84 263.87 51 265.7C51.08 266.75 50.9 267.74 50.9 268.75C50.9 269.64 51.11 270.52 51.06 271.41C51.02 272.32 50.94 273.24 51.22 274.07C51.55 274.98 50.99 275.84 51.28 276.67C51.53 277.39 51.12 278.07 51.47 278.86C51.78 279.56 51.28 280.45 51.04 281.23C50.92 281.64 51 282.05 51.16 282.42C51.37 282.87 51.3 283.33 51.24 283.82C51.14 284.62 51.03 285.49 51.16 286.27C51.49 288.31 51.45 290.35 51.43 292.39C51.43 292.99 51.68 293.56 51.49 294.2C50.97 296.08 51.32 298.01 51.22 299.93C51.2 300.42 51.36 300.86 52 300.92C52.27 300.94 52.52 301.13 52.49 301.46C52.47 301.79 52.2 301.91 51.93 301.95C51.27 302.05 50.94 302.42 50.96 303.06C51 303.84 50.49 304.32 50.11 304.89C49.8 305.38 49.26 305.57 48.83 305.9C48.44 306.21 48.44 306.83 48.85 307.16C49.06 307.32 49.32 307.53 49.55 307.51C50.46 307.41 51.1 307.88 51.8 308.36C52.44 308.79 52.69 308.67 53.18 307.89C53.28 307.73 53.43 307.52 53.59 307.5C53.78 307.46 53.9 307.66 53.94 307.89C54.02 308.43 54.19 308.96 54.17 309.5C54.13 310.47 55.1 310.08 55.41 310.53C55.62 310.82 55.7 311.17 55.53 311.5C55.41 311.79 55.14 311.81 54.85 311.79C53.74 311.71 52.87 311.34 52.73 310.04C52.71 309.88 52.5 309.73 52.38 309.55C50.77 310.52 50.34 311.88 50.83 313.59C50.95 314 51.22 314.19 51.57 314.04C52.37 313.75 52.66 314.47 53.1 314.8C53.45 315.07 52.96 315.52 52.85 315.91C52.79 316.12 52.77 316.32 52.97 316.47C53.13 316.59 53.32 316.7 53.51 316.76C53.55 316.78 53.74 316.62 53.76 316.51C53.84 316.12 53.78 315.62 54.25 315.48C54.91 315.27 55.24 314.84 55.53 314.26C55.67 313.95 56.11 313.91 56.46 314.05C56.79 314.17 57.84 315.53 57.86 315.88C57.92 316.56 58.02 317.28 57.16 317.57C57.1 318.31 55.92 318.25 56.01 319.22C56.53 318.99 56.9 319.32 57.35 319.47C58.07 319.7 58.2 319.57 58.57 318.65C58.67 318.4 58.8 318.03 59.09 318.16C59.65 318.41 60.47 318.32 60.57 319.27C60.61 319.66 60.84 320.03 60.98 320.4C61.62 320.4 62.01 319.74 62.48 319.8C63.24 319.9 63.47 319.2 64.03 319.02C64.36 318.92 64.63 318.69 64.98 318.88C65.37 319.09 65.78 319.02 66.2 319C66.67 318.98 67 319.21 67.17 319.6C67.38 320.05 67.33 319.85 67.5 319.56C68.06 318.61 68.08 318.65 69.11 318.84C69.52 318.92 69.85 319.09 70.2 319.29C70.78 319.62 71.44 319.87 72.1 319.95C72.76 320.01 73.69 319.89 73.89 319.27C74.41 317.79 74.65 316.2 73.89 314.69C73.81 314.55 73.58 314.42 73.4 314.4C73.13 314.36 72.84 314.42 72.58 314.38C72.15 314.32 71.9 313.8 72.15 313.45C72.46 313.02 72.81 312.65 73.16 312.21C73.35 312.54 72.87 312.91 73.2 313.18C73.41 313.34 73.65 313.51 73.9 313.53C74.21 313.57 74.33 313.28 74.39 312.99C74.41 312.93 74.43 312.87 74.43 312.78C74.53 310.06 75.17 307.36 74.78 304.6C74.68 303.94 74.78 303.22 74.92 302.56C75.31 300.54 74.92 298.46 75.37 296.44C75.41 296.25 75.39 296.03 75.33 295.82C74.73 293.82 75.43 291.72 74.92 289.7C74.88 289.58 74.9 289.41 74.96 289.29C75.56 288.01 75.29 286.63 75.37 285.31C75.53 283.13 75.51 280.94 75.53 278.74C75.57 276.89 75.59 275.05 75.2 273.24C75.16 273.05 75.22 272.83 75.22 272.62C75.18 270.37 75.14 268.13 75.12 265.86C75.12 265.39 75.24 264.85 74.89 264.46C74.46 263.97 74.64 263.41 74.64 262.89C74.6 260.5 74.95 258.11 74.37 255.74C74.06 254.5 74.45 253.31 74.27 252.07C74 250.32 74.52 248.52 74.13 246.77C74.07 246.52 74.23 246.23 74.27 245.97C74.31 245.62 74.37 245.27 74.31 244.94C74.04 243.25 74.02 241.56 74.47 239.89C74.55 239.54 74.57 239.15 74.35 238.9C73.69 238.16 73.77 237.46 74.23 236.67C74.37 236.4 74.35 235.99 74.31 235.66C74.06 233.89 74.29 232.12 74.29 230.34C74.29 227.68 74.93 225.02 74.37 222.34C74.31 222.09 74.43 221.8 74.47 221.54C74.63 219.56 74.86 217.58 74.63 215.58C74.57 215.11 74.61 214.63 74.65 214.16C75.04 210.47 75.21 206.78 74.98 203.07C74.92 201.98 74.94 200.88 74.94 199.79C74.94 197.87 75.19 195.98 74.78 194.06C74.72 193.81 74.74 193.48 74.86 193.28C75.17 192.77 75.19 192.23 75.17 191.69C75.11 190.39 75.03 189.09 74.94 187.79C74.88 186.9 74.71 186 74.98 185.13C75.27 184.22 74.61 183.44 74.79 182.57C74.15 182.22 74.38 181.79 74.48 181.21C74.71 179.75 74.89 178.28 74.77 176.78C74.65 175.38 74.4 173.94 74.79 172.51C74.93 172.02 74.83 171.54 74.73 171.09C74.4 169.61 74.67 168.12 74.65 166.64C74.63 164.6 74.75 162.54 74.67 160.48C74.63 159.66 74.59 158.85 74.34 158.05C74.05 157.12 74.2 156.15 74.55 155.23C74.69 154.84 74.51 154.57 74.1 154.51C73.89 154.47 73.69 154.51 73.5 154.47C73.27 154.43 73.21 154.24 73.19 154.02C73.17 153.79 73.23 153.59 73.46 153.53C73.71 153.45 73.98 153.43 74.24 153.39C74.53 153.35 74.57 153.08 74.47 152.94C74.08 152.4 73.75 151.93 74.55 151.46C74.65 151.4 74.65 151.07 74.59 150.9C74.32 150.06 74.05 149.21 74.63 148.36C74.79 148.11 74.63 147.8 74.4 147.64C73.8 147.21 73.86 146.8 74.32 146.28C74.71 145.83 74.65 145.23 74.65 144.69C74.67 143.66 74.67 142.63 74.59 141.62C74.45 139.6 74.16 137.58 74.65 135.56C74.75 135.17 74.81 134.67 74.67 134.34C74.22 133.31 74.42 132.32 74.61 131.31C74.77 130.34 74.71 129.37 74.53 128.45C74.39 127.77 74.32 127.13 74.51 126.45C74.72 125.69 74.63 124.95 73.83 124.47C73.69 124.39 73.5 124.08 73.56 123.98C74.1 122.87 73.81 121.71 73.81 120.56C73.79 119.26 73.67 117.92 73.91 116.69C74.18 115.35 73.91 114.11 73.83 112.84C73.83 112.69 73.85 112.57 73.87 112.43C74.06 110.31 74.06 108.2 73.89 106.08C73.85 105.61 73.79 105.09 73.91 104.64C74.34 102.95 74.34 101.26 74.16 99.53C74.12 99.12 74.12 98.71 74.14 98.29C74.28 94.93 74.24 91.59 74.18 88.23C74.16 87.01 73.81 85.78 74.06 84.56C74.58 82.23 73.92 79.92 74.08 77.61C74.2 76.04 73.92 74.48 73.92 72.91C73.94 68.6 73.73 64.27 73.98 59.97C74 59.56 74.04 59.14 73.96 58.73C73.57 56.36 74.08 53.95 73.75 51.58C74.24 48.92 73.65 46.24 73.89 43.56C73.99 42.47 73.85 41.38 73.87 40.28C73.87 39.19 73.95 38.09 73.95 36.98C73.97 35.89 74.22 34.67 73.87 33.72C73.44 32.54 74.06 31.62 73.99 30.57V30.36C73.87 28.03 74.07 25.72 73.99 23.39C73.93 21.29 73.72 19.14 74.11 17.02C74.15 16.75 74.09 16.49 74.05 16.22C73.76 14.51 74.01 12.8 74.09 11.11C74.13 10.02 74.25 8.89999 74.03 7.82999C73.72 6.36999 74.09 4.81998 73.47 3.37998C73.24 2.85998 73.68 2.02 73.41 1.59C73.08 1.05 73.09 0.520002 73.18 1.75807e-06L53.07 0C52.99 0.18 52.91 0.359978 52.81 0.539978C52.56 1.02998 52.09 0.809973 51.72 0.909973L51.78 0.949982ZM52.11 110.55C51.95 109.27 51.51 108.16 51.92 106.92C53.03 108.69 53.07 109.02 52.11 110.55ZM52.07 31.95C52.05 32.01 52.01 32.05 51.97 32.07C51.87 32.15 51.74 32.17 51.6 32.15C51.46 32.11 51.33 32.05 51.27 31.92C51.25 31.88 51.23 31.84 51.23 31.77C51.21 31.46 51.64 31.09 51.89 31.23C52.01 31.31 52.12 31.56 52.12 31.72C52.12 31.8 52.1 31.87 52.08 31.93L52.07 31.95ZM56.11 28.88C56.11 29.07 56.07 29.33 55.95 29.41C55.68 29.58 55.48 29.37 55.25 29.2C54.78 28.85 54.47 28.48 54.51 27.84C54.53 27.65 54.3 27.51 54.06 27.57C53.85 27.63 53.75 27.8 53.71 28C53.61 28.6 53.94 29.05 54.12 29.57C54.22 29.86 54.08 30.11 53.83 30.27C53.73 30.35 53.52 30.48 53.5 30.45C52.9 29.63 52.45 30.76 51.91 30.55C51.75 30.49 51.6 30.26 51.56 30.1C51.42 29.38 51.46 28.64 51.19 27.92C50.94 27.28 52.1 26.19 52.82 26.29C53.29 26.35 53.75 26.5 54.22 26.6C54.34 26.35 54.43 26.06 54.61 25.9C55.5 25.1 55.6 24.31 54.67 23.47C54.59 23.39 54.61 23.2 54.59 23.08C54.59 23.02 54.63 22.96 54.65 22.89C54.73 22.75 54.79 22.79 54.88 22.99C54.9 23.05 54.92 23.16 54.96 23.18C55.64 23.45 56.51 23.55 56.75 24.34C56.98 25.06 56.65 25.88 56.32 26.5C55.91 27.3 56.13 28.07 56.11 28.87L56.11 28.88ZM57.16 53.32C57.35 53.42 57.53 53.51 57.7 53.61C58.55 54.19 58.65 54.58 57.86 55.16C57.32 55.55 57.26 56 57.12 56.52C57.37 55.45 56.13 54.36 57.16 53.32ZM56.34 68.34C56.36 68.24 56.53 68.13 56.65 68.13C56.92 68.09 57.19 68.13 57.43 68.13V68.17C57.7 68.15 57.97 68.13 58.21 68.13C58.48 68.13 58.58 68.42 58.52 68.54C58.05 69.32 57.78 70.27 56.97 70.83C56.72 71 56.45 70.93 56.29 70.66C55.77 69.88 56.13 69.09 56.33 68.33L56.34 68.34ZM56.26 108.49C56.42 108.49 56.53 108.47 56.57 108.49C57.04 108.82 57.7 109.05 57.95 109.5C58.22 109.99 57.99 110.74 58.2 111.27C58.47 111.97 57.93 112.61 58.2 113.27C58.26 113.45 57.91 113.56 57.77 113.48C57.05 113.11 56.35 112.7 55.67 112.26C55.55 112.18 55.48 111.91 55.48 111.72C55.48 111.45 55.48 111.12 55.62 110.94C56.24 110.22 56.32 109.35 56.26 108.49ZM57.27 88.07C57.19 88.03 57.15 87.82 57.19 87.74C57.23 87.64 57.38 87.51 57.48 87.51C57.89 87.51 58.28 87.53 58.7 87.57C58.89 87.59 59.07 87.71 59.24 87.84C59.4 87.96 60.7 88.52 60.89 88.54C61.01 88.56 61.14 88.58 61.28 88.62C61.44 88.5 61.61 88.41 61.73 88.41C61.75 88.41 61.77 88.45 61.79 88.45C61.69 88.51 61.58 88.64 61.48 88.64C61.42 88.64 61.34 88.64 61.27 88.62C60.96 88.87 60.67 89.28 60.71 89.53C60.77 89.86 61.02 89.98 61.29 90C61.68 90.02 62.09 89.96 62.49 89.98C62.53 89.98 62.63 90.21 62.61 90.33C62.59 90.43 62.47 90.51 62.38 90.58C62.34 90.6 62.24 90.58 62.19 90.54C61.9 90.27 61.65 89.86 61.16 90.13C60.71 90.38 60.5 90.81 60.4 91.29C60.34 91.56 60.42 91.82 60.44 92.11C60.46 92.38 60.58 92.77 60.46 92.91C59.82 93.61 60.5 94.54 60.03 95.22C59.72 95.67 59.72 96.02 59.91 96.54C60.3 97.57 59.99 98.04 58.88 98.37C58.72 98.41 58.49 98.54 58.43 98.68C58.35 98.89 58.57 99.01 58.72 99.13C59.59 99.91 60 100.92 59.89 101.93C59.85 102.32 59.77 102.73 59.68 103.29C58.96 103.02 58.46 102.86 57.89 102.67C57.85 102.52 57.75 102.34 57.77 102.15C57.83 101.45 57.56 100.62 58.49 100.19C58.7 100.09 58.72 99.67 58.35 99.57C57.73 99.43 57.65 99.01 57.73 98.5C57.79 98.17 57.92 97.88 58.12 97.57C58.53 96.93 58.8 96.27 58.1 95.59C57.85 95.34 57.89 94.95 57.91 94.62C57.95 94.08 57.97 93.53 58.05 92.99C58.13 92.29 57.97 91.77 57.25 91.55C57.13 91.51 57 91.43 56.9 91.34C56.59 91.05 56.34 90.72 56.67 90.29C56.96 89.92 57.06 89.42 57.47 89.11C58.07 88.66 57.76 88.33 57.26 88.04L57.27 88.07ZM61.31 57.67C61.31 57.61 61.29 57.55 61.31 57.48C61.31 57.38 61.35 57.27 61.41 57.19C61.57 57 61.88 56.9 62.3 56.88C62.4 56.9 62.53 56.9 62.61 56.94C62.63 56.96 62.67 56.96 62.69 56.98C62.9 57.15 62.75 57.33 62.61 57.45C62.4 57.64 62.18 57.78 62.01 57.99C61.72 58.34 61.85 58.61 62.34 58.88C62.92 59.17 62.98 59.25 62.55 59.64C61.99 60.13 62.06 60.61 62.43 61.06C62.7 61.39 62.7 61.66 62.41 61.93C62.27 62.05 62.1 62.2 61.92 62.22C61.69 62.24 61.57 62.01 61.55 61.81C61.53 61.48 61.55 61.13 61.55 60.8C61.55 60.33 61.47 60.06 60.85 60.26C60.6 60.34 60.42 59.85 60.58 59.66C61.1 59.08 61.45 58.51 61.32 57.66L61.31 57.67ZM64.38 58.82C64.4 58.76 64.44 58.68 64.46 58.61C64.48 58.55 64.5 58.47 64.54 58.4C64.58 58.3 64.87 58.21 65.06 58.19C65.31 58.17 65.41 58.38 65.43 58.58C65.53 59.47 64.75 60.23 65.04 61.16C65.1 61.37 64.83 61.47 64.63 61.53C64.42 61.59 64.22 61.69 64.03 61.63C63.82 61.57 63.82 61.3 63.93 61.11C63.97 61.03 64.01 60.94 64.03 60.88C64.13 60.65 64.22 60.41 64.15 60.14C64.03 59.65 64.21 59.23 64.38 58.8V58.82ZM64.85 70.2C64.87 70.14 64.91 70.1 65.14 69.71C65.1 70.29 65.08 70.57 65.06 70.84C65.02 71.4 65.2 71.75 65.84 71.73C66.09 71.75 66.13 72.06 65.98 72.14C64.87 72.74 65.07 73.68 65.26 74.63C65.3 74.84 65.4 75.02 65.45 75.21C65.53 75.77 65.29 76.16 64.65 76.47C64.38 76.59 64.09 76.59 63.93 76.35C63.7 76.02 63.52 75.65 63.39 75.28C63.35 75.18 63.6 74.97 63.7 74.83C64.36 73.86 64.38 73.84 63.68 72.89C63.43 72.56 63.16 72.27 63.21 71.82C63.23 71.61 63.31 71.31 63.48 71.37C64.59 71.74 64.59 70.83 64.86 70.22L64.85 70.2ZM67.84 74.01C67.2 72.98 67.16 71.87 67.3 70.69C67.32 70.48 67.4 70.3 67.63 70.26C67.94 70.2 68.02 70.51 67.98 70.63C67.67 71.76 68.1 72.9 67.84 74.01ZM67.43 76.15C67.59 76.11 67.7 75.88 67.99 76.21C68.69 76.99 68.51 77.78 68.24 79.12C67.7 78.09 67.39 77.51 67.09 76.92C66.9 76.53 67.05 76.26 67.44 76.16L67.43 76.15ZM68.56 150.72C68.4 150.86 68.17 150.84 68 150.7C67.86 150.58 67.77 150.39 67.67 150.25C67.73 150.09 67.73 149.92 67.81 149.84C67.97 149.65 68.18 149.72 68.35 149.84C68.45 149.92 68.51 150.05 68.58 150.17C68.7 150.36 68.74 150.56 68.56 150.73V150.72ZM69.8 205.38C70.01 205.52 69.96 205.73 69.86 205.92C69.72 206.19 69.47 206.37 69.22 206.17C68.97 205.96 68.85 205.65 68.64 205.37C68.7 205.25 69.53 205.2 69.79 205.39L69.8 205.38ZM62.13 213.73C62.19 214.04 62.03 214.39 61.92 214.72C61.88 214.84 61.84 214.97 61.82 215.09C61.59 215.95 61.55 216.84 61.68 217.75C61.78 217.83 61.89 217.91 61.97 218.02C62.2 218.14 62.42 218.29 62.65 218.43C62.36 218.76 62.05 218.82 61.72 218.88C61.41 218.92 61.18 218.8 61.18 218.47C61.2 217.65 61.24 216.84 61.26 216.02C61.28 215.34 61.3 214.66 61.28 213.98C61.28 213.79 61.18 213.55 61.05 213.46C60.76 213.31 60.53 213.54 60.37 213.75C60.21 213.96 60.1 214.22 59.92 214.43C59.71 214.64 59.45 214.64 59.16 214.55C58.87 214.47 58.69 214.24 58.71 213.95C58.73 213.56 58.65 213.13 58.94 212.78C59.1 212.57 59.23 212.33 59.35 212.08C59.68 211.42 59.74 210.78 59.19 210.2C58.82 209.79 58.67 209.44 59.23 209.05C59.52 208.84 59.5 208.47 59.48 208.1C59.46 207.71 59.54 207.3 59.56 206.88C59.56 206.69 59.64 206.59 59.79 206.61C59.91 206.63 60.06 206.65 60.14 206.73C60.53 207.08 60.53 207.55 60.53 208.05C60.53 208.4 60.78 208.4 61.05 208.15C61.48 207.78 61.59 207.82 61.63 208.25C61.69 208.87 61.75 209.47 61.79 210.08C61.83 210.82 62.35 210.7 62.99 210.64C62.35 211.63 61.9 212.58 62.14 213.71L62.13 213.73ZM62.6 303.13C62.52 303.5 62.41 303.91 61.96 304.02C61.73 304.06 61.59 303.88 61.61 303.67C61.63 303.55 61.65 303.42 61.69 303.34C61.71 303.28 61.75 303.22 61.77 303.18C61.89 302.99 62.1 302.91 62.33 302.91C62.39 302.95 62.47 303.01 62.54 303.07C62.58 303.09 62.6 303.11 62.6 303.13ZM55.53 269.31C55.43 268.86 55.49 268.3 55.08 267.99C54.61 267.62 54.21 268.03 53.78 268.2C53.43 268.32 53.1 268.22 52.89 267.91C52.73 267.66 52.66 267.39 52.83 267.15C53.1 266.76 53.37 266.37 53.7 266.02C53.89 265.81 54.03 265.94 54.05 266.18C54.07 266.41 54.17 266.55 54.4 266.55C54.56 266.55 54.61 266.43 54.63 266.26C54.65 265.85 54.71 265.44 54.71 265.02C54.71 264.07 54.46 263.76 53.35 263.33C53.16 263.25 52.92 263.21 53 262.94C53.08 262.65 53.29 262.55 53.62 262.63C54.42 262.82 54.42 262.79 54.71 261.91C55.12 261.99 55.2 262.34 55.29 262.67C55.39 263.06 55.54 263.27 55.99 263.08C56.48 262.89 56.88 263.31 57.35 263.37C57.47 263.39 57.62 263.64 57.68 263.82C57.74 264.05 57.56 264.19 57.35 264.23C57.16 264.27 56.94 264.27 56.77 264.35C56.67 264.39 56.58 264.56 56.56 264.66C56.56 264.76 56.64 264.97 56.72 264.99C57.36 265.15 57.94 265.63 58.66 265.17C59.03 264.92 59.26 265.23 59.44 265.56C59.75 266.07 59.65 266.65 59.63 267.17C59.61 268.14 59.63 269.05 60.02 269.95C60.31 270.63 59.94 271.21 59.24 271.29C58.77 271.35 58.31 271.46 57.84 271.52C56.99 271.62 56.62 272.12 56.54 272.86C56.46 273.6 56.52 274.37 56.56 275.11C56.58 275.58 57.14 275.91 57.61 275.79C58.1 275.65 58.48 275.34 58.54 274.82C58.62 274.28 58.62 273.75 58.66 273.19C59.18 273.21 59.79 273 59.98 273.5C60.14 273.97 60.68 274.45 60.25 275.09C59.92 275.6 60.21 276.16 60.39 276.68C60.76 277.73 60.93 278.8 60.37 279.85C60.08 280.37 60.41 280.76 60.51 281.21C60.53 281.29 60.41 281.44 60.37 281.54C60.27 281.48 60.1 281.44 60.04 281.35C59.96 281.17 59.92 280.96 59.88 280.77C59.67 279.93 59.36 280.5 59.08 280.71C59.04 280.73 58.96 280.71 58.75 280.71C58.96 279.31 58.09 278.18 57.78 276.88C57.7 276.57 57.49 276.45 57.18 276.51C56.81 276.59 56.54 276.76 56.58 277.19C56.62 277.52 56.97 277.77 56.85 278.16C56.81 278.26 56.71 278.43 56.6 278.43C56.52 278.45 56.33 278.33 56.31 278.22C56.25 278.03 56.31 277.81 56.27 277.6C56.06 276.61 55.96 275.6 55.65 274.61C55.3 273.48 55.2 272.2 55.42 270.98C55.52 270.36 55.63 269.83 55.52 269.29L55.53 269.31ZM54.99 279.57C54.56 279.74 54.19 279.8 53.79 279.69C53.58 279.65 53.36 279.55 53.4 279.32C53.42 279.09 53.65 279.03 53.83 279.09C54.2 279.24 54.57 279.4 54.98 279.56L54.99 279.57ZM57.05 226.28C56.74 226.86 57.01 227.72 56.27 228.01C55.86 228.18 55.28 226.96 55.4 225.97C55.46 225.45 55.77 224.98 55.92 224.47C56 224.16 56.15 224.24 56.31 224.28C56.5 224.34 56.72 224.38 56.83 224.51C57.1 224.84 57.06 225.27 57.06 225.66C57.06 225.87 57.14 226.11 57.06 226.28H57.05ZM56.74 259.4C56.66 259.21 56.51 259.05 56.49 258.86C56.43 258.43 56.7 258.04 57.09 257.95C57.5 257.87 57.69 258.14 57.83 258.46C58.12 259.1 57.71 260.19 57.05 260.44C56.89 260.5 56.64 260.44 56.47 260.34C56.16 260.18 56.45 260.05 56.53 259.95C56.72 259.76 56.84 259.6 56.74 259.39V259.4ZM57.17 255.13C57.17 255.13 57.15 255.19 57.13 255.21C56.99 255.13 56.84 255.04 56.7 254.98C56.56 254.9 56.43 254.83 56.29 254.75C56.19 254.54 56.56 254.28 56.85 254.3C57.22 254.32 57.28 254.57 57.26 254.86C57.26 254.96 57.22 255.05 57.18 255.13H57.17ZM56.22 231.72C56.3 231.62 56.36 231.41 56.51 231.37C56.76 231.29 56.84 231.54 56.8 231.72C56.76 231.88 56.66 232.11 56.53 232.15C56.28 232.21 56.24 231.98 56.22 231.72ZM60.07 242.44C60.09 242.63 59.95 242.83 59.7 242.85C59.49 242.85 59.29 242.75 59.25 242.54C59.13 241.74 58.76 240.99 58.82 240.36C58.61 239.64 58.78 239.23 59.25 238.98C59.52 238.84 59.62 238.65 59.7 238.38C59.76 238.13 59.82 237.85 60.22 237.89C60.55 237.91 60.9 238.34 60.86 238.8C60.82 239.13 60.78 239.48 60.65 239.79C60.3 240.63 59.97 241.48 60.07 242.45V242.44ZM59.25 220.62C59.19 220.68 59.09 220.74 59.02 220.78C58.77 220.8 58.59 220.72 58.44 220.57C58.4 220.51 58.34 220.45 58.32 220.36C58.3 220.32 58.28 220.28 58.28 220.22C58.24 220.06 58.24 219.87 58.28 219.66C58.32 219.49 58.4 219.43 58.55 219.47C58.98 219.66 59.35 220.15 59.29 220.54C59.29 220.56 59.27 220.58 59.25 220.6V220.62ZM60.3 287.09C60.07 287.34 59.45 287.19 59 287.21C58.88 287.21 58.73 287.23 58.61 287.19C58.4 287.13 58.22 287 58.3 286.76C58.42 286.33 58.77 285.98 58.61 285.44C58.51 285.09 58.61 284.68 58.92 284.37C59.31 284.53 59.27 284.91 59.31 285.21C59.35 285.54 59.31 285.89 59.33 286.22C59.35 286.51 59.49 286.8 59.8 286.74C60.05 286.7 60.23 286.41 60.23 286.12C60.21 285.73 60.13 285.32 60.13 284.92C60.13 284.82 60.27 284.69 60.4 284.65C60.46 284.63 60.63 284.75 60.67 284.84C60.77 285.09 60.92 285.38 60.88 285.6C60.74 286.12 60.65 286.73 60.3 287.08V287.09ZM60.57 294.26C60.57 294.34 60.53 294.4 60.49 294.42C60.45 294.44 60.39 294.44 60.3 294.42C60.16 294.34 60.03 294.21 60.03 294.05C60.03 294.03 60.03 294.01 60.05 293.97C60.11 293.78 60.3 293.62 60.46 293.74C60.56 293.82 60.56 294.09 60.56 294.26H60.57ZM56.18 280.27C56.47 279.96 56.78 279.53 57.33 279.67C57.66 279.69 57.82 279.88 57.78 280.19C57.76 280.36 57.72 280.66 57.49 280.54C57.18 280.4 56.91 280.07 56.91 280.73C56.91 280.92 56.97 281.12 57.03 281.31C57.13 281.58 57.24 281.91 56.95 282.01C56.39 282.19 56.58 281.7 56.52 281.43C56.5 281.31 56.48 281.16 56.46 281.04C56.44 280.77 55.84 280.63 56.17 280.28L56.18 280.27ZM56.74 285.75C56.76 285.69 56.99 285.69 57.11 285.71C57.23 285.73 57.4 285.79 57.42 285.9C57.5 286.19 57.17 286.81 56.88 286.87C56.59 286.95 56.59 286.7 56.51 286.4C56.55 286.26 56.61 286.01 56.74 285.76V285.75ZM57.11 297.29C57.5 297.04 57.91 296.88 58.12 296.36C58.33 295.82 58.51 295.84 58.86 296.44C59.11 296.83 59.27 297.18 59.68 296.6C59.78 296.46 59.97 296.35 60.07 296.27C60.44 296.23 60.98 296.72 60.94 297.07C60.88 297.73 60.73 298.39 60.59 299.03C60.57 299.11 60.34 299.26 60.26 299.24C59.13 298.91 57.81 299.03 56.96 297.98C56.77 297.73 56.84 297.46 57.1 297.28L57.11 297.29ZM60.33 248.55C60.04 248.71 59.53 248.57 59.46 248.28C59.21 247.08 58.92 245.91 59.07 244.61C59.34 244.71 59.52 244.77 59.71 244.84C61.21 245.52 61.52 246.14 61.11 247.66C60.99 248.05 60.68 248.34 60.33 248.55ZM58.95 202.55C59.16 202.59 59.3 202.76 59.28 202.98C59.28 203.04 59.24 203.1 59.22 203.19C59.08 203.46 58.81 203.73 59.18 204.08C59.28 204.27 59.32 204.45 59.2 204.64C59.1 204.79 58.99 204.95 58.89 205.11C58.83 204.97 58.77 204.82 58.73 204.68C58.59 204.1 58.79 203.46 58.4 202.93C58.36 202.89 58.48 202.68 58.56 202.62C58.66 202.56 58.83 202.54 58.95 202.56V202.55ZM58.68 201.25C58.72 201.13 58.76 200.92 58.84 200.76C58.88 200.68 59.05 200.64 59.17 200.62C59.19 200.62 59.27 200.72 59.27 200.76C59.31 200.94 59.35 201.15 59.35 201.34C59.35 201.55 59.25 201.73 59.02 201.71C58.79 201.71 58.69 201.55 58.67 201.26L58.68 201.25ZM60.12 199.04C60.82 200.36 61.01 201.31 60.37 202.34C59.48 201.37 59.98 200.4 60.12 199.04ZM60.82 159.33C60.78 159.1 61.52 158.86 61.87 159C61.95 159.04 62.01 159.23 62.01 159.33C61.99 159.66 61.64 159.7 61.45 159.87C60.83 160.41 60.83 160.82 61.53 161.05C62.13 161.24 62.64 161.54 63.16 161.89C63.45 162.1 63.7 162.08 64.07 161.99C64.89 161.8 65.2 162.18 65.14 162.98C65.12 163.19 65.06 163.39 65.02 163.6C64.77 164.16 65.23 164.65 65.18 165.19C65.16 165.42 65.08 165.58 64.87 165.66C64.75 165.7 64.58 165.72 64.48 165.66C64.21 165.54 64.01 165.31 64.23 165.02C64.58 164.59 64.46 164.11 64.42 163.64C64.38 163.08 64.15 162.86 63.64 163C62.82 163.21 62.22 163.19 61.81 162.28C61.58 161.83 61.46 162.4 61.27 162.49C61.11 162.55 60.88 162.72 60.75 162.65C60.61 162.57 60.44 162.3 60.46 162.16C60.6 161.23 60.98 160.33 60.81 159.34L60.82 159.33ZM63.15 158.03C63.17 157.62 63.54 157.51 63.83 157.35C64.06 157.25 64.24 157.33 64.22 157.56C64.14 158.45 64.01 159.31 63.89 160.2C63.85 160.43 63.64 160.51 63.44 160.49C63.19 160.47 63.11 160.24 63.09 160.06C63.05 159.73 63.09 159.38 63.09 159.05H63.15C63.15 158.72 63.13 158.37 63.15 158.04V158.03ZM65.27 168.33C65.08 168.52 64.96 168.76 64.71 169.11C64.32 168.33 64.24 167.73 64.52 167.13C64.58 166.99 64.62 166.86 64.81 166.9C64.93 166.94 65.1 166.98 65.16 167.07C65.45 167.48 65.76 167.85 65.26 168.33H65.27ZM65.52 159.78C65.64 159.55 65.77 159.35 65.91 159.12C65.99 158.98 66.12 158.85 66.24 158.67C66.36 159.27 66.38 159.76 65.75 159.99C65.65 160.14 65.5 160.32 65.34 160.16C65.32 160.14 65.3 160.12 65.3 160.1C65.22 159.95 65.36 159.83 65.53 159.79L65.52 159.78ZM63.44 184C63.36 183.94 63.21 183.9 63.19 183.81C63.15 183.65 63.21 183.44 63.42 183.42C63.52 183.42 63.71 183.5 63.71 183.59C63.75 183.78 63.63 183.94 63.44 184ZM63.32 239.44C63.42 239.44 63.55 239.56 63.61 239.67C63.8 240.02 64.02 240.37 63.67 240.74C63.63 240.78 63.55 240.78 63.48 240.76C62.99 240.64 62.96 240.24 62.96 239.85C63 239.64 63.06 239.44 63.31 239.44H63.32ZM63.69 193.79C63.69 193.79 63.67 193.75 63.65 193.75C63.07 193.21 63.9 192.51 63.44 192.04C63.03 191.61 62.76 191.2 62.92 190.6C63.04 190.17 62.88 189.78 62.69 189.43C62.22 188.46 62.28 188.21 63.16 187.59C63.26 187.51 63.35 187.41 63.45 187.32C63.45 187.24 63.45 187.16 63.43 187.11C63.16 186.72 62.89 186.35 62.63 185.96C62.65 185.59 62.98 185.61 63.21 185.49C63.37 185.39 63.54 185.26 63.79 185.08C63.81 185.06 63.85 185.14 63.83 185.35C63.79 185.84 64.16 186.22 64.12 186.73C63.89 189.12 64.41 191.55 64.2 193.98C64.2 193.98 64.1933 193.987 64.18 194C64.18 194 64.08 194.06 64.06 194.08C63.85 194.1 63.79 193.91 63.69 193.79ZM64.16 171.65C64.02 171.57 63.93 171.34 63.85 171.26C63.81 170.97 63.75 170.72 64.04 170.7C64.58 170.68 65.07 170.58 65.59 170.41C65.63 170.39 65.86 170.7 65.88 170.86C65.92 171.09 65.76 171.27 65.53 171.21C65.2 171.11 64.83 170.72 64.64 171.39C64.58 171.58 64.37 171.74 64.17 171.64L64.16 171.65ZM65.81 213.71C65.95 213.54 66.16 213.59 66.26 213.67C66.59 213.9 66.82 213.71 67.08 213.67C68.03 213.5 68.5 214.04 68.25 214.93C68.17 215.2 68.04 215.42 67.92 215.67C67.67 216.14 67.43 216.21 66.95 215.92C66.66 215.75 66.37 215.59 66.08 215.38C65.75 215.15 65.54 214 65.79 213.71H65.81ZM67.01 102.71C67.07 102.83 67.13 103.06 67.13 103.27C67.13 103.52 66.92 103.58 66.72 103.58H65.94V103.68C65.82 103.7 65.67 103.74 65.55 103.72C65.43 103.7 65.3 103.64 65.22 103.55C65.1 103.43 65.14 103.28 65.28 103.2C65.67 102.95 66.06 102.69 66.5 102.5C66.62 102.44 66.91 102.58 67.02 102.71H67.01ZM66.25 50.42C66.25 50.42 66.04 50.28 66.04 50.21C66.04 50.03 66.1 49.84 66.14 49.61C66.26 49.73 66.37 49.82 66.41 49.9C66.45 50.11 66.43 50.31 66.25 50.42ZM63.38 139C64.04 138.94 64.14 139.04 64.16 139.74C64.22 141.14 64.18 142.54 64.1 143.97C63.61 143.85 63.67 143.54 63.65 143.29C63.63 142.82 63.4 142.63 62.95 142.47C62.15 142.18 61.92 141.31 62.41 140.74C62.66 140.45 63.21 140.29 62.93 139.79C62.6 139.21 61.71 139.03 61.18 139.34C60.99 139.44 60.93 139.88 60.62 139.51C60.41 139.24 60.19 138.97 60 138.71C59.69 138.26 59.69 137.72 60 137.6C60.35 137.46 61.03 137.66 61.24 137.99C61.92 139.02 62.17 139.14 63.38 139.02V139ZM59.65 119.65C59.73 119.61 59.79 119.57 59.86 119.57C60.17 119.69 60.46 119.86 60.81 120.04C60.4 120.29 60.07 120.22 59.76 120.04C59.72 120.02 59.68 119.96 59.64 119.89C59.6 119.83 59.58 119.77 59.54 119.7C59.58 119.7 59.62 119.66 59.66 119.64L59.65 119.65ZM59.44 117.57C59.36 117.24 59.19 116.95 59.11 116.62C59.09 116.52 59.17 116.37 59.19 116.25C59.27 116.33 59.35 116.43 59.46 116.5C59.69 116.64 59.93 116.77 60.22 116.64C60.49 116.52 60.76 116.43 60.9 116.74C61.04 117.03 61.21 117.38 61.19 117.69C61.17 118.14 60.72 118.06 60.43 118.1C59.98 118.1 59.58 118.08 59.44 117.56V117.57ZM62.04 53.83C61.85 53.85 61.67 54 61.3 54.16C61.44 53.58 61.61 53.19 61.65 52.8C61.71 52.28 61.84 52.61 62 52.74C62.31 52.95 62.93 52.53 63.01 53.11C63.09 53.75 62.52 53.77 62.04 53.83ZM57.94 139.44C57.94 139.44 58.04 139.52 58.04 139.58C58.08 140.18 57.17 140.84 56.64 140.57C56.56 140.51 56.43 140.32 56.45 140.24C56.57 139.91 57.62 139.37 57.93 139.44H57.94ZM56.89 131.53C56.99 131.24 57.08 130.91 57.16 130.69C57.53 131.49 57.94 132.59 57.47 133.78C57.39 133.99 57.26 134.17 57.08 134.11C56.92 134.07 56.69 133.86 56.69 133.72C56.63 133 56.61 132.26 56.9 131.54L56.89 131.53ZM57.36 120.69C57.36 120.69 57.34 120.67 57.34 120.65V120.48C57.44 120.42 57.55 120.36 57.65 120.32C57.92 120.26 58.19 120.22 58.39 120.44C58.64 120.73 58.53 121.06 58.49 121.39C58.47 121.54 58.33 121.62 58.2 121.51C57.89 121.26 57.62 120.97 57.35 120.69H57.36ZM56.43 123.95C56.39 124.13 56.31 124.16 56.24 123.99V123.95C56.24 123.95 56.26 123.87 56.26 123.83C56.28 123.83 56.3 123.81 56.34 123.81C56.36 123.81 56.38 123.79 56.38 123.81C56.4 123.83 56.42 123.89 56.42 123.95H56.43ZM53.01 66.72C52.91 66.66 52.58 66.41 52.85 66.41C53.94 66.37 54.13 65.61 54.4 64.82C54.48 64.59 54.96 64.61 55.1 64.8C55.45 65.27 55.41 65.83 55.49 66.33C55.39 66.97 55.33 67.57 55.18 68.16C55.02 68.78 54.54 68.94 53.96 68.63C53.71 68.51 53.49 68.36 53.26 68.24C52.95 68.07 52.93 67.87 53.12 67.6C53.35 67.29 53.37 66.98 53.02 66.71L53.01 66.72ZM54.02 70.49C54.08 69.64 54.33 69.54 55.22 69.97C55.51 70.11 55.74 70.4 55.55 70.55C54.77 71.23 55.06 71.97 55.28 72.75C55.34 72.94 55.32 73.16 55.28 73.35C55.26 73.45 55.12 73.58 55.01 73.62C54.91 73.66 54.72 73.62 54.64 73.56C53.98 72.86 53.88 72.01 54.02 71.23C54.02 70.9 54 70.69 54.02 70.49ZM55.15 107.07C55.38 106.99 55.5 107.15 55.56 107.36C55.58 107.48 55.6 107.63 55.6 107.75C55.6 107.96 55.54 108.2 55.29 108.16C55.13 108.14 54.96 107.98 54.84 107.83C54.76 107.75 54.76 107.58 54.72 107.4C54.86 107.3 54.99 107.13 55.15 107.07ZM55.23 154.6C55.27 154.29 55.31 153.96 55.39 153.63C55.41 153.53 55.55 153.42 55.68 153.38C55.99 153.26 56.03 153.55 56.03 153.71C56.07 154.1 56.07 154.51 56.01 154.93C55.99 155.09 55.78 155.3 55.64 155.34C55.21 155.44 55.35 155.01 55.23 154.82C55.21 154.78 55.23 154.7 55.23 154.59V154.6ZM54.22 49.99C54.22 49.99 54.24 49.95 54.28 49.93C54.57 49.81 54.88 49.7 55.19 49.62C55.23 49.6 55.33 49.66 55.35 49.68C55.37 49.78 55.39 49.97 55.35 49.99C55.02 50.2 54.67 50.36 54.32 50.53C54.32 50.53 54.32 50.53 54.3 50.53C54.3 50.53 54.28 50.51 54.26 50.47C54.22 50.41 54.16 50.3 54.12 50.26C54.16 50.18 54.18 50.05 54.22 49.99ZM53.11 59.22C53.75 58.93 53.79 58.46 53.91 57.92C53.97 57.65 54.01 57.38 54.16 57.16C54.43 56.73 55.29 56.81 55.52 57.26C55.6 57.45 55.68 57.63 55.75 57.84C56.02 58.56 55.98 58.68 55.15 58.93C54.86 59.01 54.59 59.08 54.7 59.42C54.78 59.71 54.97 59.98 55.11 60.24C55.19 60.14 55.27 59.99 55.38 59.95C55.71 59.79 56.02 59.91 55.98 60.16C55.84 61.09 55.69 62.04 55.55 62.94C55.2 63.11 54.87 63.04 54.54 62.92C54.11 62.73 54 62.28 54.27 61.91C54.62 61.39 54.62 61.15 54.33 60.88C54.06 60.65 53.79 60.41 53.44 60.43C53.25 60.45 52.99 60.99 52.88 60.68C52.76 60.23 52.51 59.48 53.11 59.22ZM52.76 72.49C52.24 73.25 52.33 74.02 52.68 74.8C52.74 74.94 52.6 75.17 52.52 75.36C52.5 75.42 52.42 75.5 52.38 75.5C52.28 75.48 52.07 75.42 52.07 75.38C52.05 74.84 52.05 74.29 52.05 73.75H52.11C52.11 73.28 52.09 72.8 52.13 72.33C52.13 72.25 52.34 72.12 52.44 72.15C52.63 72.15 52.89 72.31 52.77 72.5L52.76 72.49ZM53.81 78.51C53.56 77.95 53.5 77.85 53.09 78.43C52.93 78.68 52.99 78.18 52.86 78.08C52.9 77.63 53.15 77.4 53.48 77.48C53.91 77.58 54.08 78.1 54.45 78.28C54.53 78.32 54.66 78.36 54.78 78.36C54.82 78.36 54.86 78.36 54.9 78.34C54.88 78.36 54.86 78.4 54.84 78.44C54.78 78.54 54.72 78.67 54.7 78.65C54.41 78.59 53.96 78.86 53.81 78.51ZM54.78 156.6C54.97 156.6 55.15 156.66 55.48 156.72C55.17 156.78 54.99 156.86 54.8 156.86C54.68 156.86 54.57 156.78 54.45 156.74C54.55 156.7 54.66 156.6 54.78 156.6ZM53.87 88.79C53.83 88.71 53.71 88.61 53.73 88.5C53.73 88.4 53.85 88.31 53.92 88.21C53.98 88.31 54.04 88.4 54.08 88.5C54.02 88.6 53.94 88.68 53.87 88.79ZM53.46 161.17C53.46 161.17 53.48 161.11 53.5 161.09C53.54 161.01 53.56 160.92 53.58 160.84C53.6 160.76 53.64 160.68 53.68 160.59C53.97 159.97 54.22 159.35 54.5 158.73C54.54 158.63 54.73 158.55 54.83 158.57C55.12 158.61 55.1 158.84 54.95 158.98C54.54 159.43 54.54 159.97 54.56 160.53C54.58 161.02 54.48 161.5 54.17 161.87C54.05 162.01 53.84 162.14 53.68 162.16C53.31 162.2 53.1 161.87 52.83 161.67C52.83 161.67 52.83 161.65 52.81 161.65V161.61C52.81 161.61 52.79 161.57 52.79 161.55C53.18 161.59 53.35 161.41 53.45 161.18L53.46 161.17ZM54.61 172.98C54.67 173.97 53.5 174.82 54.22 175.89C54.41 176.18 54.53 176.49 54.53 176.84C54.55 177.38 54.18 178.01 53.87 177.97C53.44 177.91 53.42 177.52 53.27 177.23C53.06 176.8 52.86 176.36 52.61 175.95C52.45 175.7 52.42 175.48 52.51 175.19C52.82 174.24 52.32 173.29 52.47 172.33C52.51 172.04 52.33 171.67 52.14 171.38C51.98 171.09 51.71 170.89 51.48 170.64C51.77 170.5 52.1 170.72 52.43 170.5C53.11 170.03 53.19 169.22 53.63 168.56C54.1 168.83 54.58 169.05 55.01 169.36C55.05 169.38 55.07 169.4 55.11 169.44C55.34 169.65 55.42 169.83 55.32 170.06C55.24 170.27 55.01 170.47 54.68 170.72C54.68 170.72 54.68 170.72 54.68 170.73C54.68 170.73 54.68 170.73 54.68 170.74C54.56 170.88 54.41 171.01 54.29 171.15C54.29 171.49 54.34 171.83 54.74 171.93C55.07 172.03 55.4 172.05 55.73 172.18C56.02 172.28 56 172.61 55.73 172.82C55.5 172.98 55.32 173.17 55.01 173.05C54.87 173.01 54.74 173.01 54.62 172.99L54.61 172.98ZM55.1 181.2C55.16 181.18 55.24 181.14 55.29 181.18C55.5 181.3 55.64 182 55.48 182.21C55.46 182.25 55.4 182.25 55.36 182.25C55.09 182.15 54.95 181.94 54.89 181.67C54.85 181.46 54.93 181.3 55.12 181.2H55.1ZM56.44 184.11C56.11 184.15 55.76 184.13 55.43 184.11C55.14 184.07 54.87 183.57 54.96 183.33C55.12 182.86 55.37 183.27 55.83 183.23C55.85 183.21 56.12 183 56.35 183.04C56.6 183.08 56.74 183.39 56.76 183.68C56.78 183.89 56.68 184.09 56.45 184.11H56.44ZM56.3 169.83C56.24 169.79 56.32 169.46 56.4 169.29C56.44 169.19 56.63 169.13 56.75 169.11C57.02 169.07 57.29 169.03 57.55 169.03C58.31 169.03 58.85 167.88 59.53 168.39C60.05 168.78 59.51 169.79 60.21 170.47C59.12 170.55 58.27 170.18 57.39 170.35C57.06 170.39 56.63 170.06 56.3 169.84V169.83ZM58.61 192.77C58.96 192.75 59.04 192.98 59.02 193.26C59.02 193.45 58.9 193.61 58.67 193.59C58.34 193.59 58.24 193.34 58.24 193.1C58.26 192.89 58.41 192.77 58.61 192.77ZM58.28 190.38C58.36 190.01 58.51 189.64 58.94 189.27C58.94 189.83 58.96 190.22 58.94 190.61C58.92 190.84 58.8 190.96 58.57 190.86C58.36 190.78 58.24 190.59 58.28 190.39V190.38ZM57.91 196.93C58.18 196.79 58.51 196.6 58.84 196.83C59.27 197.12 59.58 197 59.85 196.6C60.06 196.33 60.3 196.33 60.51 196.6C60.67 196.81 60.84 197.03 60.94 197.28C61.02 197.53 61.04 197.94 60.71 197.92C59.72 197.88 59.29 198.48 59.1 199.32C58.11 199.05 57.37 198.68 56.89 197.9C57.12 197.45 57.51 197.14 57.9 196.93H57.91ZM55.75 198.13C55.73 197.88 55.79 197.62 55.83 197.22C56.12 197.8 56.04 198.27 56.06 198.75C56.08 199.02 56.1 199.29 55.9 199.51C55.61 199.1 55.8 198.6 55.76 198.13H55.75ZM55.77 201.59C55.85 201.63 55.91 201.84 55.89 201.94C55.85 202.13 55 202.44 54.8 202.31C54.55 202.17 54.55 201.86 54.51 201.61C54.51 201.38 54.61 201.16 54.84 201.22C55.17 201.28 55.48 201.45 55.77 201.59ZM54.57 196.54C54.63 196.44 54.76 196.33 54.84 196.31C54.94 196.31 55.11 196.39 55.15 196.48C55.38 196.91 55.34 197.37 55.13 197.82C55.11 197.86 54.88 197.88 54.82 197.82C54.53 197.59 54.49 197.26 54.49 196.91C54.51 196.79 54.51 196.64 54.57 196.54ZM52.86 205.63C52.55 205.71 52.32 205.57 52.16 205.36C51.5 204.6 51.5 203.98 52.14 203.24C52.28 203.05 52.76 203.07 52.86 203.28C53.11 203.84 53.38 204.39 53.31 204.99C53.25 205.28 53.17 205.55 52.86 205.63ZM53.25 198.35C53.25 197.57 53.23 197.32 53.25 197.07C53.27 196.88 53.35 196.68 53.62 196.7C53.68 196.7 53.74 196.72 53.78 196.76C53.94 196.9 53.94 197.09 53.84 197.27C53.72 197.5 53.59 197.72 53.24 198.34L53.25 198.35ZM53.33 218.88C53.64 218.47 54.03 218.53 54.4 218.72C54.71 218.87 54.96 219.07 55.33 219.11C55.99 219.17 56.44 219.05 56.59 218.39C56.8 217.48 57.5 217.13 58.14 216.68C58.28 216.58 58.55 216.56 58.72 216.62C58.88 216.68 59.03 216.89 59.09 217.05C59.15 217.26 59.01 217.44 58.78 217.42C58.29 217.36 57.81 217.36 57.52 217.83C57.19 218.34 56.82 219.05 57.09 219.52C57.5 220.24 57.09 220.65 56.88 221.19C56.74 221.56 56.72 221.97 56.24 222.39C56.24 221.77 56.22 221.36 56.24 220.97C56.28 220.31 55.72 220.04 55.42 219.63C55.17 219.28 54.82 219.44 54.49 219.55C54.43 219.57 54.35 219.59 54.28 219.57C53.89 219.55 53.43 219.61 53.31 219.08C53.25 219.04 53.29 218.96 53.33 218.89V218.88ZM53.23 245.07C53.19 244.78 53.35 244.51 53.68 244.58C53.93 244.62 54.22 244.75 54.28 245.05C54.32 245.17 54.34 245.34 54.3 245.44C54.18 245.85 54.18 246.24 54.42 246.61C54.71 247.04 54.83 247.48 54.61 247.95C54.53 248.14 54.53 248.34 54.69 248.51C55.56 249.35 55.12 250.45 55.21 251.44C54.9 252.28 55.5 253.21 54.98 254.04C54.92 254.16 54.79 254.37 54.75 254.37C54.59 254.31 54.42 254.2 54.28 254.1C54.22 254.06 54.18 254 54.18 253.93C53.79 252.47 52.94 251.04 53.6 249.44C53.66 249.27 53.66 249.01 53.58 248.86C52.82 247.64 53.39 246.33 53.23 245.07ZM52.01 257.95C52.15 257.41 52.77 257.23 52.77 256.55C52.77 256.06 53.22 255.87 53.64 255.99C53.99 256.09 54.05 256.4 53.72 256.96C53.53 257.25 53.47 257.43 53.86 257.52C54.52 257.64 54.48 258.18 54.48 258.63C54.48 258.77 54.23 259.08 54.15 259.06C52.77 258.81 53.02 260.09 52.54 260.79V259.45C52.56 258.87 51.82 258.63 52 257.95H52.01ZM54.71 303.74C54.52 303.97 54.26 304.07 53.99 303.97C53.66 303.87 53.27 303.78 53.08 303.56C52.92 303.33 52.98 302.92 52.94 302.49C52.9 302.35 52.82 302.04 53.02 301.83C53.25 301.6 53.54 301.4 53.82 301.27C54.05 301.17 54.27 301.41 54.23 301.6C54.02 302.24 54.29 302.61 54.75 302.98C54.94 303.14 54.89 303.52 54.71 303.74ZM55.16 295.58C54.67 296.18 54.23 296.22 53.66 295.64C53.35 295.33 52.84 295.23 52.44 294.98C52.36 294.94 52.36 294.75 52.32 294.59C52.48 294.51 52.69 294.3 52.79 294.34C53.47 294.59 54.11 294.83 54.87 294.59C55.01 294.55 55.36 294.82 55.51 295.02C55.74 295.33 55.3 295.39 55.16 295.58ZM54.69 288.24C54.65 288.16 54.75 287.97 54.83 287.91C55.04 287.75 55.26 287.6 55.53 287.44C56.07 287.89 56.11 288.8 56.93 289.01C56.99 289.03 57.01 289.36 56.97 289.53C56.95 289.61 56.76 289.7 56.64 289.7C55.63 289.7 55.07 289.06 54.68 288.26L54.69 288.24ZM61.66 317.15C61.56 317.15 61.37 317.05 61.37 316.96C61.35 316.67 61.49 316.47 61.8 316.47C61.92 316.53 62.13 316.59 62.13 316.63C62.11 316.9 61.99 317.12 61.66 317.15ZM62.55 314.78C62.36 314.8 62.22 314.76 62.12 314.7C61.98 314.62 61.89 314.47 61.87 314.25V314.04C61.87 313.94 61.99 313.83 62.08 313.75C62.12 313.73 62.22 313.73 62.27 313.77C62.46 313.98 62.64 314.16 62.79 314.39C62.81 314.41 62.83 314.45 62.83 314.47C62.89 314.66 62.73 314.72 62.56 314.78H62.55ZM61.33 306.54C61.17 306.35 61.06 306.17 60.96 306C60.82 305.79 60.57 305.71 60.44 305.84C59.92 306.27 59.43 306.25 58.85 305.96C58.69 305.88 58.4 306.25 58.44 306.54C58.46 306.81 58.65 307.06 58.65 307.32C58.65 307.57 58.53 307.9 58.16 307.77C57.79 307.65 57.46 307.5 57.01 307.61C56.23 307.77 55.86 307.36 56.08 306.68C56.45 305.51 57.13 305.05 58.37 305.22C58.97 305.3 59.65 305.65 60.1 305.24C60.2 305.16 60.29 305.08 60.37 305.03C60.49 304.95 60.62 304.93 60.72 304.93C60.84 304.93 60.97 304.97 61.11 305.05C61.15 305.05 61.19 305.07 61.21 305.07C61.27 305.07 61.33 305.09 61.37 305.09H61.39C61.53 305.09 61.7 305.07 61.84 305.03C61.98 304.99 62.13 304.93 62.27 304.87C62.56 304.75 62.64 304.95 62.68 305.14C62.76 305.41 62.84 305.68 62.82 305.94C62.74 306.68 61.89 307.01 61.32 306.54H61.33ZM62.69 278.49C62.53 278.24 62.92 277.67 63.25 277.67C63.41 277.65 63.54 277.71 63.52 277.88C63.5 278.09 63.42 278.27 63.42 278.48C63.42 278.79 63.63 279 63.94 278.97C64.1 278.95 64.41 278.76 64.39 278.64C64.37 277.9 64.99 277.3 64.86 276.56C64.76 276 65.07 275.65 65.38 275.28C65.61 275.01 65.87 275.05 66.06 275.3C66.27 275.57 66.43 275.88 66.58 276.16C66.85 276.74 66.79 276.96 66.11 277.19C65.66 277.37 65.43 277.54 65.51 278.05C65.63 278.85 65.7 279.66 66.17 280.36C66.48 280.81 66.33 281.22 66.01 281.35C65.25 281.64 65.04 281.6 64.67 281.02C64.48 280.73 64.38 280.38 64.13 280.15C63.97 279.99 63.39 280.15 63.88 279.63C64 279.49 63.76 279.26 63.55 279.26C63.01 279.24 62.93 278.79 62.7 278.48L62.69 278.49ZM66.36 291.64C66.36 291.64 66.36 291.68 66.34 291.72C66.3 291.8 66.24 291.86 66.18 291.95C66.14 291.87 66.06 291.81 66.02 291.72C66 291.7 66 291.68 66 291.64C66 291.56 66.12 291.45 66.19 291.35C66.25 291.45 66.38 291.56 66.38 291.64H66.36ZM63.27 287.58C63.37 287.39 63.58 287.31 63.79 287.37C64 287.43 64.12 287.6 64.1 287.82C64.08 288.03 64.04 288.23 63.94 288.4C63.84 288.54 63.65 288.73 63.51 288.73C63.1 288.77 63.2 288.38 63.1 288.13C63.14 287.94 63.18 287.76 63.29 287.57L63.27 287.58ZM63.27 291.17C63.27 291.17 63.29 291.13 63.31 291.11C63.33 291.09 63.35 291.09 63.37 291.07C63.43 291.03 63.53 291.01 63.6 290.97C63.7 290.97 63.83 290.97 63.91 290.99C63.93 290.99 63.95 291.01 63.97 291.03C64.26 291.48 64.51 291.92 65.19 291.71C65.42 291.65 65.52 291.9 65.52 292.1C65.5 292.35 65.5 292.66 65.36 292.84C65.2 293.07 64.84 293.07 64.64 292.9C64.17 292.55 63.73 292.16 63.32 291.75C63.24 291.63 63.26 291.36 63.28 291.17H63.27ZM63.46 294.98C63.5 294.69 63.6 294.44 63.89 294.36C64.12 294.3 64.26 294.4 64.36 294.59C64.48 294.82 64.65 295.04 64.79 295.27C64.89 295.44 64.98 295.64 64.73 295.76C64.54 295.84 64.32 295.92 64.15 295.86C63.76 295.72 63.49 295.41 63.45 294.97L63.46 294.98ZM63.95 298.17C63.95 298.17 63.93 298.05 63.91 297.98C63.93 297.92 63.91 297.84 63.95 297.79C64.3 297.42 65.21 297.6 65.45 298.12C65.49 298.2 65.43 298.41 65.35 298.47C64.98 298.68 64.24 298.51 63.95 298.16V298.17ZM65.97 317.32C65.62 317.42 65.31 317.3 65 317.16C64.96 317.14 64.94 317.12 64.9 317.1C64.82 317.04 64.8 316.96 64.84 316.83C64.9 316.73 64.96 316.58 65.05 316.52C65.36 316.33 65.69 316.27 66.02 316.44C66.21 316.52 66.35 316.67 66.33 316.91C66.33 317.16 66.19 317.26 65.98 317.32H65.97ZM67.29 315.9C66.24 315.96 65.97 315.71 66.05 314.7C66.07 314.33 66.26 314.02 66.67 314.04C67.08 314.06 67.29 313.85 67.41 313.5C67.53 313.17 67.25 312.49 67.86 312.61C68.25 312.67 68.07 313.33 68.09 313.7C68.13 314.36 68.11 315.04 68.11 315.86C67.7 315.88 67.49 315.88 67.29 315.88V315.9ZM68.49 318C68.24 318.1 68.16 317.94 68.1 317.75C68.14 317.63 68.16 317.46 68.24 317.42C68.49 317.28 68.53 317.5 68.61 317.67C68.69 317.81 68.65 317.94 68.49 318ZM68.98 294.48C68.67 294.6 68.34 294.69 68.01 294.79C67.72 294.87 67.45 294.79 67.27 294.58C66.86 294.15 66.47 293.67 66.07 293.22C65.91 293.03 66.13 292.62 66.4 292.6C66.73 292.6 67.06 292.64 67.33 292.66C68.32 292.31 68.81 292.91 69.29 293.48C69.54 293.81 69.39 294.33 68.98 294.47V294.48ZM69.23 231.89C69.04 232.14 68.78 232.06 68.49 232.06C67.95 232.06 67.6 232.37 67.79 232.72C68.31 233.67 67.54 234.43 67.5 235.28C67.5 235.44 67.29 235.61 67.15 235.75C66.82 236.08 66.3 236 66.16 235.58C65.91 234.82 65.77 233.97 64.84 233.54C65.19 233.29 65.44 233.17 65.62 232.98C65.87 232.75 65.89 232.28 66.28 232.28C66.59 232.3 66.88 232.53 67.27 232.71C67.31 231.84 67.39 231.1 68.14 230.55C68.45 230.32 68.22 229.6 68.63 229.27C68.96 229.54 69.58 229.56 69.58 230.14C69.64 230.74 69.62 231.38 69.23 231.89ZM70.12 222.97C70 223.11 69.93 223.36 69.79 223.55C69.77 223.57 69.75 223.59 69.73 223.61C69.05 224.19 69.09 224.85 69.4 225.59C69.5 225.82 69.44 226.13 69.44 226.39C69.44 226.7 69.23 226.86 68.99 226.99C68.33 227.28 67.84 226.87 67.3 226.62C67.14 226.54 67.03 226.1 67.09 225.9C67.28 225.16 67.36 224.48 66.95 223.78C66.91 223.7 67.18 223.31 67.2 223.33C68.25 223.72 69.16 223.1 70.13 222.96L70.17 222.92L70.13 222.98L70.12 222.97ZM70.37 162.52C70.18 162.46 70 162.38 69.94 162.36C69.61 162.38 69.4 162.42 69.22 162.4C68.87 162.36 68.7 162.01 68.87 161.66C68.95 161.47 69.06 161.29 69.14 161.12C69.28 160.87 69.51 160.89 69.55 161.12C69.65 161.66 69.88 161.96 70.44 162.03C70.52 162.03 70.65 162.22 70.65 162.34C70.69 162.51 70.55 162.59 70.38 162.53L70.37 162.52ZM72.82 216.5C72.78 216.83 72.57 216.95 72.28 216.91C71.93 216.89 71.91 216.6 71.87 216.33C71.87 215.94 72.16 215.98 72.41 215.98C72.78 215.98 72.86 216.19 72.82 216.49V216.5ZM72.39 187.54C72.58 187.62 72.78 187.66 72.95 187.77C73.03 187.83 73.09 188 73.05 188.1C73.01 188.22 72.91 188.33 72.8 188.41C72.64 188.55 72.64 188.37 72.55 188.33C72.06 188.04 71.83 188.97 71.29 188.64C70.84 188.6 70.63 188.33 70.82 188.02C71.34 187.11 71.44 187.09 72.39 187.55V187.54ZM70.6 142.76C70.91 142.64 71.03 142.99 71.14 143.23C71.22 143.44 71.18 143.66 70.93 143.68C70.48 143.72 70 143.68 69.45 143.68C69.7 143.06 70.17 142.92 70.6 142.75V142.76ZM68.31 37.74C68.15 37.53 67.98 37.31 67.79 37.12C67.71 37.06 67.5 37.04 67.44 37.1C66.88 37.57 67.07 38.61 67.69 38.67C68.41 38.73 68.89 39.16 69.09 39.7C69.34 40.34 69.03 41.12 69.48 41.78C69.5 41.82 69.36 42.01 69.27 42.09C69.02 42.3 68.61 42.21 68.47 42.61C68.39 42.84 68.39 43.17 68 43.23C67.9 43 67.79 42.78 67.67 42.55C67.42 42.14 67.15 42.1 66.91 42.38C66.79 42.55 66.66 42.71 66.56 42.87C66.4 43.16 66.23 43.51 65.82 43.3C65.51 43.14 65.3 42.83 65.35 42.46C65.51 41.12 65.19 39.78 65.41 38.4C65.57 37.39 65.45 36.24 64.67 35.06C65.45 35.12 65.99 34.9 66.24 35.51C66.53 36.25 67.31 35.86 67.83 36.25C68.47 36.72 68.55 37.12 68.32 37.73L68.31 37.74ZM66.35 26.36C66.58 26.32 66.72 26.44 66.78 26.65C66.86 27 66.59 27.41 66.33 27.35C66.12 27.31 66.02 27.14 66 26.94C66 26.67 66.04 26.42 66.35 26.36ZM65.24 15.07C65.3 14.95 65.36 14.84 65.43 14.72C65.47 14.84 65.55 14.97 65.55 15.07C65.53 15.26 65.47 15.46 65.43 15.65C65.12 15.53 65.31 15.26 65.24 15.07ZM63.2 25.89C63.49 25.72 63.78 25.56 64.19 25.35C64.27 25.76 64.35 26.03 64.38 26.3C64.44 27 64.38 27.06 63.68 27.25C63.49 27.29 63.29 27.31 63.1 27.39C62.83 27.49 62.73 27.27 62.67 27.1C62.44 26.5 62.61 26.17 63.21 25.88L63.2 25.89ZM62.5 24.63C62.54 24.75 62.62 24.88 62.62 24.98C62.62 25 62.6 25.04 62.6 25.06C62.56 25.14 62.5 25.23 62.46 25.31C62.42 25.19 62.32 25.06 62.32 24.96C62.32 24.86 62.44 24.75 62.51 24.63H62.5ZM63.37 28.2C63.7 28.12 64.03 28.14 64.38 28.14C64.46 28.14 64.59 28.33 64.59 28.43C64.59 28.53 64.49 28.7 64.4 28.72C64.07 28.8 63.74 28.84 63.41 28.91C64.01 29.16 64.73 28.95 64.81 29.88C64.85 30.33 65.3 30.5 65.66 30.7C65.85 30.82 65.97 31.01 65.82 31.22C65.72 31.36 65.53 31.49 65.35 31.53C64.96 31.63 64.59 31.41 64.2 31.24C63.83 31.08 63.44 30.93 63.05 30.81C62.41 30.58 62.31 30.07 62.33 29.49C62.37 28.73 62.64 28.38 63.38 28.21L63.37 28.2ZM60.3 49.78C60.63 49.16 61.12 49.92 61.56 49.59C62.03 49.22 63.21 49.45 63.37 49.9C63.47 50.19 63.37 50.56 63.29 50.89C63.21 51.2 62.94 51.3 62.98 51.3C62.28 51.32 61.97 51.18 61.87 50.81C61.66 50.17 61.33 50.13 60.82 50.44C60.63 50.54 60.45 50.42 60.3 50.23C60.22 50.13 60.09 50.09 59.97 50C60.07 49.92 60.24 49.88 60.3 49.77V49.78ZM59.23 78.8C59.19 78.9 58.96 79.01 58.9 78.97C58.22 78.62 57.77 78.04 57.46 77.55C57.44 77.14 57.58 76.97 57.77 76.93C58.47 76.79 59.4 77.38 59.48 78.04C59.52 78.29 59.36 78.58 59.23 78.8ZM59.25 71.38C59.54 71.46 59.11 71.54 59.09 71.67C59.05 71.94 58.99 72.21 58.97 72.45C58.95 72.82 58.83 73.09 58.39 73.15C58.12 73.19 57.87 73.29 57.61 73.38C57.07 73.57 56.79 73.87 57.07 74.45C57.21 74.74 57.21 75.01 56.88 75.07C56.51 75.15 56.47 74.78 56.39 74.55C56.23 74.1 56.08 73.64 56.12 73.48C56.22 72.82 56.24 72.47 56.37 72.16C56.43 71.99 56.6 71.83 56.76 71.77C57.01 71.69 57.09 71.94 57.17 72.12C57.25 72.31 57.23 72.57 57.5 72.57C57.75 72.57 57.73 72.32 57.75 72.14C57.79 71.87 57.75 71.52 58.04 71.44C58.45 71.36 58.91 71.28 59.26 71.38H59.25ZM58.32 33.99C58.98 34.96 58.42 35.95 58.65 37.1C57.9367 36.44 57.2 36.22 56.44 36.44C56.58 35.43 56.34 34.44 57.12 33.64C57.7 33.04 57.9 32.4 57.16 31.74C57 31.59 57.06 31.35 57.26 31.22C57.34 31.16 57.53 31.16 57.63 31.22C58.56 31.74 58.66 31.96 58.37 33.01C58.29 33.34 58.08 33.67 58.31 33.98L58.32 33.99ZM58.32 24.86C58.3 24.92 58.26 24.96 58.22 25.03C58.14 25.11 58.01 25.17 57.87 25.2C57.52 25.12 57.42 24.87 57.4 24.58V24.46C57.4 24.27 57.44 24.03 57.71 24.07C58.04 24.11 58.37 24.26 58.37 24.67C58.37 24.73 58.35 24.81 58.33 24.88L58.32 24.86ZM57.12 0.459992C57.68 0.379992 57.97 0.579974 58.17 1.15997C58.29 1.52997 58.05 1.89999 57.7 1.79999C57.39 1.71999 57.14 1.48998 56.75 1.56998C56.01 1.66998 55.99 1.63 55.84 0.869995C55.82 0.809995 55.82 0.729973 55.8 0.659973C56.32 0.579973 56.73 0.499982 57.12 0.449982V0.459992ZM55.62 5.00998C55.68 4.92998 55.87 4.86997 55.97 4.90997C56.61 5.13997 56.53 5.78 56.65 6.25C56.75 6.7 56.38 6.96998 55.99 7.13998C55.78 7.21998 55.58 7.13997 55.54 6.90997C55.44 6.51997 55.4 6.12998 55.31 5.66998C55.39 5.47998 55.47 5.23998 55.62 5.00998ZM53.91 11.3C54.18 10.91 54.8 10.76 55.27 10.5C55.46 10.4 55.62 10.25 55.81 10.21C56.12 10.13 56.37 10.31 56.39 10.6C56.43 11.34 56.43 12.08 56.39 12.83C56.39 12.89 56.37 12.95 56.37 13.02C56.35 13.1 56.31 13.18 56.27 13.25C56.11 13.52 55.8 13.64 55.4 13.62C55.17 13.62 54.99 13.56 54.84 13.41C54.8 13.37 54.76 13.31 54.72 13.24C54.62 13.08 54.53 12.87 54.53 12.66C54.49 12.1 53.52 11.88 53.91 11.3Z" fill="#D5703B"/>
<path d="M116.57 318.93C116.53 319.05 116.51 319.2 116.47 319.26C116.53 319.18 116.53 319.03 116.57 318.93Z" fill="#D5703B"/>
<path d="M102.49 308.15C102.41 308.17 102.32 308.17 102.24 308.21C102.32 308.19 102.41 308.17 102.49 308.15Z" fill="#D5703B"/>
<path d="M15.5 310.05C15.5 310.05 15.48 310.06 15.47 310.07C15.48 310.07 15.49 310.06 15.5 310.05Z" fill="#D5703B"/>
<path d="M116.57 318.89V318.91H116.59L116.57 318.89Z" fill="#D5703B"/>
<path d="M116.59 318.91C116.59 318.91 116.59 318.93 116.6 318.93H116.61L116.59 318.91Z" fill="#D5703B"/>
<path d="M116.57 318.93H116.59L116.57 318.91V318.93Z" fill="#D5703B"/>
<path d="M67.73 378.06C68.78 376.91 69.26 375.36 70.41 374.25C71.03 373.65 71.56 372.91 72 372.15C72.76 370.83 73.83 369.78 74.95 368.77C75.69 368.11 76.29 367.39 76.6 366.46C76.74 366.03 76.99 365.84 77.32 365.57C78.5 364.66 79.67 363.76 80.68 362.66C81.36 361.9 82.02 361.14 82.82 360.5C83.46 360.01 84.04 359.45 84.24 358.58C84.36 358.06 84.65 357.49 85.17 357.26C86.34 356.77 86.63 355.51 87.52 354.77C87.64 354.67 87.77 354.38 87.71 354.21C87.44 353.32 88.12 352.99 88.64 352.6C89.42 352.02 89.98 351.43 89.28 350.44C89.22 350.36 89.28 350.17 89.32 350.05C89.42 349.8 89.51 349.6 89.9 349.76C90.83 350.11 91.12 349.84 90.89 348.89C90.81 348.56 90.58 348.17 90.85 347.92C91.55 347.32 91.59 345.86 93.1 346.29C93.39 346.37 93.9 346.06 94.19 345.8C95.08 344.96 96.05 344.15 96.68 343.14C97.26 342.23 97.92 341.43 98.7 340.71C99.05 340.38 99.36 340.03 99.69 339.68C99.94 339.43 100.14 339.12 100.06 338.77C99.87 337.9 100.45 337.41 101.07 337.18C102.53 336.64 103.38 335.53 104.1 334.27C104.49 333.61 104.95 332.99 105.48 332.5C106 332.03 106.33 331.45 106.76 330.91C107.13 330.46 107.25 330 107.19 329.41C107.11 328.67 107.29 328.5 108.12 328.38C108.61 328.3 108.92 328.07 109.29 327.76C110.57 326.69 111.58 325.49 112.11 323.89C112.19 323.66 112.44 323.48 112.63 323.29C112.9 322.98 113.19 322.69 113.43 322.38C114.34 321.29 115.1 320.07 116.36 319.33C116.38 319.33 116.38 319.31 116.38 319.31C116.44 319.25 116.46 319.1 116.48 318.98C116.17 318.92 115.82 318.92 115.57 318.77C114.64 318.21 114.15 317.18 113.16 316.69C113.12 316.67 113.12 316.44 113.14 316.34C113.3 315.91 113.18 315.54 112.95 315.17C112.66 314.68 112.15 314.76 111.69 314.72C111.36 314.68 111.05 314.51 110.72 314.39C109.85 314.1 109.01 313.75 108.14 313.5C108.08 313.48 108.02 313.46 107.95 313.44C107.85 313.4 107.74 313.36 107.64 313.32C107.64 313.32 107.627 313.313 107.6 313.3C106.9 312.97 106.55 312.37 106.49 311.4C106.33 311.26 106.16 311.09 106 310.95C105.81 310.87 105.63 310.81 105.46 310.7C104.8 310.23 104.82 310.23 104.37 311.03C104.31 311.13 104.16 311.17 104.06 311.22C104.04 311.22 103.92 311.12 103.94 311.1C103.98 310.98 104.02 310.85 104.13 310.77C104.46 310.44 104.83 310.13 105.16 309.78C105.28 309.66 105.37 309.39 105.32 309.22C105.24 308.87 103.75 308 103.34 308.05C103.03 308.09 102.74 308.15 102.45 308.21C102.37 308.23 102.28 308.25 102.2 308.27C102.2 308.25 102.21 308.23 102.22 308.21C102.35 307.62 102.67 307.14 102.96 306.65C103.06 306.49 103.17 306.3 103.27 306.13C103.46 305.8 103.46 305.51 103.19 305.2C102.61 304.5 102.24 304.5 101.83 305.24C101.67 305.53 101.62 305.96 101.38 306.11C100.99 306.36 100.91 305.76 100.62 305.66C100.52 305.62 100.35 305.62 100.23 305.66C99.94 305.78 99.63 306.11 99.57 305.43C99.53 305.1 99.3 304.81 99.2 304.5C99.08 304.15 99.59 303.72 98.93 303.37C98.5 303.43 97.86 303.37 97.47 303.64C96.69 304.18 96.05 304.88 95.35 305.52C95.43 306.53 94.59 306.8 93.97 307.25C93.54 307.58 93.58 308.32 93.02 308.55C92.57 308.76 92.44 309.04 92.46 309.5C92.48 309.89 92.21 310.28 92.42 310.7C92.54 310.95 92.34 311.03 92.13 311.07C91.35 311.19 90.77 311.69 90.27 312.24C89.2 313.48 88 314.61 87.3 316.14C87.01 316.76 86.56 317.19 85.98 317.62C84.97 318.38 83.98 319.25 83.2 320.38C83.36 320.52 83.51 320.67 83.65 320.77C83.88 320.94 84.12 321.06 84.33 321.24C84.87 321.76 84.68 322.35 84.02 322.64C83.32 322.93 82.7 322.93 82.08 322.45C81.61 322.08 81.32 322.53 81.03 322.76C80.74 322.97 80.66 323.32 80.89 323.67C81.16 324.06 81.41 324.45 81.69 324.84C82.04 325.31 82.04 325.4 81.59 325.85C81.49 325.97 81.43 326.1 81.32 325.99C81.28 325.93 81.4 325.74 81.38 325.64C81.28 325.1 80.89 324.82 80.6 325.08C79.55 326.05 78.25 326.71 77.41 327.94C76.46 329.32 75.31 330.56 74.77 332.21C74.65 332.58 74.38 332.73 74.01 332.77C73.82 332.79 73.49 332.96 73.49 332.98C73.68 333.82 73.2 334.05 72.5 334.15C72.21 334.19 72.01 334.46 72.03 334.75C72.09 335.74 71.43 335.99 70.69 336.28C69.43 336.77 69.43 337.13 69.66 338.13C69.85 339 69.64 339.35 68.86 339.76C68.63 339.88 68.32 339.9 68.1 340.03C67.77 340.22 67.61 341.18 67.83 341.51C67.87 341.57 68.08 341.55 68.2 341.55C68.47 341.53 68.65 341.06 69.02 341.43C68.61 341.92 68.44 342.83 67.52 342.09C67.44 342.03 67.11 342.11 66.98 342.23C66.46 342.75 65.85 343.22 65.83 344.06C65.89 344.1 65.93 344.16 65.99 344.18C66.43 344.273 66.8133 344.63 67.14 345.25C67.16 345.31 67.2 345.37 67.24 345.42C67.98 345.94 69.16 345.69 69.49 344.93C69.68 344.5 69.74 344 69.9 343.57C70.09 343.03 70.48 342.95 70.81 343.34C71.55 344.18 71.53 344.25 70.67 345.03C70.38 345.3 70.11 345.63 69.78 345.87C68.96 346.53 68.01 347.09 67.84 348.32C67.8 348.65 67.43 348.98 66.97 349.02C65.63 347.91 65.63 347.89 64.46 348.73C64.3 348.85 64.15 349 63.92 348.89C63.49 348.68 62.89 348.68 62.7 348.21C62.41 347.36 61.57 347.28 61.05 346.79C60.51 346.27 60.84 345.35 60.33 344.75C60.02 344.4 59.73 344.01 59.4 343.66C58.66 342.86 57.92 342.05 57.15 341.27C56.76 340.88 56.39 340.45 55.91 340.2C55.33 339.89 54.94 339.44 54.59 338.94C53.56 337.48 52.14 336.38 50.92 335.09C49.99 334.82 49.54 334.04 49.06 333.3C48.19 331.98 46.67 331.28 45.89 329.88C45.11 329.8 44.86 329.08 44.36 328.64C43.25 327.65 42.36 326.35 41 325.69C39.97 325.2 39.58 324.27 39 323.44C38.9 323.3 38.84 322.99 38.92 322.88C39.35 322.26 38.94 321.83 38.59 321.44C37.66 320.35 36.76 319.21 35.68 318.27C34.96 317.63 34.3 316.95 33.76 316.17C33.29 315.49 32.73 314.89 32.15 314.32C30.48 312.69 28.81 311.1 27.16 309.46C26.79 309.09 26.4 308.92 25.88 308.99C25.57 309.03 25.36 308.87 25.2 308.64C24.91 308.21 24.29 308.04 23.59 308.17C23.32 308.21 23.05 308.23 22.79 308.27C22.58 308.31 22.42 308.41 22.36 308.64C22.28 308.97 22.13 309.3 22.13 309.63C22.15 310.06 22.71 309.94 22.87 310.17C23.2 310.62 23.61 310.91 24.09 311.18C24.4 311.34 24.44 311.72 24.4 312.07H24.42L24.44 312.09C24.54 312.07 24.67 312.05 24.77 312.05C24.98 312.07 25.02 312.17 24.89 312.32C24.87 312.36 24.75 312.36 24.7 312.32C24.6 312.26 24.51 312.18 24.43 312.09H24.37V312.05C23.79 311.95 23.28 311.68 22.84 311.29C22.78 311.23 22.72 311.17 22.65 311.1C22.51 310.96 22.28 310.91 22.13 311.06C22.07 311.12 22.05 311.31 22.09 311.41C22.15 311.6 22.28 311.76 22.34 311.95C22.4 312.16 22.44 312.3 22.42 312.4C22.42 312.52 22.34 312.61 22.17 312.67C22.03 312.73 21.82 312.77 21.55 312.83C21.55 312.89 21.57 312.95 21.57 313.02C21.59 313.08 21.61 313.16 21.63 313.23C21.65 313.29 21.69 313.35 21.73 313.39C21.77 313.43 21.83 313.47 21.89 313.51C22.89 313.92 22.92 313.93 23.14 314.84C22.49 314.74 21.86 314.57 21.31 314.27C21.19 314.21 21.08 314.15 20.98 314.06C20.75 313.92 20.57 313.73 20.38 313.5C20.13 313.21 19.8 313.19 19.51 313.05C18.89 312.76 18.38 312.35 18.25 311.61C17.92 311.61 17.53 311.51 17.28 311.65C16.39 312.17 15.71 311.77 15.01 311.32C14.68 311.11 14.41 310.8 14.06 310.5C14.18 310.48 14.33 310.48 14.45 310.46C14.82 310.42 15.17 310.36 15.48 310.13C15.44 310.11 15.41 310.09 15.37 310.07C14.84 309.79 14.56 309.56 14.52 309.39V309.31C14.6 308.77 15.22 308.3 15.88 308.28C16 308.28 16.15 308.34 16.27 308.36C17.05 308.46 17.07 308.46 17.28 307.54C17.36 307.15 17.65 307.02 17.92 306.82C18.56 306.35 19.44 306.8 20.04 306.16C19.94 305.5 19.81 304.82 19.71 304.16C19.63 303.69 19.87 303.44 20.33 303.27C20.89 303.06 20.95 302.78 20.62 302.43C20 301.79 19.36 301.17 18.74 300.53C17.32 299.05 15.36 298.22 14.04 296.59C13.63 296.07 12.78 296.14 12.33 296.47C11.67 296.96 10.7 297.36 10.87 298.51C10.91 298.86 10.81 299.13 10.38 299.25C10.01 299.35 9.67999 299.66 9.34999 299.91C9.26999 299.97 9.22999 300.16 9.26999 300.26C9.30999 300.36 9.42999 300.49 9.53999 300.51C9.72999 300.57 10.03 300.67 10.12 300.59C10.9 299.68 11.63 300.59 12.35 300.67C12.58 300.69 12.74 301.06 12.54 301.33C12.44 301.45 12.44 301.87 12.02 301.49C11.69 301.18 11.17 301.1 10.74 300.91C10.35 300.74 10.08 300.93 9.89999 301.24C9.77999 301.47 9.72999 301.9 9.56999 301.94C8.59999 302.25 8.11 303.16 7.3 303.65C6.58 304.1 5.95999 304.62 6.01999 305.57C6.05999 306.25 5.13 306.19 5.11 306.77C5.09 307.16 5.08999 307.45 4.56999 307.33C4.13999 307.23 3.74999 307.27 3.45999 307.64C3.27999 307.89 3.55999 308.44 4.03999 308.81C4.40999 309.1 4.82 309.37 5.2 309.65C5.34 309.77 5.49 309.98 5.53 310.17C5.57 310.33 5.48999 310.56 5.40999 310.73C5.36999 310.81 5.14 310.92 5.06 310.87C4.44 310.64 3.81999 310.4 3.20999 310.15C2.25999 309.76 2.15999 309.8 2.03999 310.73C1.82999 312.13 1.95999 312.3 3.39999 312.61C4.28999 312.8 4.6 313.19 4.84 314.36C4.78 314.38 4.69999 314.42 4.64999 314.4C4.02999 314.05 3.33 313.84 2.69 314.09C1.97 314.36 2.31999 315.16 2.14999 315.74C2.12999 315.8 2.07 315.86 2.05 315.93C1.93 316.2 1.32999 316.3 1.15999 316.03C0.969988 315.74 0.749991 315.45 0.709992 315.12C0.629992 314.56 0.31 314.17 2.01946e-07 313.77L0 316.08C0.06 316.1 0.119993 316.13 0.179993 316.15C1.04999 316.52 1.65999 317.1 1.98999 317.98C2.06999 318.23 2.19999 318.52 2.39999 318.64C3.09999 319.07 3.81999 319.44 4.53999 319.79C4.72999 319.87 4.90999 319.77 4.90999 319.5C4.88999 319.13 5.00999 318.8 5.37999 318.7C5.70999 318.62 6.1 318.58 6.37 318.7C6.99 318.99 7.57 319.36 8.12 319.77C8.78 320.24 8.79999 321.17 8.17999 321.73C7.82999 322.04 7.42 322.31 7.05 322.62C6.97 322.68 6.90999 322.87 6.92999 322.97C6.98999 323.38 8.36999 324.47 8.73999 324.31C9.22999 324.1 9.67 324.29 10.14 324.27C10.39 324.25 10.47 324.02 10.41 323.82C10.35 323.55 10.18 323.33 10.12 323.06C10.1 322.96 10.18 322.79 10.27 322.71C10.41 322.57 10.62 322.55 10.83 322.65C11.9 323.17 12.07 324.38 12.77 325.18C12.81 325.22 12.54 325.63 12.36 325.8C12.13 326.03 11.87 325.9 11.66 325.7C11.45 325.5 11.47 325.02 11 325.06C10.98 326.03 11.02 326.96 11.99 327.51C12.09 327.57 12.18 327.72 12.22 327.84C12.82 329.43 14.18 330.42 15.21 331.67C16.18 332.87 17.93 333.24 18.49 334.86C18.57 335.11 19.01 335.33 19.31 335.42C19.99 335.58 20.26 336.06 20.57 336.62C21.52 338.41 22.51 339.44 24.22 340.64C24.78 341.03 25.35 341.4 25.89 341.84C26.45 342.31 27.13 342.79 27.11 343.59C27.09 344.66 27.69 344.97 28.55 345.26C29.64 345.61 30.69 346.25 31.13 347.34C31.71 348.76 32.45 350.04 33.38 351.26C34.06 352.15 34.78 352.95 35.71 353.55C36.31 353.92 36.78 354.35 37.13 354.99C37.67 355.98 38.66 356.54 39.42 357.32C39.69 357.59 40.18 357.84 40.51 357.77C41.46 357.61 41.89 357.96 42.12 358.86C42.2 359.19 42.68 359.27 43.01 359.23C44.08 359.09 45.19 359.11 46.25 358.78C46.58 358.68 47.12 358.72 46.77 359.4C46.67 359.61 46.89 359.75 47.08 359.81C47.51 359.93 47.66 360.24 47.37 360.57C46.65 361.39 46.63 362.26 46.96 363.23C47.02 363.42 46.9 363.64 46.92 363.83C46.98 364.35 47.52 364.8 47.89 364.53C48.63 363.99 49.23 364.47 49.79 364.72C50.72 365.11 51.01 366.14 50.47 367.11C50.28 367.46 50.24 367.69 50.33 368.04C50.52 368.78 52.47 371.87 53.01 372.55C53.77 373.52 54.62 374.4 55.46 375.31C55.69 375.56 56 375.74 56.31 375.87C58.14 376.61 59.63 377.68 59.92 379.83C60.52 379.81 61.01 379.69 61.22 379.23C61.3 379.04 61.03 378.69 60.91 378.39C61.16 378.37 61.36 378.31 61.55 378.33C62.25 378.37 62.62 378.1 62.91 377.4C63.2 376.74 63.86 376.27 64.29 375.67C64.6 375.26 64.74 374.89 64.02 374.6C63.53 374.41 63.3 373.82 63.22 373.26C63.18 373.03 63.1 372.58 63.53 372.83C64.44 373.35 65.08 372.5 65.86 372.46C65.94 372.46 66.02 372.11 66.11 371.92C66.21 372.11 66.27 372.35 66.42 372.5C66.71 372.73 67.06 372.75 67.39 372.58C67.66 372.44 67.88 372.35 68.01 372.72C68.05 372.84 68.11 372.99 68.15 373.11C68.38 373.71 68.52 374.31 68.27 374.92C68 375.58 67.26 375.21 66.85 375.5C66.44 375.79 65.98 375.62 65.49 375.83C65.78 376.82 65.59 377.81 65.14 378.74C64.81 379.4 64.29 379.96 63.97 380.62C63.92 380.71 63.86 380.8 63.78 380.89H66.38C66.88 380.13 67.5 379.43 67.53 378.46C67.53 378.34 67.63 378.19 67.72 378.09L67.73 378.06ZM111.33 321.18C111.39 321.1 111.45 321.04 111.54 320.99C111.62 320.95 111.73 320.93 111.81 320.93C112.08 320.95 112.33 321.05 112.41 321.36C112.53 321.81 112.12 322.31 111.65 322.27C111.53 322.27 111.44 322.23 111.38 322.17C111.28 322.07 111.22 321.9 111.17 321.76C111.17 321.55 111.23 321.35 111.33 321.18ZM96.63 334.45C96.47 334.45 96.3 334.29 96.22 334.22C96.41 333.75 96.65 333.77 96.9 333.83C97 333.85 97.19 333.97 97.19 333.99C97.09 334.24 96.9 334.46 96.63 334.44V334.45ZM99.76 330.95C99.74 331.01 99.53 331.11 99.49 331.09C99.3 330.97 99.3 330.76 99.41 330.6C99.47 330.52 99.6 330.5 99.76 330.41C99.78 330.62 99.8 330.78 99.76 330.95ZM102.19 308.28V308.3L102.13 308.34L102.19 308.28ZM101.53 319.7C101.41 319.51 101.28 319.35 101.16 319.14C101.28 319.33 101.41 319.51 101.53 319.7ZM94.67 318.77C95.04 318.4 95.41 318.52 95.74 318.83C95.88 318.97 95.99 319.16 96.15 319.28C96.56 319.61 97.02 319.49 97.04 318.99C97.08 318.35 97.18 317.59 97.91 317.73C98.49 317.85 98.3 318.62 98.14 319.17C98.08 319.36 98.06 319.58 98.24 319.73C98.49 319.92 98.8 319.85 98.98 319.69C99.39 319.36 99.72 318.91 100.15 318.6C100.38 318.44 100.71 318.06 101.04 318.39C101.06 318.41 101.08 318.43 101.08 318.45C101.16 318.61 101.12 318.92 101.14 319.15C101.14 319.15 101.14 319.15 101.14 319.16C101.14 319.16 101.14 319.16 101.15 319.15C101.27 319.34 101.4 319.52 101.52 319.71C101.64 319.71 101.77 319.71 101.89 319.69C102.08 319.65 102.3 319.57 102.28 319.85C102.26 320.1 102.03 320.34 102.01 320.59C101.99 320.94 102.24 321.08 102.5 321.21C102.15 321.13 101.86 321.31 101.53 321.42C100.91 321.65 100.27 322 99.67 321.3C99.42 321.01 99.03 321.2 98.7 321.26C98.27 321.34 98.23 321.94 97.73 321.92C97.3 321.9 97.11 321.4 96.66 321.4C96.17 321.38 96.02 321.59 96.17 322.43H94.27C94.25 322.2 94.5 322.04 94.64 321.83C94.83 321.54 95.07 321.29 95.05 320.92C95.03 320.49 94.62 320.45 94.39 320.22C94.04 319.77 94.12 319.27 94.64 318.76L94.67 318.77ZM93.41 327.63C93.99 327.42 93.45 326.72 93.82 326.37C93.92 326.29 94.03 326.18 94.15 326.18C94.25 326.18 94.42 326.3 94.42 326.39C94.44 326.78 94.44 327.19 94.44 327.59C94.4 327.98 94.67 328.37 94.38 328.76C94.19 329.01 93.66 329.05 93.84 329.44C93.96 329.67 94.4 329.73 94.69 329.91C94.92 330.05 95.14 330.22 95.04 330.55C95.02 330.61 95 330.69 94.96 330.71C94.28 330.94 93.62 330.73 93.02 330.44C92.71 330.3 92.75 329.88 92.67 329.55C92.46 328.73 92.36 327.98 93.41 327.61V327.63ZM92.01 316.11C92.11 316.09 92.28 316.19 92.34 316.27C92.4 316.35 92.42 316.56 92.38 316.64C91.99 317.28 91.43 317.75 90.79 318.14C90.63 318.24 90.44 318.04 90.4 317.69C90.38 316.89 90.85 316.39 92.01 316.1V316.11ZM89.74 342.53C89.99 342.57 90.32 342.49 90.38 342.88C90.44 343.31 89.95 343.95 89.58 343.89C89.17 343.81 89.19 343.4 89.11 343.11C89.11 342.66 89.36 342.47 89.75 342.53H89.74ZM87.1 323.3C87.14 323.14 87.31 323.11 87.45 323.2C87.61 323.3 87.86 323.45 87.86 323.57C87.86 324.19 87.47 324.66 87.08 325.1C87.04 325.14 86.92 325.14 86.89 325.1C86.79 325.02 86.73 324.91 86.66 324.83C86.78 324.34 86.93 323.82 87.09 323.3H87.1ZM87.78 329.38C87.88 329.38 88.07 329.5 88.05 329.57C88.05 329.67 87.95 329.86 87.84 329.88C87.51 329.94 87.18 329.96 86.64 330C87.11 329.48 87.42 329.38 87.77 329.38H87.78ZM83.08 333.93C83.18 333.81 83.45 333.97 83.51 334.18C83.55 334.3 83.53 334.45 83.49 334.57C83.35 335.11 82.79 335.17 82.44 335.46C82.07 335.77 81.84 335.54 81.7 335.17C81.58 334.86 81.47 334.55 81.35 334.22C81.91 333.85 82.59 334.49 83.08 333.93ZM77.66 329.07C78.32 328.31 78.88 327.42 79.99 327.22C80.03 327.22 80.09 327.3 80.22 327.38C79.46 328.04 79.21 329.09 78.39 329.69C78.23 329.81 78.02 329.9 77.83 329.77C77.58 329.63 77.5 329.28 77.67 329.07H77.66ZM75.43 361.9C75.43 361.9 75.35 361.94 75.31 361.92C74.82 361.65 74.44 361.24 74.36 360.68C74.32 360.31 74.61 360.06 74.96 359.92C75.23 359.82 75.54 359.82 75.62 360.17C75.72 360.62 75.74 361.12 75.76 361.59C75.76 361.69 75.57 361.78 75.43 361.9ZM77.2 354.42C77.2 354.58 77.12 354.67 76.95 354.63C76.91 354.61 76.89 354.53 76.85 354.47C76.85 354.31 76.95 354.22 77.1 354.26C77.14 354.28 77.2 354.36 77.2 354.42ZM73.08 335.29C73.18 335.15 73.41 335.02 73.55 335.02C73.74 335.04 73.84 335.25 73.82 335.47C73.8 335.59 73.82 335.74 73.82 336.15C73.82 336.07 73.84 336.27 73.78 336.46C73.74 336.54 73.57 336.65 73.47 336.65C73.28 336.63 73.02 336.57 72.95 336.44C72.76 336.05 72.85 335.64 73.07 335.29H73.08ZM71.78 356.97C71.94 356.76 72.13 356.58 72.34 356.41C72.75 356.1 72.98 355.69 72.9 355.17C72.8 354.63 73.21 354.8 73.44 354.63C74.18 354.14 75.19 353.91 75.5 352.88C75.6 352.53 75.93 352.39 76.26 352.3V352.26H76.3C76.38 352.03 76.44 351.79 76.57 351.58C76.63 351.46 76.8 351.21 76.96 351.42C77.04 351.52 77 351.79 76.92 351.96C76.9 351.98 76.88 352.02 76.86 352.04C76.74 352.21 76.53 352.29 76.3 352.29L76.3 352.31H76.28C76.32 352.72 76.26 353.05 76.03 353.36C75.95 353.46 75.87 353.59 75.74 353.69C75.1 354.33 75.16 354.72 75.78 355.38C76.09 355.71 76.07 355.96 75.84 356.25C75.43 356.81 75.51 357.24 76.07 357.63C76.28 357.77 76.52 357.98 76.42 358.31C76.36 358.5 76.28 358.7 76.15 358.85C75.99 359.04 75.78 358.95 75.63 358.81C75.53 358.73 75.49 358.58 75.38 358.48C74.7 357.74 74.7 357.72 73.88 358.09C73.57 358.23 73.26 358.4 72.97 358.52C72.56 358.71 72.19 358.71 71.92 358.27C71.61 357.86 71.38 357.43 71.78 356.97ZM70.23 354.52C70.48 354 70.81 353.63 71.55 353.72C71.28 354.26 71.01 354.69 70.52 354.94C70.42 355 70.23 355.06 70.15 355.02C69.84 354.83 70.15 354.67 70.23 354.53V354.52ZM69.78 372.08C69.78 372.08 69.88 372 69.92 371.96C69.98 372.06 70.04 372.19 70.08 372.29C70.08 372.31 69.98 372.39 69.92 372.39C69.78 372.35 69.71 372.25 69.78 372.08ZM5.73999 316.46C5.34999 316.5 5.12 316.3 5.12 315.92C5.12 315.76 5.24 315.51 5.37 315.49C5.7 315.39 6.18999 315.86 6.14999 316.15C6.10999 316.38 5.91999 316.44 5.73999 316.46ZM6.42 307.29C6.42 307.29 6.3 307.33 6.26 307.31C6.22 307.29 6.19999 307.23 6.15999 307.19C6.19999 307.15 6.26 307.11 6.3 307.11C6.49 307.13 6.53 307.19 6.42 307.3V307.29ZM30.54 325.69C30.6 325.69 30.68 325.69 30.73 325.71C31.43 325.98 31.31 326.74 31.62 327.26C31.64 327.28 31.17 327.69 30.88 327.8C30.57 327.9 30.36 327.59 30.32 327.33C30.28 327.08 30.36 326.79 30.4 326.51C30.36 326.35 30.32 326.14 30.3 325.93C30.28 325.77 30.36 325.68 30.55 325.7L30.54 325.69ZM27.7 327.26C27.76 327.32 27.93 327.42 27.91 327.45C27.79 327.64 27.64 327.82 27.5 328.01C27.46 327.89 27.42 327.76 27.42 327.64C27.4 327.43 27.46 327.27 27.71 327.27L27.7 327.26ZM23.54 315.08C23.29 315.24 23.23 315.14 23.27 314.92L23.25 314.9V314.88H23.27L23.27 314.92C23.35 314.98 23.46 315.02 23.54 315.08ZM17.4 313.64C17.83 314.09 18.23 314.3 18.76 313.83C18.8 313.81 19.01 313.89 19.05 313.97C19.09 314.07 19.11 314.28 19.05 314.34C18.53 314.83 18.06 315.37 17.2 315.37C17.12 314.71 16.64 314.17 16.73 313.49C17.08 313.18 17.27 313.49 17.41 313.63L17.4 313.64ZM17.5 319.73C17.5 319.73 17.51 319.72 17.53 319.72C17.53 319.72 17.5233 319.733 17.51 319.76C17.59 319.82 17.68 319.88 17.76 319.95C17.7 319.97 17.64 319.99 17.59 319.99C17.47 320.01 17.45 319.91 17.51 319.74L17.5 319.73ZM17.65 317.59C17.65 317.59 17.59 317.55 17.55 317.51C17.55 317.51 17.5433 317.497 17.53 317.47C17.53 317.47 17.59 317.43 17.61 317.41C17.63 317.39 17.65 317.37 17.67 317.39C17.86 317.47 17.86 317.55 17.65 317.6V317.59ZM10.48 306.79C10.91 306.67 11.26 306.91 11.55 307.22C11.98 307.71 12.04 308.39 11.74 308.7C11.43 308.99 11 308.76 10.52 308.06C10.31 307.75 10 307.57 10.09 307.09C10.19 307.01 10.32 306.82 10.48 306.78V306.79ZM7.33 308.21C7.81 307.78 8.73 307.78 9.12 308.19C9.2 308.27 9.2 308.42 9.22 308.54C9.16 308.83 8.97 309.06 8.75 309.2C8.65 309.26 8.51999 309.32 8.39999 309.34C8.33999 309.36 8.28 309.36 8.22 309.36C7.77 309.38 7.37 309.09 7.23 308.56C7.23 308.46 7.27 308.27 7.33 308.21ZM7.98999 313.05C7.84999 313.09 7.56 312.97 7.47 312.84C7.32 312.61 7.54999 312.47 7.73999 312.39C8.12999 312.25 8.23 311.73 8.75 311.69C9.08 311.94 9.33 312.25 9.55 312.58C9.92 313.14 10.17 313.75 10.44 314.35H10.46C10.47 314.35 10.49 314.36 10.5 314.36V314.38C10.5 314.38 10.48 314.38 10.47 314.37C10.46 314.37 10.45 314.35 10.44 314.34C9.9 314.11 9.12 314.15 8.98 313.54C8.79 312.8 8.48999 312.92 7.98999 313.05ZM15.7 320.92C15.04 320.86 14.36 320.92 13.72 320.67C13.68 320.65 13.6 320.73 13.56 320.77C13.41 321.08 13.68 321.29 13.79 321.51C13.81 321.57 13.83 321.61 13.83 321.67C13.83 321.92 13.77 322.23 13.6 322.43C13.39 322.7 13.15 322.53 12.9 322.39C12.51 322.14 12.06 321.98 11.66 321.71C11.08 321.32 11 320.25 11.54 319.75C11.83 319.48 12.39 319.36 12.12 318.86C11.85 318.34 11.54 317.73 10.8 317.73C10.33 317.73 9.82999 317.81 9.39999 317.59C9.10999 317.43 8.77999 317.1 8.98999 316.79C9.29999 316.34 9.68999 315.97 9.70999 315.39C9.72999 314.84 10.47 314.89 10.53 314.4C11.16 314.49 11.59 314.17 11.98 313.8C12.13 313.68 12.25 313.55 12.39 313.43C12.64 313.22 12.43 312.94 12.39 312.67C12.27 311.85 12.78 311.29 13.5 311.56C14.18 311.83 14.86 312.18 15.25 312.86C15.33 313.02 15.43 313.29 15.37 313.42C15.08 313.89 15.25 314.33 15.37 314.78C15.41 314.9 15.35 315.07 15.29 315.21C15.27 315.25 15.25 315.31 15.25 315.35C15.21 315.33 15.17 315.31 15.13 315.31C15.09 315.29 15.05 315.29 15.01 315.27C14.93 315.25 14.85 315.21 14.76 315.15C14.55 314.99 14.39 314.68 14.08 314.84C13.71 315.03 13.5 315.42 13.48 315.83C13.46 315.99 13.64 316.28 13.79 316.3C14.61 316.42 15.34 316.69 15.97 317.25C16.05 317.31 16.24 317.29 16.36 317.27C16.69 317.25 16.61 316.55 17.02 316.8C17.35 316.99 17.1 317.44 17.18 317.75C17.32 318.4 17.69 319 17.49 319.71V319.69C17.41 319.73 17.32 319.77 17.26 319.81C17.24 319.83 17.2 319.83 17.18 319.85C16.58 320.04 16.64 321.02 15.7 320.92ZM18.54 328.75C18.33 328.89 17.71 328.61 17.49 328.28C16.93 327.48 17.04 327.04 17.94 326.51C18.17 326.37 18.37 326.18 18.62 326.12C18.87 326.02 19.01 326.24 18.97 326.45C18.93 326.72 18.8 326.97 18.7 327.25C18.68 327.41 18.66 327.62 18.66 327.83C18.68 328.16 18.91 328.49 18.54 328.76V328.75ZM22.19 333.49C22.27 332.93 21.92 332.58 21.55 332.29C21.01 331.88 20.5 331.47 19.92 331.12C19.4 330.81 19.14 330.4 19.1 329.8C19.1 329.53 18.94 329.18 19.22 329.04C19.57 328.83 19.88 329.1 20.07 329.37C20.52 329.97 20.94 330.46 21.86 330.46C22.48 330.46 22.81 331.37 23.51 331.53C23.63 331.57 23.74 331.86 23.53 332.05C23.01 332.52 23.1 332.98 23.55 333.45C23.76 333.68 24.09 333.88 23.9 334.36C23.51 334.28 23.12 334.22 22.75 334.15C22.38 334.09 22.13 333.92 22.19 333.49ZM24.33 339.05C24.29 339.13 24.21 339.21 24.17 339.3C23.84 339.28 23.63 339.09 23.47 338.85C23.45 338.81 23.43 338.79 23.41 338.75C23.33 338.61 23.35 338.4 23.33 338.21C23.33 338.17 23.41 338.07 23.45 338.07C23.74 338.07 24.3 338.63 24.34 339C24.36 339 24.34 339.02 24.34 339.06L24.33 339.05ZM25.2 335.9L25.08 336.02C24.94 335.92 24.77 335.79 24.61 335.67C24.75 335.59 24.86 335.48 24.94 335.51C25.15 335.53 25.27 335.7 25.21 335.9H25.2ZM27.06 331.76C27.14 332.56 27.22 333.35 27.29 334.13C27.31 334.13 27.31 334.15 27.33 334.15V334.16C27.33 334.16 27.34 334.17 27.34 334.19C27.53 334.21 27.71 334.23 27.88 334.31C28.07 334.37 28.21 334.5 28.27 334.74C28.31 334.86 28.35 335.03 28.29 335.11C28.13 335.3 27.92 335.23 27.8 335.05C27.64 334.78 27.49 334.47 27.35 334.21H27.31L27.31 334.17C26.01 333.53 25.15 332.5 24.59 331.24C24.47 330.95 24.34 330.64 24.24 330.33C24.12 329.98 24.05 329.65 23.64 329.65C22.53 329.65 22.09 328.93 21.81 328.04C21.67 327.59 21.46 327.17 21.29 326.76C21.64 326.37 21.97 326.72 22.26 326.64C22.67 326.52 22.9 326.64 22.96 327.07C23.15 328.49 24.36 329.3 25.06 330.41C25.22 330.7 25.58 330.84 25.97 330.7C26.16 330.62 26.36 330.62 26.57 330.58C27.04 330.5 27.52 330.33 27.97 330.35C28.42 330.37 28.53 331.09 29.27 331.09C28.45 331.34 27.81 331.54 27.06 331.75V331.76ZM28.85 341.14C28.87 341.06 29.01 341 29.12 340.91C29.18 340.99 29.28 341.07 29.33 341.18C29.35 341.24 29.35 341.28 29.35 341.3C29.37 341.38 29.37 341.45 29.39 341.55C29.27 341.51 29.15 341.49 29.04 341.43C28.96 341.37 28.85 341.22 28.85 341.14ZM32.23 344.46V344.44C30.99 343.88 30.21 342.87 29.55 341.78C29.51 341.72 29.49 341.66 29.45 341.62C29.43 341.62 29.41 341.6 29.39 341.6V341.58H29.43L29.45 341.62C30.21 341.85 30.79 342.36 31.37 342.88C31.58 343.04 31.76 343.23 31.97 343.37C32.28 343.62 32.3 344.05 32.24 344.46H32.26L32.34 344.5L32.24 344.46H32.23ZM36.85 340.69C37.3 340.96 37.59 341.66 37.41 342.03C37.39 342.07 37.31 342.11 37.24 342.11C36.85 342.09 36.48 341.47 36.54 340.83C36.56 340.67 36.7 340.6 36.85 340.69ZM38.5 352.44C38.36 352.46 38.23 352.46 38.09 352.48C37.57 352.4 37.02 352.36 36.59 351.99C36.32 351.8 35.64 352.09 35.83 351.39C35.95 350.92 36.32 351.06 36.65 351.1C36.77 351.12 36.92 351.06 37.04 351.02C37.39 350.9 37.37 350.13 37.91 350.4C38.3 350.61 38.71 350.92 38.88 351.39C38.9 351.45 38.92 351.51 38.96 351.58C39.19 352.03 39 352.4 38.51 352.45L38.5 352.44ZM41.22 339.68C40.99 339.58 40.64 339.58 40.7 339.21C40.72 339.13 40.89 339 40.99 338.98C41.3 338.92 41.51 339.06 41.59 339.37C41.63 339.55 41.67 339.73 41.71 339.9C41.55 339.82 41.38 339.76 41.22 339.68ZM44.46 341.84C44.11 342.42 43.88 342.46 43.35 342.13C42.55 341.59 41.97 340.91 41.78 339.95H41.74L41.74 339.92C41.74 339.92 41.75 339.93 41.76 339.93V339.95C42.36 339.93 42.96 339.87 43.35 340.32C43.43 340.42 43.51 340.57 43.6 340.73C43.64 340.85 43.95 340.87 44.12 340.98C44.7 341.31 44.74 341.41 44.47 341.85L44.46 341.84ZM46.81 339.72C47.37 339.76 47.59 340.09 47.76 340.48C47.84 340.67 47.82 340.89 47.62 341.02C47.35 341.16 47.1 341.14 46.92 340.9C46.63 340.51 46.9 340.12 46.82 339.73L46.81 339.72ZM45.51 339.7C45.51 339.7 45.53 339.66 45.53 339.62C45.55 339.54 45.74 339.43 45.78 339.46C46.03 339.56 46.25 339.73 46.17 340.04C46.17 340.04 46.17 340.06 46.15 340.06C46.11 340.12 45.96 340.16 45.88 340.2C45.63 340.12 45.49 339.95 45.51 339.71V339.7ZM47.32 353.84C47.22 354.03 46.97 353.94 46.78 353.88C46.72 353.86 46.66 353.82 46.62 353.78C46.56 353.68 46.43 353.53 46.48 353.45C46.48 353.43 46.5 353.41 46.52 353.39C46.58 353.35 46.71 353.31 46.79 353.27C46.83 353.27 46.89 353.27 46.93 353.29C46.93 353.29 46.9433 353.297 46.97 353.31C47.2 353.41 47.49 353.52 47.32 353.85V353.84ZM49.86 350.36C49.84 350.57 49.61 350.79 49.47 350.63C49.04 350.14 48.48 349.97 47.88 349.81C47.51 349.71 46.99 349.91 46.77 349.5C46.46 348.92 46.25 348.28 46.01 347.67C46.15 347.48 46.26 347.24 46.42 347.2C46.96 347.08 47.51 347.01 47.95 347.47C48.59 348.15 49.21 348.85 49.78 349.59C49.92 349.78 49.88 350.11 49.86 350.37V350.36ZM51.06 352.48C51.18 352.62 51.33 352.75 51.45 352.89C51.41 352.93 51.35 353.01 51.31 353.01C51.08 352.99 50.96 352.87 50.94 352.64C50.98 352.58 51.02 352.52 51.06 352.48ZM50.67 362.17C50.36 361.65 50.44 361.24 50.94 361.02C51.41 360.81 51.89 360.67 52.69 360.36C51.97 361.06 51.6 361.66 51.31 362.3C51.21 362.53 50.82 362.42 50.67 362.18V362.17ZM54.73 371.09C54.67 371.17 54.5 371.19 54.38 371.23C54.03 371.33 53.72 371.23 53.47 370.98C52.98 370.49 52.67 369.93 52.87 369.19C52.87 369.19 52.85 369.19 52.85 369.21C52.83 369.19 52.83 369.17 52.81 369.15C52.77 369.13 52.71 369.11 52.67 369.07C52.71 369.07 52.75 369.05 52.77 369.07C52.79 369.09 52.81 369.11 52.81 369.13C52.83 369.15 52.85 369.15 52.87 369.17V369.19C53.01 369.11 53.14 369.03 53.28 368.96C53.36 368.92 53.47 368.86 53.57 368.84C53.86 368.76 54.23 368.9 54.06 369.19C53.61 369.97 54.04 370.26 54.64 370.55C54.8 370.65 54.83 370.92 54.72 371.09H54.73ZM56.87 371.85C56.62 372.16 56.35 371.93 56.19 371.75C55.88 371.42 55.43 371.15 55.59 370.58C55.38 370.48 55.26 370.33 55.51 370.15H55.53C55.53 370.15 55.69 370.32 55.78 370.4C56.21 370.52 56.44 370.87 56.69 371.2C56.73 371.24 56.77 371.28 56.81 371.32C56.95 371.46 57 371.69 56.87 371.86V371.85ZM58.48 361.38C58.42 361.59 58.23 361.67 58.01 361.65C57.41 361.96 57 361.01 56.65 361.3C56.28 361.61 55.85 361.77 55.48 362.04C55.21 362.2 54.96 362.14 54.78 361.88C54.68 361.71 54.57 361.51 54.76 361.34C55.3 360.85 55.17 360.29 54.72 359.92C53.83 359.2 53.57 358.13 52.99 357.24C52.62 356.66 52.58 356.25 53.2 355.86C53.28 355.82 53.2 355.49 53.16 355.3C53.12 355.14 53.14 355.05 53.3 355.03C53.34 355.03 53.44 355.11 53.44 355.15C53.63 356.35 54.8 356.78 55.36 357.68C55.94 358.59 56.74 359.35 57.4 360.19C57.65 360.5 57.98 360.5 58.29 360.64C58.58 360.76 58.56 361.09 58.5 361.36L58.48 361.38Z" fill="#D5703B"/>
<path d="M110.15 304.17C111.16 303.49 111.88 303.76 112.4 304.71C112.46 304.83 112.59 304.92 112.67 305.02C112.94 305.27 113.25 305.37 113.58 305.12C113.95 304.83 114.18 304.3 113.95 304.07C113.13 303.23 112.61 302.01 111.31 301.66C111.23 301.64 111.17 301.6 111.1 301.54C111.26 302.47 110.83 303.31 110.15 304.18V304.17Z" fill="#D5703B"/>
<path d="M111.08 301.51L111.1 301.53C111.06 301.28 110.98 301.04 110.85 300.77L110.83 300.79C110.93 301.02 110.93 301.33 111.08 301.51Z" fill="#D5703B"/>
<path d="M116.61 318.91C116.61 318.91 116.62 318.91 116.63 318.91C116.63 318.91 116.62 318.91 116.61 318.91Z" fill="#D5703B"/>
<path d="M117.47 316.64C117.33 316.52 117.26 316.29 117.14 316.12C116.83 315.73 116.65 315.73 116.44 316.1C116.28 316.41 116.03 316.86 116.25 317.05C116.89 317.6 116.42 318.3 116.62 318.9C116.87 318.86 117.09 318.8 117.3 318.67C117.34 318.63 117.42 318.59 117.49 318.53C118.73 317.44 119.59 316.08 120.52 314.74C120.68 314.51 120.5 314.37 120.38 314.22C120.15 314.01 119.91 313.97 119.66 314.18C119.62 314.22 119.56 314.28 119.56 314.34C119.46 315.31 118.47 315.7 118.18 316.57C118.08 316.84 117.71 316.82 117.48 316.63L117.47 316.64Z" fill="#D5703B"/>
<path d="M116.59 318.91H116.57L116.59 318.93L116.61 318.95C116.61 318.95 116.61 318.93 116.6 318.93C116.59 318.93 116.6 318.92 116.59 318.91Z" fill="#D5703B"/>
<path d="M117.43 312.73H117.41L117.43 312.75V312.73Z" fill="#D5703B"/>
<path d="M114.36 310.75C114.71 311.06 115.12 311.33 115.43 311.68C115.99 312.3 116.01 312.36 116.58 311.87C116.91 311.6 117.1 311.79 117.22 311.97C117.26 312.05 117.3 312.13 117.32 312.24C117.34 312.32 117.34 312.4 117.36 312.49C117.36 312.57 117.38 312.65 117.4 312.72C117.89 312.82 118.1 312.53 118.2 312.1C118.28 311.75 118.28 311.32 117.95 311.19C116.84 310.84 115.83 310.18 114.67 309.95C114.53 309.93 114.28 310.07 114.18 310.22C114.04 310.43 114.2 310.63 114.34 310.76L114.36 310.75Z" fill="#D5703B"/>
<path d="M110.86 300.77H110.82L110.84 300.79L110.86 300.77Z" fill="#D5703B"/>
<path d="M110.81 300.77C110.4 299.92 109.66 299.33 109.04 298.65C108.83 298.42 108.63 298.18 108.46 297.91C108.44 297.87 108.19 297.91 108.11 297.97C108.03 298.03 107.97 298.24 108.01 298.3C108.71 299.39 109.25 300.67 110.81 300.77Z" fill="#D5703B"/>
<path d="M18.86 310.46C18.39 310.3 18.3 310.4 18.3 311.12V311.49C19.29 311.41 20.11 311.8 20.86 312.44C21.07 312.63 21.29 312.71 21.56 312.73C21.6 311.78 21.6 311.41 21.25 311.23C21.09 311.15 20.88 311.11 20.55 311.04C19.93 310.94 19.42 310.67 18.86 310.46Z" fill="#D5703B"/>
<path d="M116.42 308.36C116.81 307.64 116.07 307.33 115.84 306.81C115.72 306.52 115.47 306.27 115.06 306.15C114.75 306.4 114.67 306.79 114.63 307.18C114.61 307.3 114.65 307.51 114.73 307.55C115.29 307.84 115.72 308.35 116.42 308.35V308.36Z" fill="#D5703B"/>
<path d="M51.22 90.06C51.32 90 51.49 89.89 51.49 89.81C51.53 89.01 51.33 88.24 51.1 87.26C50.4 88.23 50.42 89.07 50.71 89.92C50.77 90.09 51.02 90.17 51.23 90.07L51.22 90.06Z" fill="#D5703B"/>
<path d="M51.26 316.04C51.3 315.71 51.42 315.4 51.47 315.07C51.51 314.88 51.06 314.51 50.93 314.6C50.79 314.7 50.6 314.87 50.58 315.03C50.52 315.75 50.46 316.47 51.16 317.54C51.2 316.8 51.22 316.41 51.26 316.04Z" fill="#D5703B"/>
<path d="M51.2 24.09C51.63 24.09 51.86 23.47 51.59 22.96C51.51 22.81 51.28 22.65 51.14 22.67C51 22.67 50.77 22.86 50.71 23.02C50.48 23.51 50.77 24.09 51.2 24.09Z" fill="#D5703B"/>
<path d="M107.17 311.18C107.5 311.08 108.06 311.45 108.16 310.85C108.22 310.48 107.73 310.4 107.46 310.19C107.3 310.07 107.13 309.96 106.94 309.88C106.53 309.72 106.32 309.96 106.2 310.31C106.14 310.5 106.12 310.7 106.1 310.91C106.26 311.05 106.43 311.22 106.62 311.36C106.78 311.3 106.99 311.24 107.18 311.17L107.17 311.18Z" fill="#D5703B"/>
<path d="M118.4 310.46C118.52 310.69 118.73 310.67 118.94 310.63C119.06 310.61 119.23 310.55 119.29 310.46C119.39 310.27 119.31 310.07 119.15 309.94C119.05 309.86 118.9 309.82 118.8 309.75C118.76 309.73 118.72 309.71 118.68 309.71C118.64 309.71 118.62 309.69 118.58 309.69H118.5C118.36 309.73 118.29 309.85 118.31 310.08C118.33 310.18 118.33 310.29 118.37 310.37C118.37 310.41 118.39 310.43 118.41 310.45L118.4 310.46Z" fill="#D5703B"/>
<path d="M53.82 318.39C54.15 318.25 54.25 317.92 54.34 317.61C54.42 317.32 54.18 317.28 54.01 317.26C53.68 317.2 53.35 317.24 53.27 317.61C53.27 317.94 53.66 318.46 53.83 318.39H53.82Z" fill="#D5703B"/>
<path d="M0.94999 309.2C1.02999 309.18 1.15999 308.99 1.13999 308.89C1.09999 308.72 0.969993 308.44 0.889993 308.44C0.679993 308.44 0.619993 308.67 0.639993 308.87C0.639993 309.06 0.71999 309.24 0.94999 309.2Z" fill="#D5703B"/>
<path d="M104.45 307.94C104.53 307.92 104.68 307.73 104.66 307.65C104.62 307.49 104.54 307.26 104.27 307.34C104.06 307.4 103.96 307.5 103.96 307.42C104.04 307.98 104.27 307.96 104.45 307.94Z" fill="#D5703B"/>
<path d="M54.44 40.31C54.36 40.23 54.21 40.14 54.17 40.1C54.21 40.14 54.36 40.24 54.44 40.31Z" fill="#D5703B"/>
<path d="M54.64 40.31C54.64 40.31 54.68 40.27 54.7 40.25C54.72 40.23 54.72 40.19 54.72 40.15C54.72 40.03 54.68 39.84 54.62 39.82C54.41 39.78 54.23 39.88 54.19 40.09V40.11C54.19 40.11 54.35 40.23 54.44 40.32C54.52 40.34 54.58 40.36 54.65 40.32L54.64 40.31Z" fill="#D5703B"/>
<path d="M52.01 317.86C52.01 317.86 51.91 317.76 51.87 317.72C51.81 317.8 51.77 317.88 51.73 317.95C51.77 317.97 51.83 317.99 51.87 318.01C51.91 317.97 51.97 317.91 52.01 317.87V317.86Z" fill="#D5703B"/>
<path d="M52.6 317.59C52.79 317.55 52.79 317.49 52.62 317.4C52.58 317.4 52.52 317.46 52.48 317.48C52.52 317.52 52.56 317.58 52.6 317.58V317.59Z" fill="#D5703B"/>
<path d="M55.1 318.81C55.29 318.77 55.29 318.69 55.12 318.6C55.08 318.6 55.02 318.66 54.98 318.7C55.02 318.74 55.06 318.82 55.1 318.8V318.81Z" fill="#D5703B"/>
<path d="M117.27 312.91C117.39 312.93 117.41 312.87 117.39 312.74C117.35 312.76 117.31 312.76 117.27 312.78C117.25 312.82 117.27 312.9 117.27 312.9V312.91Z" fill="#D5703B"/>
<path d="M117.39 312.77H117.41C117.41 312.77 117.41 312.75 117.39 312.73V312.77Z" fill="#D5703B"/>
<path d="M64.19 347.76C64.19 347.76 64.25 347.72 64.27 347.7C64.29 347.68 64.31 347.66 64.31 347.64C64.29 347.58 64.27 347.52 64.23 347.45C64.23 347.43 64.21 347.41 64.21 347.39C64.17 347.41 64.15 347.43 64.13 347.45C64.11 347.47 64.09 347.49 64.09 347.51C64.09 347.53 64.09 347.55 64.11 347.57C64.13 347.63 64.17 347.69 64.19 347.76Z" fill="#D5703B"/>
<path d="M46.34 361.1C46.34 361.1 46.38 361.2 46.4 361.24C46.42 361.28 46.44 361.32 46.48 361.38C46.5 361.36 46.54 361.34 46.56 361.3C46.58 361.28 46.6 361.26 46.6 361.24C46.58 361.14 46.52 361.05 46.48 360.97C46.42 361.01 46.32 361.07 46.34 361.09V361.1Z" fill="#D5703B"/>
<path d="M64.19 377.13C64.19 377.13 64.11 377.19 64.07 377.23C64.11 377.27 64.15 377.31 64.17 377.35C64.33 377.29 64.33 377.21 64.19 377.12V377.13Z" fill="#D5703B"/>
<path d="M56.48 268.15C56.54 268.5 56.64 268.97 56.75 269.43C56.75 269.45 57.02 269.45 57.06 269.39C57.45 268.94 57.53 268.42 57.2 267.89C57.14 267.79 56.99 267.72 56.85 267.68C56.58 267.62 56.54 267.84 56.48 268.15Z" fill="#D5703B"/>
<path d="M56.29 267.1C56.45 267.06 56.74 266.91 56.74 266.83C56.74 266.38 56.39 266.09 56.04 266C55.63 265.9 55.81 266.35 55.71 266.54C55.71 266.91 55.83 267.2 56.29 267.1Z" fill="#D5703B"/>
<path d="M59.53 275.67C59.53 275.59 59.37 275.49 59.26 275.4C59.26 275.4 59.14 275.48 59.12 275.52C58.91 276.1 58.65 276.65 59.22 277.19C59.71 276.76 59.49 276.18 59.53 275.66V275.67Z" fill="#D5703B"/>
<path d="M58.02 268.87C58.02 268.87 58.18 268.7 58.25 268.6C58.27 268.56 58.29 268.52 58.29 268.5V268.42C58.27 268.36 58.21 268.34 58.13 268.32C58.03 268.36 57.88 268.36 57.82 268.42L57.8 268.44C57.74 268.61 57.84 268.81 58.03 268.87H58.02Z" fill="#D5703B"/>
<path d="M59.63 92.08C59.88 91.79 60.15 91.5 60.35 91.17C60.49 90.92 60.12 90.47 59.83 90.53C59.77 90.53 59.67 90.51 59.64 90.55C59.31 90.98 59.17 91.46 59.33 91.99C59.39 92.18 59.52 92.2 59.62 92.07L59.63 92.08Z" fill="#D5703B"/>
<path d="M61.55 218.23C61.76 218.42 61.86 218.17 61.94 218C61.86 217.9 61.75 217.82 61.65 217.73C61.49 217.88 61.38 218.08 61.55 218.22V218.23Z" fill="#D5703B"/>
<path d="M54.25 170.52C53.97 170.7 54.12 170.92 54.28 171.11C54.28 171.11 54.28 171.11 54.28 171.12C54.4 170.98 54.55 170.85 54.67 170.71C54.67 170.71 54.67 170.71 54.67 170.7C54.57 170.56 54.39 170.42 54.25 170.52Z" fill="#D5703B"/>
<path d="M67.63 226.27C67.61 226.35 67.77 226.46 67.86 226.56C67.96 226.4 68.07 226.25 68.15 226.11C68.03 225.99 67.94 225.88 67.86 225.8C67.8 225.94 67.67 226.09 67.63 226.27Z" fill="#D5703B"/>
<path d="M15.44 318.39C15.44 318.39 15.36 318.35 15.34 318.35H15.26C15.2 318.37 15.18 318.43 15.16 318.54C15.2 318.64 15.22 318.79 15.28 318.87C15.4 318.99 15.77 318.79 15.73 318.64C15.69 318.54 15.54 318.45 15.44 318.39Z" fill="#D5703B"/>
<path d="M15.25 318.35H15.33C15.33 318.35 15.27 318.35 15.25 318.35Z" fill="#D5703B"/>
<path d="M99.91 320.99C100.05 320.97 100.28 320.87 100.26 320.62C100.36 320.31 100.05 320.25 99.95 320.27C99.81 320.29 99.6 320.35 99.6 320.62C99.58 320.91 99.81 321.01 99.91 320.99Z" fill="#D5703B"/>
<path d="M101.04 319.82C101.18 319.96 101.39 319.88 101.53 319.72C101.41 319.53 101.28 319.35 101.16 319.16C101.16 319.16 101.16 319.16 101.15 319.17C100.95 319.35 100.8 319.57 101.04 319.82Z" fill="#D5703B"/>
<path d="M101.17 319.14C101.29 319.35 101.42 319.51 101.54 319.7C101.42 319.51 101.29 319.33 101.17 319.14Z" fill="#D5703B"/>
<path d="M73.73 357.22C74.04 357.24 74.25 357.12 74.29 356.79C74.35 356.32 74.1 355.97 73.69 355.9C73.4 355.86 73.11 356.21 73.11 356.58C73.09 356.93 73.36 357.2 73.73 357.22Z" fill="#D5703B"/>
</svg>
