<svg width="100" height="59" viewBox="0 0 100 59" fill="none" xmlns="http://www.w3.org/2000/svg">
<path fill-rule="evenodd" clip-rule="evenodd" d="M1.72186 6.2152H19.8675H78.1016H96.2031H96.2914V1.68699H1.72186V6.2152ZM78.9404 7.85779V34.3168C78.9404 34.7607 78.5872 35.1603 78.1016 35.1603H19.8675C19.426 35.1603 19.0287 34.8051 19.0287 34.3168V7.85779H0.838849C0.397348 7.85779 0 7.50264 0 7.01431V0.843489C0 0.399546 0.353198 0 0.838849 0H97.0861C97.5276 0 97.925 0.355152 97.925 0.843489V7.01431C97.925 7.45825 97.5718 7.85779 97.0861 7.85779H96.9978V34.0948C97.7042 34.2724 98.3664 34.6275 98.8962 35.1159C99.6027 35.8262 100 36.7585 100 37.8239C100 38.8894 99.5585 39.8661 98.8962 40.532C98.3664 41.0203 97.7484 41.4199 96.9978 41.5531V42.4853C97.7042 42.6629 98.3664 43.0181 98.8962 43.5064C99.6027 44.2167 100 45.149 100 46.2145V56.1144C100 56.9135 99.691 57.6682 99.1612 58.1565C98.6313 58.6892 97.9249 59 97.1302 59H95.2759C94.4812 59 93.7307 58.6892 93.245 58.1565C92.7152 57.6238 92.4062 56.9135 92.4062 56.1144V46.2145C92.4062 45.149 92.8477 44.1723 93.5099 43.5064C93.9956 43.0181 94.6578 42.6185 95.3642 42.4853V41.5531C94.6578 41.3755 93.9956 41.0203 93.4658 40.532C92.7594 39.8217 92.362 38.8894 92.362 37.8239C92.362 36.7585 92.8035 35.7818 93.4658 35.1159C93.9514 34.6275 94.6137 34.228 95.3642 34.0948V7.85779H78.9404ZM20.7064 7.85779V33.4733H77.2627V7.85779H20.7064ZM97.7484 36.3589C97.351 35.9594 96.8212 35.7374 96.2031 35.7374C95.585 35.7374 95.0552 36.0038 94.6579 36.3589C94.2605 36.7585 94.0397 37.2912 94.0397 37.9127C94.0397 38.5342 94.3046 39.067 94.6579 39.4665C95.0552 39.8661 95.585 40.088 96.2031 40.088C96.8212 40.088 97.351 39.8217 97.7484 39.4665C98.1457 39.067 98.3665 38.5342 98.3665 37.9127C98.3665 37.2912 98.1457 36.7141 97.7484 36.3589ZM94.0397 46.3476V56.2476C94.0397 56.6027 94.1722 56.9135 94.3929 57.1354C94.6137 57.3574 94.9227 57.4906 95.2759 57.4906H97.1302C97.4834 57.4906 97.7925 57.3574 98.0132 57.1354C98.234 56.9135 98.3665 56.6027 98.3665 56.2476V46.3476C98.3665 45.7261 98.1457 45.1934 97.7484 44.7938C97.351 44.3943 96.8212 44.1723 96.2031 44.1723C95.585 44.1723 95.0552 44.4387 94.6579 44.7938C94.2605 45.1934 94.0397 45.7261 94.0397 46.3476Z" fill="#D56F3B"/>
</svg>
