<svg width="68" height="63" viewBox="0 0 68 63" fill="none" xmlns="http://www.w3.org/2000/svg">
<path fill-rule="evenodd" clip-rule="evenodd" d="M37.7182 14.9571C39.6611 15.558 41.403 16.6264 42.8098 18.0286C45.0877 20.2989 46.4611 23.4038 46.4611 26.8426C46.4611 27.2432 46.1261 27.5771 45.7241 27.5771H22.2089C21.8069 27.5771 21.4719 27.2432 21.4719 26.8426C21.4719 23.4038 22.8788 20.2989 25.1232 18.0286C26.5301 16.6264 28.2719 15.558 30.2148 14.9571C29.5113 14.5898 28.8749 14.1224 28.3054 13.5549C26.865 12.1192 25.9606 10.1161 25.9606 7.94594C25.9606 5.74244 26.865 3.77265 28.3054 2.33704C29.7458 0.901431 31.7557 0 33.933 0C36.1438 0 38.1202 0.901431 39.5606 2.33704C41.001 3.77265 41.9054 5.77583 41.9054 7.94594C41.9054 10.1161 41.001 12.1192 39.5606 13.5549C39.0581 14.1224 38.4217 14.5898 37.7182 14.9571ZM33.2296 29.8474C33.2296 29.4467 33.5645 29.0795 33.9665 29.0795C34.3685 29.0795 34.7369 29.4134 34.7369 29.8474V34.8887C36.2108 35.0556 37.5507 35.7234 38.5557 36.725C39.7281 37.8935 40.4315 39.496 40.4315 41.2655C40.4315 42.601 40.0296 43.8696 39.2926 44.9046L43.3793 49.0111C43.6808 49.3116 43.6808 49.779 43.3793 50.0795C43.0778 50.38 42.6089 50.38 42.3074 50.0795L38.3212 46.0731C37.1823 47.1081 35.6749 47.7424 34 47.7424C32.3921 47.7424 30.9182 47.1415 29.8128 46.1733L25.8601 50.0795C25.5586 50.38 25.0897 50.38 24.7882 50.0795C24.4867 49.779 24.4867 49.3116 24.7882 49.0111L28.7409 45.0715C27.9704 44.0032 27.5015 42.7011 27.5015 41.2989C27.5015 39.5294 28.2049 37.9269 29.3773 36.7583C30.3823 35.7568 31.7222 35.089 33.1961 34.9221V29.8474H33.2296ZM30.2818 44.5707C30.3153 44.6041 30.3153 44.6041 30.3488 44.6375C30.3823 44.6709 30.4158 44.7377 30.4828 44.7711C31.3872 45.6725 32.6266 46.2067 33.9665 46.2067C35.3399 46.2067 36.5793 45.6391 37.4502 44.7711C38.3547 43.8696 38.8906 42.6343 38.8906 41.2655C38.8906 39.8967 38.3212 38.6614 37.4502 37.7599C36.5458 36.8585 35.3064 36.3243 33.9665 36.3243C32.5931 36.3243 31.3537 36.8919 30.4828 37.7599C29.5783 38.6614 29.0424 39.8967 29.0424 41.2321C29.0424 42.5676 29.5113 43.7027 30.2818 44.5707ZM12.4946 35.3895C10.2837 35.3895 8.30739 36.2909 6.86699 37.7265C5.4266 39.1622 4.52217 41.1653 4.52217 43.3354C4.52217 45.5389 5.4266 47.5087 6.86699 48.9777C7.43645 49.5453 8.07291 50.0127 8.74286 50.38C6.8 50.9809 5.05813 52.0493 3.65123 53.4515C1.3734 55.7218 0 58.8267 0 62.2655C0 62.6661 0.334974 63 0.736945 63H24.2522C24.6542 63 24.9892 62.6661 24.9892 62.2655C24.9892 58.8267 23.5823 55.7218 21.3379 53.4515C19.931 52.0493 18.1892 50.9809 16.2463 50.38C16.9498 50.0127 17.5862 49.5453 18.1222 48.9777C19.5626 47.5421 20.467 45.5389 20.467 43.3688C20.467 41.1987 19.5626 39.1955 18.1222 37.7599C16.6818 36.2909 14.7054 35.3895 12.4946 35.3895ZM17.0837 38.7615C18.2562 39.93 18.9931 41.5326 18.9931 43.3354C18.9931 45.1049 18.2562 46.7409 17.0837 47.9094C15.9113 49.0779 14.3034 49.8124 12.5281 49.8124C10.7527 49.8124 9.11133 49.0779 7.93891 47.9094C6.7665 46.7409 6.02956 45.1383 6.02956 43.3354C6.02956 41.566 6.7665 39.93 7.93891 38.7615C9.11133 37.593 10.7192 36.8585 12.5281 36.8585C14.3034 36.8919 15.9113 37.6264 17.0837 38.7615ZM20.2995 54.4865C22.1084 56.2893 23.3143 58.7599 23.4818 61.4976H1.54089C1.74187 58.7599 2.91429 56.3227 4.72315 54.4865C6.69951 52.5167 9.4798 51.2814 12.4946 51.2814C15.5429 51.2814 18.2896 52.5167 20.2995 54.4865ZM55.4719 35.3895C53.2611 35.3895 51.2847 36.2909 49.8443 37.7265C48.4039 39.1622 47.4995 41.1653 47.4995 43.3354C47.4995 45.5389 48.4039 47.5087 49.8443 48.9777C50.4138 49.5453 51.0502 50.0127 51.7537 50.38C49.8108 50.9809 48.069 52.0493 46.6621 53.4515C44.3842 55.7218 43.0108 58.8267 43.0108 62.2655C43.0108 62.6661 43.3458 63 43.7478 63H67.263C67.665 63 68 62.6661 68 62.2655C68 58.8267 66.5931 55.7218 64.3488 53.4515C62.9419 52.0493 61.2 50.9809 59.2571 50.38C59.9606 50.0127 60.597 49.5453 61.133 48.9777C62.5734 47.5421 63.4778 45.5389 63.4778 43.3688C63.4778 41.1987 62.5734 39.1955 61.133 37.7599C59.6591 36.2909 57.6493 35.3895 55.4719 35.3895ZM60.0276 38.7615C61.2 39.93 61.9369 41.5326 61.9369 43.3354C61.9369 45.1049 61.2 46.7409 60.0611 47.9094C58.8887 49.0779 57.2808 49.8124 55.5054 49.8124C53.73 49.8124 52.0887 49.0779 50.9163 47.9094C49.7438 46.7409 49.0404 45.1383 49.0404 43.3354C49.0404 41.566 49.7773 39.93 50.9163 38.7615C52.0887 37.593 53.6965 36.8585 55.5054 36.8585C57.2473 36.8919 58.8552 37.6264 60.0276 38.7615ZM63.2433 54.4865C65.0522 56.2893 66.2581 58.7599 66.4256 61.4976H44.4847C44.6522 58.7599 45.8581 56.3227 47.667 54.4865C49.6433 52.5167 52.3901 51.2814 55.4384 51.2814C58.4867 51.2814 61.267 52.5167 63.2433 54.4865ZM33.9665 14.3895C35.7419 14.3895 37.3832 13.655 38.5557 12.4865C39.7281 11.318 40.4315 9.71542 40.4315 7.91256C40.4315 6.14309 39.6946 4.50715 38.5557 3.33863C37.3832 2.17011 35.7754 1.43561 33.9665 1.43561C32.1911 1.43561 30.5497 2.17011 29.3773 3.33863C28.2049 4.50715 27.468 6.1097 27.468 7.91256C27.468 9.71542 28.2049 11.318 29.3773 12.4865C30.5832 13.6884 32.1911 14.3895 33.9665 14.3895ZM41.7714 19.097C39.7616 17.1272 37.0148 15.8919 34 15.8919C30.9517 15.8919 28.2049 17.1272 26.2286 19.097C24.4197 20.9332 23.2138 23.3704 23.0463 26.1081H44.9872C44.7862 23.3704 43.5803 20.9332 41.7714 19.097Z" fill="#D56F3B"/>
</svg>
