<svg width="73" height="68" viewBox="0 0 73 68" fill="none" xmlns="http://www.w3.org/2000/svg">
<path fill-rule="evenodd" clip-rule="evenodd" d="M45.7978 59.432H4.54857C3.29994 59.432 2.1405 58.9333 1.33781 58.072C0.535125 57.2107 0 56.0773 0 54.808V4.624C0 3.35467 0.490531 2.176 1.33781 1.36C2.18509 0.544 3.29994 0 4.54857 0H68.4514C69.7001 0 70.8595 0.498667 71.6622 1.36C72.4649 2.176 73 3.35467 73 4.624V54.808C73 56.0773 72.5095 57.256 71.6622 58.072C70.8149 58.9333 69.7001 59.432 68.4514 59.432H66.088V65.3253C66.088 66.0507 65.7758 66.7307 65.3299 67.2293C64.8393 67.728 64.1704 68 63.4569 68H48.4734C47.7599 68 47.091 67.6827 46.6005 67.2293C46.11 66.7307 45.8424 66.0507 45.8424 65.3253V59.432H45.7978ZM7.1796 10.4267C6.77825 10.4267 6.42151 10.7893 6.42151 11.1973V42.976C6.42151 43.384 6.77825 43.7467 7.1796 43.7467H38.4398C38.8412 43.7467 39.1979 43.384 39.1979 42.976V11.1973C39.1979 10.7893 38.8412 10.4267 38.4398 10.4267H7.1796ZM37.7263 11.968H7.9823V42.2053H37.7263V11.968ZM49.945 47.464V51.0453C49.945 51.4533 50.3018 51.816 50.7031 51.816C51.1045 51.816 51.4612 51.4533 51.4612 51.0453V47.464C51.4612 47.056 51.1045 46.6933 50.7031 46.6933C50.3018 46.6933 49.945 47.056 49.945 47.464ZM49.945 53.5387V57.12C49.945 57.528 50.3018 57.8907 50.7031 57.8907C51.1045 57.8907 51.4612 57.528 51.4612 57.12V53.5387C51.4612 53.1307 51.1045 52.768 50.7031 52.768C50.3018 52.768 49.945 53.0853 49.945 53.5387ZM49.945 60.2933V63.8747C49.945 64.2827 50.3018 64.6453 50.7031 64.6453C51.1045 64.6453 51.4612 64.2827 51.4612 63.8747V60.2933C51.4612 59.8853 51.1045 59.5227 50.7031 59.5227C50.3018 59.5227 49.945 59.84 49.945 60.2933ZM16.901 52.2693C16.4997 52.2693 16.1429 51.9067 16.1429 51.4987C16.1429 51.0907 16.4997 50.728 16.901 50.728H45.7532V38.6693C45.7532 37.944 46.0208 37.3093 46.4667 36.8107L46.5113 36.7653C47.0018 36.2667 47.6707 35.9493 48.3842 35.9493H63.4123C64.1258 35.9493 64.7948 36.2667 65.2853 36.7653C65.7758 37.264 66.0434 37.944 66.0434 38.6693V57.8453H68.4068C69.2541 57.8453 70.0122 57.4827 70.5473 56.9387C71.0825 56.3947 71.4392 55.624 71.4392 54.7627V4.624C71.4392 3.76267 71.0825 2.992 70.5473 2.448C70.0122 1.904 69.2541 1.54134 68.4068 1.54134H4.54857C3.70129 1.54134 2.9432 1.904 2.40807 2.448C1.87295 2.992 1.5162 3.76267 1.5162 4.624V54.808C1.5162 55.6693 1.87295 56.44 2.40807 56.984C2.9432 57.528 3.70129 57.8907 4.54857 57.8907H45.7532V52.2693H16.901ZM61.4056 63.0587V58.616H59.8448V63.0587H61.4056ZM62.9218 57.8907C62.9218 57.4827 62.5651 57.12 62.1637 57.12H59.0867C58.6854 57.12 58.3287 57.4827 58.3287 57.8907V63.8747C58.3287 64.2827 58.6854 64.6453 59.0867 64.6453H62.1637C62.5651 64.6453 62.9218 64.2827 62.9218 63.8747V57.8907ZM58.3733 44.2907V41.48H56.2327V44.2907H58.3733ZM59.8894 40.7093C59.8894 40.3013 59.5327 39.9387 59.1313 39.9387H55.4747C55.0733 39.9387 54.7166 40.3013 54.7166 40.7093V45.0613C54.7166 45.4693 55.0733 45.832 55.4747 45.832H59.1313C59.5327 45.832 59.8894 45.4693 59.8894 45.0613V40.7093ZM49.945 40.7093V44.2907C49.945 44.6987 50.3018 45.0613 50.7031 45.0613C51.1045 45.0613 51.4612 44.6987 51.4612 44.2907V40.7093C51.4612 40.3013 51.1045 39.9387 50.7031 39.9387C50.3018 39.9387 49.945 40.3013 49.945 40.7093ZM64.5718 65.3253V58.6613V38.6693C64.5718 38.352 64.438 38.08 64.2596 37.8533C64.0367 37.6267 63.7691 37.4907 63.4569 37.4907H48.4734C48.1613 37.4907 47.8937 37.6267 47.6707 37.8533L47.6262 37.8987C47.4478 38.1253 47.314 38.3973 47.314 38.6693V51.4987V58.6613V65.3253C47.314 65.6427 47.4478 65.9147 47.6262 66.1413C47.8491 66.368 48.1167 66.504 48.4288 66.504H63.4123C63.7245 66.504 63.9921 66.368 64.215 66.1413C64.438 65.9147 64.5718 65.6427 64.5718 65.3253ZM22.0739 15.912V18.6773H19.3537C18.6402 18.6773 17.9713 18.9947 17.4808 19.448C16.9902 19.9467 16.7227 20.6267 16.7227 21.352V25.16C16.7227 25.8853 17.0348 26.5653 17.4808 27.064C17.9713 27.5627 18.6402 27.8347 19.3537 27.8347H22.0739V33.9547H17.4362C17.0348 33.9547 16.6781 34.3173 16.6781 34.7253C16.6781 35.1333 17.0348 35.496 17.4362 35.496H22.0739V38.2613C22.0739 38.6693 22.4307 39.032 22.832 39.032C23.2334 39.032 23.5901 38.6693 23.5901 38.2613V35.496H26.3103C27.0238 35.496 27.6927 35.1787 28.1833 34.7253C28.6738 34.2267 28.9414 33.5467 28.9414 32.8213V29.0133C28.9414 28.288 28.6292 27.608 28.1833 27.1093C27.6927 26.6107 27.0238 26.3387 26.3103 26.3387H23.5901V20.2187H27.6036C28.0049 20.2187 28.3616 19.856 28.3616 19.448C28.3616 19.04 28.0049 18.6773 27.6036 18.6773H23.5901V15.912C23.5901 15.504 23.2334 15.1413 22.832 15.1413C22.4307 15.1413 22.0739 15.504 22.0739 15.912ZM23.5901 27.88V34H26.3103C26.6225 34 26.89 33.864 27.113 33.6827C27.336 33.456 27.4698 33.184 27.4698 32.8667V29.0587C27.4698 28.7413 27.336 28.4693 27.113 28.2427C26.89 28.016 26.6225 27.88 26.3103 27.88H23.5901ZM22.0739 26.3387V20.2187H19.3537C19.0415 20.2187 18.774 20.3547 18.551 20.5813C18.328 20.808 18.2389 21.08 18.2389 21.3973V25.2053C18.2389 25.5227 18.3726 25.7947 18.551 26.0213C18.774 26.248 19.0415 26.3387 19.3537 26.3387H22.0739ZM46.8235 30.464H49.722C50.1234 30.464 50.4801 30.8267 50.4801 31.2347V32.4133H61.4056V31.2347C61.4056 30.8267 61.7624 30.464 62.1637 30.464H65.0623V29.3307H62.1637H49.722H46.8235V30.464ZM48.964 32.0053V33.184C48.964 33.592 49.3207 33.9547 49.722 33.9547H62.1637C62.5651 33.9547 62.9218 33.592 62.9218 33.184V32.0053H65.8204C66.2217 32.0053 66.5785 31.6427 66.5785 31.2347V28.56C66.5785 28.152 66.2217 27.7893 65.8204 27.7893H62.1637H49.722H46.0654C45.664 27.7893 45.3073 28.152 45.3073 28.56V31.2347C45.3073 31.6427 45.664 32.0053 46.0654 32.0053H48.964Z" fill="#D56F3B"/>
</svg>
