<svg width="75" height="67" viewBox="0 0 75 67" fill="none" xmlns="http://www.w3.org/2000/svg">
<path fill-rule="evenodd" clip-rule="evenodd" d="M57.6991 66.1674C57.6991 66.6056 57.3451 67 56.8584 67C56.4159 67 56.0177 66.6494 56.0177 66.1674V54.7305H18.9823V66.1674C18.9823 66.6056 18.6283 67 18.1416 67C17.6991 67 17.3009 66.6494 17.3009 66.1674V54.7305H3.84956H0.840705C0.398227 54.7305 0 54.38 0 53.898C0 53.416 0.35398 53.0654 0.840705 53.0654H3.00886V7.79987H0.840705C0.398227 7.79987 0 7.44931 0 6.9673V0.832571C0 0.394376 0.35398 0 0.840705 0H74.1593C74.6018 0 75 0.350557 75 0.832571V6.9673C75 7.40549 74.646 7.79987 74.1593 7.79987H71.9912V53.0654H74.1593C74.6018 53.0654 75 53.416 75 53.898C75 54.38 74.646 54.7305 74.1593 54.7305H71.1505H57.6991V66.1674ZM56.3717 16.0379L40.1327 32.1197L31.9912 24.0569C31.6814 23.7502 31.1504 23.7502 30.7965 24.0569L16.0177 38.6926C15.708 38.9993 15.708 39.5252 16.0177 39.8757C16.3274 40.1825 16.8584 40.1825 17.2124 39.8757L31.4159 25.8097L39.5575 33.8725C39.8673 34.1792 40.3982 34.1792 40.7522 33.8725L57.5664 17.2211C57.8761 16.9143 57.8761 16.3885 57.5664 16.0379C57.2124 15.7312 56.6814 15.7312 56.3717 16.0379ZM3.84956 6.17855H71.1505H73.3186V1.70896H1.63717V6.17855H3.84956ZM4.69027 53.1092H18.1416H18.1858H18.2301H56.9027H56.9469H70.3982V7.79987H4.69027V53.1092Z" fill="#D56F3B"/>
</svg>
