<svg width="82" height="65" viewBox="0 0 82 65" fill="none" xmlns="http://www.w3.org/2000/svg">
<path fill-rule="evenodd" clip-rule="evenodd" d="M27.7155 58.2982H53.2083V49.5899V40.2888V38.3739V22.4162C53.2083 22.0515 53.0722 21.7323 52.8 21.5044C52.5732 21.2764 52.2103 21.094 51.8928 21.094H48.6722H32.2969H29.0763C28.7134 21.094 28.3959 21.2308 28.1691 21.5044L28.1237 21.55C27.8969 21.7779 27.7608 22.0971 27.7608 22.4618V25.1062V31.4893V33.6778V36.0487V40.2888V49.5899V58.2982H27.7155ZM41.3691 3.81414H44.3629C44.8619 3.81414 45.2248 4.22449 45.2248 4.68042V11.565H48.6722C49.1712 11.565 49.534 11.9754 49.534 12.4313V19.3159H51.8928C52.7547 19.3159 53.5258 19.6806 54.0701 20.2278C54.6145 20.7749 54.9774 21.55 54.9774 22.4162V35.5927C55.3856 35.4103 55.8392 35.2736 56.2928 35.2736H68.1774C69.0392 35.2736 69.8104 35.6383 70.3547 36.1854C70.899 36.7326 71.2619 37.5076 71.2619 38.3739V58.2526H80.1526C80.6516 58.2526 81.0145 58.663 81.0145 59.1189V64.1342C81.0145 64.6357 80.6062 65.0004 80.1526 65.0004H0.861854C0.362884 65.0004 0 64.5901 0 64.1342V59.1189C0 58.6174 0.408245 58.2526 0.861854 58.2526H9.88866V33.6322C9.88866 32.7659 10.2515 32.0364 10.7959 31.4437C11.3402 30.8966 12.1114 30.5319 12.9732 30.5319H15.3773V25.0151C15.3773 24.5135 15.7856 24.1488 16.2392 24.1488H25.9918V22.3706C25.9918 21.55 26.3093 20.8205 26.8536 20.2278L26.899 20.1822C27.4433 19.635 28.2145 19.2703 29.0763 19.2703H31.4351V12.3857C31.4351 11.8842 31.8433 11.5194 32.2969 11.5194H35.7444V4.63483C35.7444 4.1333 36.1526 3.76855 36.6062 3.76855H39.6M79.2454 60.0764H70.3547H54.0701H26.8536H10.7505H1.72371V63.3135H79.2454V60.0764ZM34.6103 32.2188C34.1114 32.2188 33.7485 31.8085 33.7485 31.3525C33.7485 30.851 34.1567 30.4863 34.6103 30.4863H46.3588C46.8578 30.4863 47.2207 30.8966 47.2207 31.3525C47.2207 31.8541 46.8124 32.2188 46.3588 32.2188H34.6103ZM34.6103 50.5018C34.1114 50.5018 33.7485 50.0914 33.7485 49.6355C33.7485 49.134 34.1567 48.7692 34.6103 48.7692H46.3588C46.8578 48.7692 47.2207 49.1796 47.2207 49.6355C47.2207 50.137 46.8124 50.5018 46.3588 50.5018H34.6103ZM34.6103 41.2007C34.1114 41.2007 33.7485 40.7904 33.7485 40.3344C33.7485 39.8329 34.1567 39.4682 34.6103 39.4682H46.3588C46.8578 39.4682 47.2207 39.8785 47.2207 40.3344C47.2207 40.836 46.8124 41.2007 46.3588 41.2007H34.6103ZM54.9774 41.2007V48.7236H63.4598C63.9588 48.7236 64.3217 49.134 64.3217 49.5899C64.3217 50.0914 63.9134 50.4562 63.4598 50.4562H54.9774V58.2526H69.4928V38.3739C69.4928 38.0092 69.3567 37.69 69.0846 37.462C68.8578 37.2341 68.4949 37.0517 68.1774 37.0517H56.2928C55.9299 37.0517 55.6124 37.1885 55.3856 37.462C55.1588 37.69 55.0227 38.0092 55.0227 38.3739V39.4226M25.9918 35.1824V33.6778C25.9918 33.3131 25.8557 32.9939 25.5835 32.7659C25.3567 32.538 25.0392 32.4012 24.6763 32.4012H16.2392H12.9278C12.565 32.4012 12.2474 32.538 11.9753 32.7659C11.7485 32.9939 11.567 33.3586 11.567 33.6778V58.2982H25.9011V50.5018H16.1485C15.6495 50.5018 15.2866 50.0914 15.2866 49.6355C15.2866 49.134 15.6949 48.7692 16.1485 48.7692H25.9011V41.2463H16.1485C15.6495 41.2463 15.2866 40.836 15.2866 40.38C15.2866 39.8785 15.6949 39.5138 16.1485 39.5138H25.9011V37.0061M25.9918 25.9725H17.1464V30.5774H24.6763H25.9918V25.9725ZM43.4557 11.565V5.54669H40.4619H37.4681V11.565H43.4557ZM47.8103 13.3432H44.3629H36.6516H33.2041V19.3615H47.8103V13.3432Z" fill="#D56F3B"/>
<path fill-rule="evenodd" clip-rule="evenodd" d="M66.791 0.417965C66.9118 0.167186 67.1535 0 67.4354 0C67.7173 0 67.9589 0.167186 68.0797 0.417965C68.6033 1.2539 69.4893 2.54959 70.4558 4.01247C73.0333 7.85775 76.3759 12.8315 77.3424 15.2139C77.9465 16.6768 78.1882 18.1397 78.1882 19.5608C78.1882 21.7342 77.5438 23.7822 76.4162 25.4959C75.2885 27.2095 73.6776 28.5888 71.7445 29.4247C70.6169 29.8845 69.4087 30.2189 68.12 30.3025V35.945C68.12 36.363 67.7978 36.7391 67.3548 36.7391C66.9521 36.7391 66.5896 36.4048 66.5896 35.945V30.3025C65.3009 30.2189 64.0927 29.9263 62.9651 29.4247C61.032 28.5888 59.4211 27.2095 58.2935 25.4959C57.1659 23.7822 56.5215 21.7342 56.5215 19.5608C56.5215 18.1397 56.8034 16.6768 57.3672 15.2139C58.3338 12.8315 61.6361 7.85775 64.2538 4.01247C65.3412 2.59139 66.2272 1.2539 66.791 0.417965ZM68.2005 3.34372V28.756C69.2879 28.6724 70.335 28.4216 71.2613 28.0037C72.9124 27.2931 74.2817 26.081 75.2482 24.6181C76.2148 23.1553 76.7383 21.3998 76.7383 19.5608C76.7383 18.3487 76.4967 17.053 76.0134 15.7991C75.1274 13.5839 71.8251 8.69367 69.2879 4.89019C68.8852 4.38863 68.5227 3.84528 68.2005 3.34372ZM66.6702 28.756V3.34372C66.348 3.84528 65.9855 4.38863 65.5828 4.93199C63.0456 8.73547 59.7433 13.6257 58.8573 15.8409C58.3338 17.0948 58.1324 18.3905 58.1324 19.6026C58.1324 21.4416 58.6559 23.1971 59.6225 24.6599C60.589 26.1228 61.9583 27.2931 63.6095 28.0455C64.576 28.4216 65.5828 28.6724 66.6702 28.756Z" fill="#D56F3B"/>
</svg>
