<svg width="79" height="71" viewBox="0 0 79 71" fill="none" xmlns="http://www.w3.org/2000/svg">
<path fill-rule="evenodd" clip-rule="evenodd" d="M57.292 69.2973C58.402 68.4224 59.6971 67.5476 61.0539 66.5479C68.146 61.549 77.5816 54.8629 77.5816 47.8645C77.5816 43.6154 75.7315 40.5536 73.1413 38.804C71.8462 37.9292 70.3044 37.3668 68.7627 37.1793C67.2209 36.9919 65.6175 37.1793 64.1374 37.7417C63.089 38.1166 62.0406 38.7415 61.1772 39.5538L61.1155 39.6163C59.6971 40.9285 58.587 42.8031 58.032 45.24C57.9703 45.6774 57.5386 45.9274 57.1686 45.8024C56.8602 45.7399 56.6752 45.49 56.6136 45.24C56.1202 43.053 55.1952 41.3659 53.9617 40.0537L53.9001 39.9912C52.9133 38.9914 51.7416 38.2416 50.5082 37.7417C49.0281 37.1793 47.4247 36.9919 45.8829 37.1793C44.3411 37.3668 42.7994 37.9292 41.5043 38.804C38.9141 40.5536 37.064 43.6154 37.064 47.8645C37.064 50.1765 38.0507 52.3635 39.6542 54.5505C39.7158 54.613 39.7158 54.6755 39.7775 54.738C41.381 56.8625 43.4777 58.862 45.8212 60.7991C45.8829 60.7991 45.8829 60.8616 45.9446 60.8616C48.4731 62.9237 51.1866 64.8607 53.5917 66.5479C54.8868 67.4852 56.1202 68.4224 57.292 69.2973ZM59.8821 38.6165C58.8337 39.6788 57.9087 40.9285 57.292 42.5531C56.7369 41.2409 55.9969 40.0537 55.1335 39.1164V30.9932V6.93597C55.1335 6.49856 54.8251 6.18614 54.3934 6.18614H6.96877C6.53707 6.18614 6.22873 6.49856 6.22873 6.93597V30.9932V55.0504C6.22873 55.4878 6.53707 55.8002 6.96877 55.8002H38.6674C39.9625 57.4873 41.5659 59.0495 43.2927 60.6117H4.50194C3.70023 60.6117 2.96018 60.2992 2.40515 59.7369C1.85011 59.1745 1.54176 58.4246 1.54176 57.6123V4.49901C1.54176 3.68669 1.85011 2.93685 2.40515 2.37447C2.96018 1.81209 3.70023 1.49967 4.50194 1.49967H56.9219C57.7236 1.49967 58.4637 1.81209 59.0187 2.37447C59.5738 2.93685 59.8821 3.68669 59.8821 4.49901V38.6165ZM45.0195 62.1113H4.44027C3.20686 62.1113 2.0968 61.6114 1.29509 60.7991C0.493368 59.9868 0 58.862 0 57.6123V4.49901C0 3.24928 0.493368 2.12453 1.29509 1.31221C2.0968 0.499884 3.20686 0 4.44027 0H56.8602C58.0937 0 59.2037 0.499884 60.0055 1.31221C60.8072 2.12453 61.3005 3.24928 61.3005 4.49901V37.4293C61.9789 36.9294 62.7806 36.5545 63.5207 36.3045C65.2475 35.6797 67.0359 35.4922 68.8244 35.6797C70.6128 35.8671 72.3396 36.492 73.8813 37.5542C76.8415 39.5538 79 43.053 79 47.8645C79 55.6753 69.1944 62.6112 61.8556 67.7976C60.3138 68.9223 58.8337 69.9221 57.662 70.8594C57.4153 71.0469 57.0453 71.0469 56.7369 70.8594C55.5652 69.9221 54.0851 68.9223 52.5433 67.7976C50.1998 66.048 47.548 64.1734 45.0195 62.1113ZM53.6534 37.7417C52.79 37.1168 51.9266 36.6169 50.9399 36.242C49.2131 35.6172 47.4247 35.4297 45.6362 35.6172C43.8478 35.8046 42.121 36.4295 40.5792 37.4918C37.619 39.4913 35.4606 42.9905 35.4606 47.802C35.4606 50.0515 36.2623 52.176 37.619 54.3006H7.70882V31.8055H17.5761C17.9461 31.8055 18.1928 31.5556 18.3161 31.2431L22.5098 18.8084L28.6151 47.4896C28.6768 47.927 29.1085 48.1769 29.4785 48.0519C29.7869 47.9894 29.9719 47.7395 30.0336 47.4896L36.4473 25.9943L37.9891 31.2431C38.1124 31.5556 38.3591 31.8055 38.7291 31.8055H53.7151V37.7417H53.6534ZM53.6534 30.3058H39.2225L37.1873 23.1824C37.1257 22.9325 36.9407 22.745 36.694 22.6825C36.324 22.5575 35.8923 22.8075 35.7689 23.1824L29.4168 44.3027L23.3731 15.809C23.3115 15.5591 23.1265 15.3091 22.8798 15.2466C22.5098 15.1217 22.0781 15.3091 21.9547 15.7465L17.0827 30.3058H7.70882V7.81078H53.6534V30.3058Z" fill="#D56F3B"/>
</svg>
