<svg width="79" height="125" viewBox="0 0 79 125" fill="none" xmlns="http://www.w3.org/2000/svg">
<path fill-rule="evenodd" clip-rule="evenodd" d="M38.0859 5.6903C36.1062 8.5821 33.7494 11.847 31.2983 15.4851C27.5275 20.8955 23.2852 26.7724 19.42 32.556L38.1802 43.2836V5.6903H38.0859ZM38.0859 68.9366L7.44752 51.3993C6.69334 52.8918 6.03343 54.1978 5.4678 55.3172C3.67663 59.7015 2.7339 63.9925 2.54536 68.1903L38.0859 88.4328V68.9366ZM8.76732 49.0672C11.1241 44.9627 14.3294 40.0187 17.9117 34.7948L38.0859 46.3619V65.8582L8.76732 49.0672ZM2.54536 71.3619L37.9917 91.6045V104.384C33.0895 104.198 28.4702 103.172 24.3222 101.493C17.7232 98.7873 12.2554 94.3097 8.48448 88.7127C4.99642 83.6754 2.92245 77.7052 2.54536 71.3619ZM40.7255 65.8582L70.0442 49.0672C67.6874 44.9627 64.3878 40.0187 60.8998 34.7948L40.7255 46.3619V65.8582ZM71.364 51.3993C72.2124 52.8918 72.778 54.1978 73.3437 55.3172C75.1348 59.7015 76.0776 63.9925 76.2661 68.1903L40.7255 88.4328V68.75L71.364 51.3993ZM40.7255 43.2836V5.6903C42.7052 8.5821 45.0621 11.847 47.5131 15.4851C51.284 20.8022 55.5262 26.7724 59.3914 32.556L40.7255 43.2836ZM76.2661 71.3619L40.8198 91.6045V104.384C45.722 104.198 50.3413 103.172 54.4893 101.493C61.0883 98.7873 66.5561 94.3097 70.327 88.7127C73.815 83.6754 75.889 77.7052 76.2661 71.3619ZM38.1802 0.746271C38.3687 0.279854 38.8401 0 39.4057 0C39.9714 0 40.3484 0.279854 40.6313 0.746271C42.7995 3.91791 46.0991 8.67538 49.7757 13.8993C59.58 27.8918 72.2124 45.8022 75.7948 54.2911C77.963 59.4217 79 64.5522 79 69.4963C79 77.0522 76.6432 84.2351 72.5895 90.2052C68.4415 96.1754 62.5967 101.026 55.5263 103.918C51.0955 105.784 46.0991 106.903 40.8198 106.996V123.694C40.8198 124.44 40.2542 125 39.5 125C38.7458 125 38.1802 124.44 38.1802 123.694V106.996C32.9009 106.81 27.9046 105.69 23.4738 103.918C16.4034 101.026 10.5585 96.1754 6.41052 90.2052C2.26255 84.2351 0 77.0522 0 69.4963C0 64.5522 1.03702 59.4217 3.20527 54.2911C6.78761 45.8022 19.42 27.8918 29.2243 13.8993C32.7124 8.67538 36.1062 4.0112 38.1802 0.746271Z" fill="white"/>
</svg>
