<svg width="62" height="83" viewBox="0 0 62 83" fill="none" xmlns="http://www.w3.org/2000/svg">
<path fill-rule="evenodd" clip-rule="evenodd" d="M5.13905 55.1525L16.025 47.4383C15.6934 46.6058 15.4171 45.7178 15.2513 44.8854C15.0303 43.7754 14.9198 42.61 14.9198 41.5C14.9198 37.0602 16.6881 33.0088 19.6168 30.0675C22.4902 27.1261 26.5241 25.2946 30.9447 25.2946H32.6578C33.1551 25.2946 33.5419 25.6831 33.5419 26.1826V35.1178L41.2781 29.6235L41.3333 29.568L53.1034 21.2433L56.4189 18.8569L33.4866 2.65154V11.2537C33.4866 11.7532 33.0998 12.1417 32.6025 12.1417H32.5472H30.9447C22.877 12.1972 15.5829 15.4715 10.3333 20.7993C5.08379 26.1271 1.82354 33.4528 1.82354 41.5555C1.82354 44.1084 2.15508 46.6613 2.81818 49.1032C3.31551 51.1566 4.08914 53.21 5.13905 55.1525ZM56.9162 27.792C57.9661 29.7345 58.7398 31.7879 59.2923 33.9523C59.9554 36.3942 60.2317 38.8916 60.2317 41.5C60.2317 49.6027 56.9715 56.9284 51.7219 62.2562C46.4724 67.584 39.1783 70.8583 31.1105 70.9138H29.508H29.4528C28.9554 70.9138 28.5686 71.3023 28.5686 71.8018V80.4039L5.63637 64.1431L8.95188 61.7567L20.7219 53.432C20.7772 53.432 20.7772 53.3765 20.7772 53.3765L28.5134 47.8823V56.8174C28.5134 57.3169 28.9002 57.7054 29.3975 57.7054H31.1105C35.5312 57.6499 39.5651 55.8184 42.4385 52.9325C45.3119 49.9912 47.1355 45.9398 47.1355 41.5C47.1355 40.3346 47.025 39.2246 46.7487 38.1146C46.5829 37.2267 46.3066 36.3942 45.975 35.5617L56.9162 27.792ZM44.4831 34.5073L56.6952 25.8496L56.7504 25.7941C57.1925 25.5721 57.6898 25.6831 57.9109 26.1271C59.2371 28.458 60.2317 30.9554 60.9501 33.5638C61.6132 36.1722 62 38.8361 62 41.5555C62 50.1021 58.5187 57.8718 52.9376 63.5326C47.3565 69.1379 39.6203 72.6343 31.1105 72.6898H30.2816V82.1244C30.2816 82.2909 30.2264 82.4574 30.1159 82.6239C29.8396 83.0123 29.287 83.1234 28.9002 82.8459L3.5918 64.9201C3.53654 64.8646 3.42603 64.8091 3.37077 64.6981C3.09448 64.3096 3.20499 63.7546 3.5918 63.4771L7.95721 60.4247L19.7825 52.0446C19.8378 51.9891 19.8378 51.9891 19.893 51.9891L28.8449 45.6623C29.0107 45.5513 29.1765 45.4958 29.3975 45.4958C29.8948 45.4958 30.2816 45.8843 30.2816 46.3838V56.1514H31.1105C35.0891 56.0959 38.6257 54.4865 41.2228 51.8781C43.82 49.2697 45.4225 45.6623 45.4225 41.6665C45.4225 40.612 45.3119 39.6131 45.0909 38.6141C44.8699 37.6152 44.5936 36.6717 44.1515 35.7837C43.9857 35.2287 44.0962 34.7293 44.4831 34.5073ZM17.5722 48.4927L5.30482 57.1504L5.24955 57.2059C4.86274 57.4279 4.31016 57.3169 4.08912 56.8729C2.76292 54.542 1.76827 52.0446 1.04991 49.4362C0.386806 46.8278 0 44.1639 0 41.4445C0 32.8978 3.42602 25.1282 9.06238 19.4674C14.6435 13.8621 22.3797 10.3657 30.8895 10.3102H31.7184V0.875614C31.7184 0.709121 31.7736 0.542631 31.8841 0.376138C32.1604 -0.012347 32.713 -0.123348 33.0998 0.154141L58.4082 18.0799C58.4635 18.1354 58.574 18.1909 58.6292 18.3019C58.9055 18.6904 58.795 19.2454 58.4082 19.5229L54.0428 22.5753L42.1622 30.9554L42.107 31.0109L33.0998 37.3932C32.934 37.5042 32.7683 37.5597 32.5472 37.5597C32.0499 37.5597 31.6631 37.1712 31.6631 36.6717V26.9041H30.8342C26.8556 26.9596 23.3191 28.569 20.7219 31.1774C18.1248 33.7858 16.5223 37.3932 16.5223 41.389C16.5223 42.4435 16.6328 43.4424 16.8538 44.4414C17.0749 45.4403 17.3512 46.3838 17.7932 47.2718C18.0143 47.7713 17.9038 48.2152 17.5722 48.4927Z" fill="#D56F3B"/>
</svg>
