<svg width="67" height="77" viewBox="0 0 67 77" fill="none" xmlns="http://www.w3.org/2000/svg">
<path fill-rule="evenodd" clip-rule="evenodd" d="M51.3783 75.6954C51.3783 76.1207 51.0593 76.4396 50.6341 76.4396C50.2088 76.4396 49.8899 76.1207 49.8899 75.6954V65.4893H17.1452V75.6954C17.1452 76.1207 16.8263 76.4396 16.401 76.4396C15.9758 76.4396 15.6568 76.1207 15.6568 75.6954V65.4893H3.7497H1.09185C0.702038 65.4893 0.347656 65.1703 0.347656 64.7451C0.347656 64.3553 0.6666 64.0009 1.09185 64.0009H3.0055V6.94583H1.09185C0.702038 6.94583 0.347656 6.62689 0.347656 6.20164V0.744199C0.347656 0.354381 0.6666 0 1.09185 0H65.9078C66.2976 0 66.652 0.318943 66.652 0.744199V6.20164C66.652 6.59145 66.3331 6.94583 65.9078 6.94583H63.9942V64.0009H65.9078C66.2976 64.0009 66.652 64.3198 66.652 64.7451C66.652 65.1349 66.3331 65.4893 65.9078 65.4893H63.25H51.3783V75.6954ZM3.78513 5.49288H63.2854H65.199V1.48839H1.87149V5.49288H3.78513ZM4.52933 64.0363H16.401H16.4365H16.4719H50.6695H50.7049H62.5766V6.98127H4.52933V64.0363Z" fill="#D56F3B"/>
<path fill-rule="evenodd" clip-rule="evenodd" d="M32.9504 11.2694C32.0999 12.5098 31.1431 13.8918 30.08 15.4511C28.4852 17.7546 26.7134 20.2707 25.0478 22.7513L32.9504 27.2874V11.2694ZM32.9504 38.2377L20.0156 30.7603C19.6966 31.3982 19.4131 31.9652 19.2005 32.4613C18.4209 34.3041 18.0311 36.1823 17.9602 37.9542L32.9504 46.601V38.2377ZM20.5826 29.768C21.5749 27.9961 22.9569 25.9053 24.4453 23.6727L32.9859 28.5986V36.9265L20.5826 29.768ZM17.9956 39.2654L32.9859 47.9122V53.3697C30.895 53.2988 28.9459 52.8736 27.2095 52.1294C24.4099 50.9599 22.1064 49.0463 20.5117 46.6719C19.0233 44.5456 18.1374 41.9941 17.9956 39.2654ZM34.1199 36.9265L46.5231 29.768C45.5309 27.9961 44.1488 25.9053 42.6604 23.6727L34.1199 28.5986V36.9265ZM47.0547 30.7603C47.4091 31.3982 47.6572 31.9652 47.8698 32.4613C48.6494 34.3041 49.0392 36.1823 49.1101 37.9542L34.1199 46.601V38.2377L47.0547 30.7603ZM34.1199 27.2874V11.2694C34.9704 12.5098 35.9272 13.8918 36.9903 15.4157C38.5851 17.7191 40.357 20.2352 42.0225 22.7159L34.1199 27.2874ZM49.0747 39.2654L34.0844 47.9122V53.3697C36.1753 53.2988 38.1244 52.8736 39.8608 52.1294C42.6604 50.9599 44.9639 49.0463 46.5586 46.6719C48.047 44.5456 48.9329 41.9941 49.0747 39.2654ZM33.0213 9.14316C33.1276 8.96597 33.3048 8.82422 33.5174 8.82422C33.7301 8.82422 33.9427 8.96597 34.0136 9.14316C34.9349 10.5252 36.317 12.5098 37.8763 14.7778C42.0225 20.7314 47.3737 28.3859 48.862 32.0006C49.7834 34.1978 50.2087 36.3595 50.2087 38.4858C50.2087 41.7106 49.2164 44.7583 47.48 47.3098C45.7435 49.8613 43.2629 51.9167 40.2861 53.1571C38.4079 53.9367 36.317 54.3974 34.0844 54.4683V61.6622C34.0844 61.9811 33.8364 62.2292 33.5174 62.2292C33.1985 62.2292 32.9504 61.9811 32.9504 61.6622V54.5391C30.7178 54.4683 28.627 54.0076 26.7488 53.2279C23.772 51.9876 21.2914 49.9322 19.5549 47.3807C17.8184 44.8292 16.8262 41.7815 16.8262 38.5566C16.8262 36.4304 17.2514 34.2332 18.1728 32.0715C19.6966 28.4568 25.0123 20.8022 29.1586 14.8487C30.7178 12.5452 32.1354 10.5252 33.0213 9.14316Z" fill="#D56F3B"/>
</svg>
