<svg width="68" height="76" viewBox="0 0 68 76" fill="none" xmlns="http://www.w3.org/2000/svg">
<path fill-rule="evenodd" clip-rule="evenodd" d="M61.9902 57.8391C62.4353 57.8391 62.8063 58.212 62.8063 58.6595C62.8063 59.107 62.4353 59.4799 61.9902 59.4799H51.5286V69.9961C51.5286 70.4436 51.1577 70.8165 50.7125 70.8165C50.2673 70.8165 49.8963 70.4436 49.8963 69.9961V59.4799H39.4348C38.9896 59.4799 38.6187 59.107 38.6187 58.6595C38.6187 58.212 38.9896 57.8391 39.4348 57.8391H49.8963V47.3229C49.8963 46.8754 50.2673 46.5024 50.7125 46.5024C51.1577 46.5024 51.5286 46.8754 51.5286 47.3229V57.8391H61.9902ZM37.7654 43.3327C34.575 45.3837 31.7556 46.7635 28.7507 46.95C25.7087 47.1364 22.5554 46.0923 18.8085 43.2954L17.2133 44.3396C18.1037 45.682 19.5134 46.7635 21.1086 47.5466C23.3344 48.6281 25.9684 49.1501 28.2684 49.1501C30.6427 49.1501 33.0169 48.5162 35.0202 47.5466C36.838 46.6889 38.3219 45.5329 39.2864 44.3023L37.7654 43.3327ZM19.7731 41.9529C19.9956 40.685 20.144 38.4102 20.2182 36.6575C20.9973 37.3288 21.8134 37.9254 22.6667 38.4475C24.4473 39.4917 26.3764 40.0883 28.3055 40.0883C30.2346 40.0883 32.1266 39.4917 33.9443 38.4475C34.7605 37.9627 35.5766 37.366 36.3557 36.6948V36.7321C36.467 38.4475 36.6154 40.7223 36.8751 41.9902C33.9444 43.8921 31.3475 45.16 28.7136 45.3091C26.0055 45.4583 23.186 44.4887 19.7731 41.9529ZM36.6896 48.5162C34.6492 51.3503 33.425 54.8557 33.425 58.6595C33.425 62.0157 34.3524 65.1482 36.0218 67.8332H4.89689C4.00655 67.8332 3.1904 67.4603 2.59684 66.8636C2.00327 66.2669 1.63229 65.4465 1.63229 64.5515V55.6762C1.63229 53.1776 3.00491 51.052 5.26787 49.3366C7.8276 47.3974 11.5003 45.9804 15.7294 45.0481C16.8052 46.7635 18.4746 48.106 20.4408 49.0383C22.9263 50.2316 25.82 50.8283 28.3055 50.8283C30.9394 50.8283 33.5734 50.1197 35.7621 49.0383C36.096 48.8518 36.3928 48.6654 36.6896 48.5162ZM18.6601 35.1286C18.623 35.5015 18.623 35.9863 18.5859 36.5083C18.4746 38.2983 18.3633 40.7223 18.1408 41.7664L15.8407 43.2954C11.2035 44.265 7.15984 45.8312 4.30332 47.9568C1.5952 49.9706 0 52.5437 0 55.6016V64.4769C0 65.8194 0.556462 67.05 1.44681 67.945C2.33715 68.84 3.56137 69.3994 4.89689 69.3994H37.1718C37.5799 69.9215 38.0251 70.4063 38.4703 70.8911C41.5865 74.0236 45.9269 76 50.7125 76C55.4981 76 59.8014 74.0608 62.9176 70.9284C66.0338 67.7959 68 63.4328 68 58.6595C68 53.8489 66.0709 49.5231 62.9547 46.3906C59.8385 43.2581 55.4981 41.2816 50.7496 41.2816C47.6334 41.2816 44.6656 42.1021 42.1429 43.5937C41.9574 43.5564 41.772 43.5191 41.5494 43.4446C41.2897 43.37 41.03 43.3327 40.7703 43.2581L38.4703 41.841C38.2477 40.8341 38.0622 38.4102 37.9509 36.6202C37.9138 36.0981 37.8767 35.6133 37.8396 35.2031C38.2106 34.7929 38.5816 34.3454 38.9525 33.8979C40.3622 32.0707 41.5865 29.945 42.4026 27.6703C43.1817 25.5074 43.6268 23.2326 43.6268 20.9951V20.8832C43.6268 20.8459 43.6268 20.7713 43.6268 20.7341V20.3984V19.9509C43.6268 18.7576 43.6268 17.8253 43.6639 16.9303C43.8494 7.34642 43.9607 0 28.2684 0C12.5761 0 12.6874 7.34642 12.8729 16.9303C12.8729 17.8253 12.91 18.7203 12.91 19.9509V20.3984V20.4357V20.7713C12.91 20.8086 12.91 20.8832 12.91 20.9205V21.0324C12.91 23.2699 13.3552 25.5446 14.1342 27.7076C14.9504 29.9823 16.1375 32.108 17.5843 33.9352C17.9553 34.3081 18.2891 34.7556 18.6601 35.1286ZM23.4828 36.9931C25.0409 37.8881 26.6732 38.4102 28.2684 38.4102C29.9007 38.4102 31.533 37.8881 33.0911 36.9931C34.7605 36.0235 36.3557 34.5692 37.6912 32.8538C39.0267 31.1384 40.1397 29.1619 40.8816 27.0736C41.4381 25.5819 41.772 24.053 41.9203 22.4867L40.8074 19.0186V18.9814C40.6219 18.2728 40.5106 17.6016 40.4735 16.9676C40.4364 16.371 40.3993 15.737 40.3993 15.1403C40.3993 14.4318 40.3622 13.7233 40.2509 13.0893C40.1397 12.5299 39.9542 12.0079 39.6203 11.5604C39.1009 10.8891 38.4332 10.6654 37.617 10.6654C36.6896 10.6654 35.5396 11.001 34.2782 11.3366H34.2411C32.4233 11.8214 30.4572 12.3435 28.2684 12.3435C26.1167 12.3435 24.1506 11.8214 22.3328 11.3366C22.2957 11.3366 22.2586 11.3366 22.2215 11.2993C20.9973 10.9637 19.8472 10.6654 18.9198 10.6654C18.1036 10.6654 17.4359 10.8891 16.9165 11.5604C16.5826 12.0079 16.3972 12.5299 16.2859 13.0893C16.1746 13.7233 16.1375 14.4318 16.1375 15.1403C16.1375 15.737 16.1004 16.371 16.0633 16.9676C16.0262 17.6016 15.9149 18.2728 15.7294 18.9814V19.0186L14.6165 22.4867C14.7649 24.053 15.1358 25.5819 15.6552 27.0736C16.4343 29.1619 17.5101 31.1384 18.8456 32.8538C19.2166 33.3386 19.6247 33.7861 20.0327 34.2336L20.0698 34.2709C21.1457 35.3896 22.2957 36.3219 23.4828 36.9931ZM42.0687 16.4455C42.0316 15.9607 42.0316 15.5505 42.0316 15.103C42.0316 14.3199 41.9945 13.5368 41.8833 12.8283C41.7349 12.0078 41.4752 11.262 40.9558 10.5908C40.0655 9.43474 38.9525 9.02453 37.6541 9.06182C36.5041 9.06182 35.2428 9.39744 33.9073 9.77036C32.2008 10.2179 30.3459 10.7399 28.3426 10.7399C26.3764 10.7399 24.5216 10.2179 22.778 9.77036H22.7409C21.4053 9.39744 20.1811 9.06182 19.0311 9.06182C17.7327 9.06182 16.6198 9.43474 15.7294 10.5908C15.21 11.2993 14.9504 12.0451 14.802 12.8283C14.6907 13.5368 14.6536 14.3199 14.6536 15.103C14.6536 15.5132 14.6165 15.9607 14.6165 16.4455C14.4681 8.01767 14.6165 1.64082 28.3797 1.64082C42.0687 1.64082 42.18 8.01767 42.0687 16.4455ZM38.2106 68.0569C38.2477 68.0942 38.2848 68.1315 38.2848 68.1688C38.6929 68.7282 39.1751 69.2503 39.6574 69.7723C42.4768 72.6065 46.4092 74.3965 50.7125 74.3965C55.0158 74.3965 58.9482 72.6438 61.7676 69.7723C64.587 66.9382 66.3677 62.9853 66.3677 58.6595C66.3677 54.3337 64.6241 50.3808 61.7676 47.5466C58.9482 44.7125 55.0158 42.9225 50.7125 42.9225C47.7818 42.9225 45.0365 43.7429 42.6994 45.1227C42.6623 45.16 42.6623 45.16 42.6252 45.16C41.5494 45.8312 40.5477 46.6143 39.6574 47.5093C36.838 50.3435 35.0573 54.2964 35.0573 58.6222C35.0944 62.1649 36.2444 65.4465 38.2106 68.0569Z" fill="#D56F3B"/>
</svg>
