<svg width="47" height="75" viewBox="0 0 47 75" fill="none" xmlns="http://www.w3.org/2000/svg">
<path fill-rule="evenodd" clip-rule="evenodd" d="M22.6587 3.41418C21.4809 5.14926 20.0788 7.10821 18.6205 9.29105C16.3771 12.5373 13.8532 16.0634 11.5537 19.5336L22.7148 25.9702V3.41418H22.6587ZM22.6587 41.3619L4.4308 30.8396C3.98211 31.7351 3.58951 32.5187 3.25299 33.1903C2.18736 35.8209 1.6265 38.3955 1.51433 40.9142L22.6587 53.0597V41.3619ZM5.216 29.4403C6.61815 26.9776 8.52506 24.0112 10.6563 20.8769L22.6587 27.8172V39.5149L5.216 29.4403ZM1.51433 42.8172L22.6026 54.9627V62.6306C19.6862 62.5187 16.938 61.903 14.4702 60.8955C10.5442 59.2724 7.29117 56.5858 5.04773 53.2276C2.97255 50.2052 1.73867 46.6231 1.51433 42.8172ZM24.2291 39.5149L41.6718 29.4403C40.2697 26.9776 38.3067 24.0112 36.2315 20.8769L24.2291 27.8172V39.5149ZM42.457 30.8396C42.9618 31.7351 43.2983 32.5187 43.6348 33.1903C44.7005 35.8209 45.2613 38.3955 45.3735 40.9142L24.2291 53.0597V41.25L42.457 30.8396ZM24.2291 25.9702V3.41418C25.4069 5.14926 26.8091 7.10821 28.2673 9.29105C30.5107 12.4813 33.0346 16.0634 35.3341 19.5336L24.2291 25.9702ZM45.3735 42.8172L24.2852 54.9627V62.6306C27.2017 62.5187 29.9499 61.903 32.4177 60.8955C36.3437 59.2724 39.5967 56.5858 41.8401 53.2276C43.9153 50.2052 45.1492 46.6231 45.3735 42.8172ZM22.7148 0.447763C22.827 0.167912 23.1074 0 23.4439 0C23.7804 0 24.0048 0.167912 24.173 0.447763C25.463 2.35075 27.426 5.20523 29.6134 8.33956C35.4463 16.7351 42.9618 27.4813 45.0931 32.5746C46.3831 35.653 47 38.7313 47 41.6978C47 46.2313 45.5978 50.5411 43.1861 54.1231C40.7184 57.7052 37.2411 60.6157 33.0346 62.3508C30.3986 63.4702 27.426 64.1418 24.2852 64.1978V74.2164C24.2852 74.6642 23.9487 75 23.5 75C23.0513 75 22.7148 74.6642 22.7148 74.2164V64.1978C19.574 64.0858 16.6014 63.4142 13.9654 62.3508C9.75896 60.6157 6.28163 57.7052 3.81385 54.1231C1.34607 50.5411 0 46.2313 0 41.6978C0 38.7313 0.616959 35.653 1.90693 32.5746C4.0382 27.4813 11.5537 16.7351 17.3866 8.33956C19.4618 5.20523 21.4809 2.40672 22.7148 0.447763Z" fill="#D56F3B"/>
</svg>
