<svg width="135" height="125" viewBox="0 0 135 125" fill="none" xmlns="http://www.w3.org/2000/svg">
<path fill-rule="evenodd" clip-rule="evenodd" d="M25.8324 91.2484C25.9874 95.085 27.5373 98.6105 30.0689 101.151C32.4971 103.588 35.8037 105.091 39.5235 105.039L53.3697 104.884C54.248 104.884 54.9713 105.558 54.9713 106.439V112.972L76.3605 98.5068L54.9713 84.0419V90.6781C54.9713 91.5595 54.248 92.2854 53.3697 92.2854H44.1217C40.6085 92.2854 35.4937 91.1966 31.1022 89.382C29.0873 88.5525 27.2273 87.5674 25.6774 86.4268L25.8324 91.2484ZM108.651 66.4144C113.301 66.4144 117.486 68.2808 120.534 71.3397C123.582 74.3986 125.442 78.5981 125.442 83.2642C125.442 87.9303 123.582 92.1298 120.534 95.1887C119.346 96.3812 118.002 97.3662 116.556 98.1439C120.689 99.4401 124.357 101.721 127.302 104.676C132.055 109.446 135 116.083 135 123.393C135 124.274 134.277 125 133.398 125H83.8519C82.9736 125 82.2503 124.274 82.2503 123.393C82.2503 116.083 85.1952 109.498 89.9483 104.676C92.8932 101.721 96.5614 99.4401 100.695 98.1439C99.1963 97.3662 97.8531 96.3293 96.7164 95.1887C93.6682 92.1298 91.8083 87.9303 91.8083 83.2642C91.8083 78.5981 93.6682 74.3986 96.7164 71.3397C99.7646 68.2808 104.001 66.4144 108.651 66.4144ZM118.261 73.6209C115.781 71.1323 112.371 69.6288 108.599 69.6288C104.828 69.6288 101.418 71.1842 98.938 73.6209C96.4581 76.1095 94.9598 79.5313 94.9598 83.316C94.9598 87.1008 96.5098 90.5226 98.938 93.0112C101.418 95.4998 104.828 97.0033 108.599 97.0033C112.371 97.0033 115.781 95.4479 118.209 93.0112C120.689 90.5226 122.187 87.1008 122.187 83.316C122.29 79.4795 120.741 76.0576 118.261 73.6209ZM125.029 106.958C120.844 102.758 115.006 100.166 108.651 100.166C102.245 100.166 96.4581 102.758 92.2733 106.958C88.4501 110.794 85.9185 116.031 85.5568 121.837H131.848C131.383 116.031 128.904 110.846 125.029 106.958ZM26.4007 0C31.0505 0 35.2354 1.86645 38.2836 4.92534C41.3318 7.98424 43.1917 12.1837 43.1917 16.8499C43.1917 21.516 41.3318 25.7155 38.2836 28.7744C37.0953 29.9668 35.752 30.9519 34.3054 31.7296C38.4386 33.0257 42.1068 35.3069 45.0517 38.2621C49.8048 43.0319 52.7497 49.6682 52.7497 56.9784C52.7497 57.8598 52.0264 58.5856 51.1481 58.5856H1.6016C0.723302 58.5856 0 57.8598 0 56.9784C0 49.6682 2.94489 43.0838 7.69805 38.2621C10.6429 35.3069 14.3111 33.0257 18.4443 31.7296C16.946 30.9519 15.6028 29.915 14.4661 28.7744C11.4179 25.7155 9.55798 21.516 9.55798 16.8499C9.55798 12.1837 11.4179 7.98424 14.4661 4.92534C17.5144 1.86645 21.7509 0 26.4007 0ZM36.0103 7.20655C33.5304 4.71796 30.1206 3.21443 26.349 3.21443C22.5775 3.21443 19.1676 4.7698 16.6877 7.20655C14.2078 9.69514 12.7095 13.117 12.7095 16.9017C12.7095 20.6864 14.2595 24.1082 16.6877 26.5968C19.1676 29.0854 22.5775 30.589 26.349 30.589C30.1206 30.589 33.5304 29.0336 35.9587 26.5968C38.4386 24.1082 39.9369 20.6864 39.9369 16.9017C40.0402 13.0651 38.4902 9.6433 36.0103 7.20655ZM42.7784 40.5433C38.5936 36.3438 32.8071 33.7516 26.4007 33.7516C19.9943 33.7516 14.2078 36.3438 10.023 40.5433C6.19977 44.4318 3.6682 49.6163 3.25488 55.4231H49.5465C49.1332 49.6163 46.6533 44.4318 42.7784 40.5433ZM106.739 39.4546C106.584 35.618 105.034 32.0925 102.503 29.5521C100.075 27.1153 96.7681 25.6118 93.0482 25.6636L79.2021 25.871C78.3238 25.871 77.6005 25.197 77.6005 24.3156V17.7831L56.2113 32.248L77.6005 46.6093V40.0249C77.6005 39.1435 78.3238 38.4177 79.2021 38.4177H88.4501C91.9633 38.4177 97.0781 39.5064 101.47 41.321C103.485 42.1506 105.396 43.1356 106.894 44.2762L106.739 39.4546ZM104.776 27.2708C101.78 24.2638 97.6464 22.3973 93.0482 22.4492L80.8037 22.6047V14.6723C80.8037 13.791 80.0804 13.0651 79.2021 13.0651C78.8404 13.0651 78.4788 13.2207 78.2205 13.428L52.5431 30.7963C51.8198 31.263 51.6131 32.2999 52.1297 32.9739C52.2331 33.1294 52.3881 33.2849 52.5947 33.3886L78.4271 50.8088C79.1504 51.2754 80.132 51.1199 80.597 50.394C80.752 50.1348 80.8553 49.8237 80.8553 49.5126V41.5284H88.4501C91.6016 41.5284 96.2514 42.5135 100.281 44.1725C103.485 45.4687 106.223 47.1796 107.256 49.046C107.669 49.7719 108.651 50.0829 109.426 49.6163C109.943 49.3053 110.253 48.735 110.201 48.1647L109.891 39.2472C109.736 34.6329 107.824 30.3816 104.776 27.2708ZM27.8473 103.432C24.7991 100.373 22.8358 96.0701 22.6808 91.404L22.3708 82.4865C22.3708 81.9162 22.6292 81.3459 23.1458 81.0348C23.9208 80.6201 24.8507 80.8793 25.3157 81.657C26.4007 83.5234 29.0873 85.1825 32.2905 86.5305C36.3203 88.1895 40.9701 89.1746 44.1217 89.1746H51.7681V81.1904C51.7681 80.8793 51.8714 80.5682 52.0264 80.309C52.4914 79.5832 53.5247 79.3758 54.248 79.8942L80.0804 97.3144C80.2354 97.4181 80.3904 97.5736 80.4937 97.781C80.9587 98.5068 80.8037 99.4919 80.0804 99.9585L54.403 117.327C54.1447 117.534 53.783 117.69 53.4214 117.69C52.5431 117.69 51.8198 116.964 51.8198 116.083V108.15L39.5752 108.306C34.977 108.306 30.8439 106.439 27.8473 103.432Z" fill="white"/>
</svg>
