<svg width="113" height="125" viewBox="0 0 113 125" fill="none" xmlns="http://www.w3.org/2000/svg">
<path fill-rule="evenodd" clip-rule="evenodd" d="M101.791 94.0638C101.791 99.1583 99.7377 103.736 96.3638 107.132L96.2905 107.206C92.9165 110.529 88.2957 112.67 83.1614 112.817H83.0881H74.8733V122.194C74.8733 122.933 74.2865 123.597 73.4797 123.597C73.113 123.597 72.8196 123.45 72.5995 123.228L47.2217 103.662C46.6349 103.219 46.4882 102.333 46.9283 101.742C47.0016 101.595 47.1483 101.521 47.295 101.447L72.5995 81.8813C73.1863 81.4383 74.0665 81.5121 74.5066 82.1028C74.7266 82.3243 74.7999 82.6196 74.7999 82.9149V92.2918H79.4208C79.4941 92.2918 79.4941 92.2918 79.5675 92.2918C80.0075 92.2918 80.3743 92.0703 80.741 91.775C81.0344 91.4796 81.2544 90.9628 81.3278 90.5198V90.4459V79.5924C81.3278 78.2634 81.8412 77.0821 82.7214 76.1961C83.6015 75.3101 84.775 74.7933 86.0953 74.7933H96.9506C98.2708 74.7933 99.4444 75.3101 100.325 76.1961C101.205 77.0821 101.718 78.2634 101.718 79.5924L101.791 94.0638ZM1.16011 29.5334C1.16011 24.4389 3.21381 19.8612 6.58775 16.4649L6.6611 16.391C10.035 13.0685 14.6559 10.9273 19.7901 10.7797H19.8635H28.1516V1.40283C28.1516 0.664496 28.7384 0 29.5452 0C29.9119 0 30.2053 0.147667 30.4253 0.369167L55.8032 19.935C56.39 20.378 56.5367 21.264 56.0232 21.8547C55.9499 22.0024 55.8032 22.0762 55.6565 22.15L30.352 41.7897C29.7652 42.2327 28.8851 42.1589 28.445 41.5682C28.225 41.3467 28.1516 41.0514 28.1516 40.7561V31.3792H23.5308C23.4574 31.3792 23.4574 31.3792 23.3841 31.3792C22.944 31.3792 22.5039 31.6007 22.2106 31.896C21.9172 32.1914 21.6971 32.7082 21.6238 33.1512V33.225V44.0786C21.6238 45.4076 21.1103 46.5889 20.2302 47.4749C19.35 48.3609 18.1765 48.8777 16.8562 48.8777H5.92763C4.6074 48.8777 3.43385 48.3609 2.55369 47.4749L2.48034 47.4011C1.67353 46.5151 1.16011 45.3337 1.16011 44.0786V29.5334ZM8.49476 18.3845C5.63425 21.264 3.87394 25.1034 3.87394 29.4595V43.9309C3.87394 44.4477 4.09397 44.9646 4.38735 45.3337L4.4607 45.4075C4.82744 45.7767 5.34086 45.9982 5.92763 45.9982H16.7829C17.3697 45.9982 17.8831 45.7767 18.2498 45.4075C18.6166 45.0384 18.8366 44.5215 18.8366 43.9309V33.0774V32.9297V32.8559C18.91 31.6745 19.4234 30.567 20.1568 29.8287C20.9636 29.0165 22.0639 28.4997 23.2374 28.4997H23.3107H29.3251C30.0586 28.4997 30.7187 29.0904 30.7187 29.9025V37.8766L52.5026 20.9687L30.7187 4.13467V12.1087C30.7187 12.847 30.132 13.5115 29.3251 13.5115H19.7168C15.3893 13.6592 11.4286 15.505 8.49476 18.3845ZM83.1614 10.7797C88.2223 10.7797 92.7698 12.847 96.1438 16.1695L96.2171 16.2434C99.5177 19.6397 101.645 24.2912 101.791 29.4595V29.5334V37.8027H111.106C111.84 37.8027 112.5 38.3934 112.5 39.2055C112.5 39.5747 112.353 39.8701 112.133 40.0916L92.6965 65.6379C92.2564 66.2286 91.3762 66.3763 90.7895 65.8594C90.6428 65.7856 90.5694 65.6379 90.4961 65.4902L70.9859 40.0177C70.5459 39.427 70.6192 38.541 71.206 38.098C71.426 37.8765 71.7194 37.8027 72.0128 37.8027H81.3278V33.1512C81.3278 33.0774 81.3278 33.0774 81.3278 33.0035C81.3278 32.5605 81.1077 32.1175 80.8144 31.8222C80.521 31.5269 80.0075 31.3054 79.5675 31.2315H79.4941H68.7122C67.392 31.2315 66.2184 30.7147 65.3382 29.8287L65.2649 29.7549C64.4581 28.8689 63.9447 27.6875 63.9447 26.4324V15.505C63.9447 14.176 64.4581 12.9947 65.3382 12.1087C66.2184 11.2227 67.392 10.7058 68.7122 10.7058L83.1614 10.7797ZM94.1634 18.0892C91.3029 15.2097 87.4889 13.4377 83.1614 13.4377H68.7855C68.1988 13.4377 67.6853 13.6592 67.3186 14.0284C66.9519 14.3975 66.7318 14.9144 66.7318 15.505V26.4324C66.7318 26.9492 66.9519 27.466 67.2453 27.8352L67.3186 27.909C67.6853 28.2782 68.1988 28.4997 68.7855 28.4997H79.5675H79.7142H79.7875C80.9611 28.5735 82.0612 29.0904 82.7947 29.8287C83.6015 30.6409 84.1149 31.7484 84.1149 32.9297V33.0035V39.0579C84.1149 39.7962 83.5282 40.4607 82.7214 40.4607H74.7999L91.5963 62.3892L108.393 40.4607H100.471C99.7377 40.4607 99.0776 39.8701 99.0776 39.0579V29.3857C98.8576 25.1034 97.0973 21.1164 94.1634 18.0892ZM19.13 60.8388C19.35 60.3958 19.7901 60.1004 20.3769 60.1004C20.8903 60.1004 21.3304 60.3958 21.5504 60.8388C22.5039 62.3154 24.1176 64.6042 25.8779 67.1884C30.572 73.9811 36.6598 82.7673 38.4201 86.9758C39.5203 89.56 39.9604 92.1441 39.9604 94.6545C39.9604 98.4938 38.7868 102.112 36.7331 105.139C34.6794 108.166 31.7456 110.602 28.2249 112.079C26.1712 112.965 23.9709 113.482 21.6238 113.63V123.597C21.6238 124.336 21.037 125 20.2302 125C19.4967 125 18.8366 124.409 18.8366 123.597V113.63C16.4895 113.482 14.2891 112.965 12.2354 112.079C8.7148 110.602 5.78094 108.166 3.72724 105.139C1.67354 102.112 0.5 98.4938 0.5 94.6545C0.5 92.1441 1.01343 89.56 2.04028 86.9758C3.80059 82.7673 9.88833 73.9811 14.5825 67.1884C16.5629 64.6042 18.1765 62.3154 19.13 60.8388ZM21.6971 65.9333V110.898C23.6775 110.75 25.5845 110.307 27.2715 109.569C30.2787 108.314 32.8458 106.172 34.5327 103.588C36.2931 101.004 37.2466 97.9031 37.2466 94.6545C37.2466 92.5133 36.8065 90.2244 35.853 88.0094C34.2393 84.0963 28.225 75.4578 23.6041 68.7389C23.0174 67.7791 22.3572 66.8193 21.6971 65.9333ZM18.9833 110.972V66.0071C18.3965 66.8931 17.7364 67.8529 17.0029 68.8128C12.3821 75.5316 6.36771 84.1701 4.75408 88.0833C3.80058 90.2983 3.43386 92.5871 3.43386 94.7283C3.43386 98.0508 4.38735 101.078 6.14766 103.662C7.90798 106.246 10.4018 108.314 13.409 109.643C15.0959 110.381 17.0029 110.824 18.9833 110.972ZM94.4568 105.213C97.3173 102.333 99.0043 98.4938 99.0043 94.1376V79.6663C99.0043 79.0756 98.7842 78.5588 98.4175 78.1896C98.0508 77.8204 97.5373 77.5989 96.9506 77.5989H86.0953C85.5085 77.5989 84.9951 77.8204 84.6284 78.1896C84.2616 78.5588 84.0416 79.0756 84.0416 79.6663V90.5198V90.6675V90.7413C83.9682 91.9226 83.4548 93.0301 82.7214 93.7684C81.9146 94.5806 80.8143 95.0975 79.6408 95.0975H79.5675H73.5531C72.8196 95.0975 72.1595 94.5068 72.1595 93.6946V85.7206L50.3756 102.628L72.1595 119.536V111.562C72.1595 110.824 72.7462 110.159 73.5531 110.159H83.1614C87.4889 109.938 91.5229 108.092 94.4568 105.213Z" fill="white"/>
</svg>
