<svg width="64" height="106" viewBox="0 0 64 106" fill="none" xmlns="http://www.w3.org/2000/svg">
<rect x="64" width="106" height="64" rx="32" transform="rotate(90 64 0)" fill="#D5703B"/>
<path d="M30.033 73.2008C30.5453 73.7127 31.2377 74 31.9594 74C32.6811 74 33.3735 73.7127 33.8858 73.2008L44.1609 62.8503C44.4227 62.5974 44.6317 62.2945 44.7758 61.9592C44.9199 61.6239 44.996 61.263 44.9998 60.8977C45.0037 60.5324 44.9351 60.1699 44.798 59.8317C44.661 59.4934 44.4584 59.1861 44.2019 58.9277C43.9454 58.6694 43.6404 58.4652 43.3046 58.3272C42.9688 58.1892 42.609 58.1201 42.2463 58.1239C41.8837 58.1278 41.5254 58.2045 41.1926 58.3496C40.8597 58.4948 40.559 58.7053 40.308 58.9691L34.6854 64.6329L34.6854 34.6688C34.6657 33.9542 34.3701 33.2756 33.8614 32.7772C33.3527 32.2788 32.6711 32 31.9615 32C31.2519 32 30.5703 32.2788 30.0616 32.7772C29.5529 33.2756 29.2573 33.9542 29.2376 34.6688L29.2376 64.6351L23.6108 58.9691C23.0963 58.4722 22.409 58.1981 21.6963 58.2057C20.9835 58.2133 20.3021 58.5018 19.7981 59.0095C19.2941 59.5173 19.0077 60.2037 19.0001 60.9216C18.9926 61.6396 19.2647 62.332 19.758 62.8503L30.033 73.2008Z" fill="white"/>
</svg>
