<svg width="77" height="125" viewBox="0 0 77 125" fill="none" xmlns="http://www.w3.org/2000/svg">
<path fill-rule="evenodd" clip-rule="evenodd" d="M36.9537 32.2402C36.9537 31.448 37.5881 30.8143 38.4604 30.8143C39.2533 30.8143 39.8877 31.448 39.8877 32.2402V39.4487H49.4037C50.1967 39.4487 50.9104 40.0824 50.9104 40.9537C50.9104 41.7459 50.276 42.3796 49.4037 42.3796H39.8877V58.1432H47.2626C48.9279 58.1432 50.4346 58.8562 51.5448 59.8859C52.655 60.9949 53.2894 62.5 53.2894 64.1635V73.7484C53.2894 75.4119 52.5757 76.917 51.5448 78.026C50.4346 79.135 48.9279 79.7687 47.2626 79.7687H39.8877V86.9772C39.8877 87.7693 39.2533 88.4031 38.4604 88.4031C37.6674 88.4031 36.9537 87.7693 36.9537 86.9772V79.7687H24.9794C24.1864 79.7687 23.4727 79.135 23.4727 78.3428C23.4727 77.5507 24.1071 76.917 24.9794 76.917H36.9537V61.1534H29.5788C27.9135 61.1534 26.4068 60.4404 25.2966 59.4107C24.1864 58.3017 23.552 56.7966 23.552 55.1331V45.5482C23.552 43.8847 24.2657 42.3796 25.2966 41.2706C26.4068 40.1616 27.9135 39.5279 29.5788 39.5279H36.9537V32.2402ZM30.5304 115.336C29.7374 115.336 29.103 114.702 29.103 113.91C29.103 113.118 29.7374 112.484 30.5304 112.484H46.4696C47.2626 112.484 47.897 113.118 47.897 113.91C47.897 114.702 47.2626 115.336 46.4696 115.336H30.5304ZM8.72297 0.079207C6.26468 0.079207 4.12357 1.02978 2.53758 2.69328C0.951582 4.27756 0 6.49556 0 8.87199V116.207C0 118.584 0.951582 120.802 2.53758 122.386C4.12357 123.97 6.34398 125 8.72297 125H68.1977C70.656 125 72.7971 124.049 74.3831 122.386C75.9691 120.802 77 118.584 77 116.207V8.79277C77 6.41634 76.0484 4.19834 74.3831 2.61406C72.7971 1.02978 70.5767 0 68.1977 0H8.72297V0.079207ZM68.1977 3.01013H8.72297C7.13697 3.01013 5.63027 3.64385 4.59937 4.75285C3.56848 5.78264 2.85479 7.2877 2.85479 8.87199V116.207C2.85479 117.792 3.48918 119.297 4.59937 120.326C5.63027 121.356 7.13697 122.069 8.72297 122.069H68.1977C69.7837 122.069 71.2904 121.435 72.3213 120.326C73.3522 119.297 74.0659 117.792 74.0659 116.207V8.79277C74.0659 7.20849 73.4315 5.70342 72.3213 4.67363C71.2904 3.64385 69.7837 3.01013 68.1977 3.01013ZM8.80227 11.9613C8.00927 11.9613 7.37486 12.5951 7.37486 13.4664V105.83C7.37486 106.622 8.00927 107.256 8.80227 107.256H68.0391C68.8321 107.256 69.5458 106.622 69.5458 105.83V13.3872C69.5458 12.5951 68.9114 11.8821 68.0391 11.8821H8.80227V11.9613ZM66.6117 14.8923H10.309V104.325H66.6117V14.8923ZM39.8877 61.0742V76.8378H47.2626C48.1349 76.8378 48.8486 76.5209 49.483 75.9664C50.0381 75.4119 50.3553 74.6198 50.3553 73.7484V64.1635C50.3553 63.2921 50.0381 62.5792 49.483 62.0247C48.9279 61.4702 48.1349 61.1534 47.2626 61.1534H39.8877V61.0742ZM36.9537 58.1432V42.3796H29.5788C28.7065 42.3796 27.9928 42.6965 27.3584 43.251C26.8033 43.8055 26.4861 44.5976 26.4861 45.4689V55.0539C26.4861 55.9252 26.8033 56.6381 27.3584 57.2719C27.9135 57.8264 28.7065 58.1432 29.5788 58.1432H36.9537Z" fill="white"/>
</svg>
