<?xml version="1.0" encoding="UTF-8"?>
<svg id="Layer_1" data-name="Layer 1" xmlns="http://www.w3.org/2000/svg" xmlns:xlink="http://www.w3.org/1999/xlink" viewBox="0 0 1118 768">
  <defs>
    <style>
      .cls-1 {
        clip-path: url(#clippath);
      }

      .cls-2 {
        fill: none;
      }

      .cls-2, .cls-3, .cls-4, .cls-5, .cls-6, .cls-7, .cls-8, .cls-9, .cls-10 {
        stroke-width: 0px;
      }

      .cls-11 {
        clip-path: url(#clippath-1);
      }

      .cls-12 {
        clip-path: url(#clippath-4);
      }

      .cls-13 {
        clip-path: url(#clippath-3);
      }

      .cls-14 {
        clip-path: url(#clippath-2);
      }

      .cls-15 {
        clip-path: url(#clippath-7);
      }

      .cls-16 {
        clip-path: url(#clippath-8);
      }

      .cls-17 {
        clip-path: url(#clippath-6);
      }

      .cls-18 {
        clip-path: url(#clippath-5);
      }

      .cls-19 {
        clip-path: url(#clippath-9);
      }

      .cls-20 {
        clip-path: url(#clippath-20);
      }

      .cls-21 {
        clip-path: url(#clippath-21);
      }

      .cls-22 {
        clip-path: url(#clippath-24);
      }

      .cls-23 {
        clip-path: url(#clippath-23);
      }

      .cls-24 {
        clip-path: url(#clippath-22);
      }

      .cls-25 {
        clip-path: url(#clippath-14);
      }

      .cls-26 {
        clip-path: url(#clippath-13);
      }

      .cls-27 {
        clip-path: url(#clippath-12);
      }

      .cls-28 {
        clip-path: url(#clippath-10);
      }

      .cls-29 {
        clip-path: url(#clippath-15);
      }

      .cls-30 {
        clip-path: url(#clippath-17);
      }

      .cls-31 {
        clip-path: url(#clippath-16);
      }

      .cls-32 {
        clip-path: url(#clippath-19);
      }

      .cls-33 {
        clip-path: url(#clippath-11);
      }

      .cls-34 {
        clip-path: url(#clippath-18);
      }

      .cls-4 {
        fill: #5ab463;
      }

      .cls-5 {
        fill: #d56f3b;
      }

      .cls-6 {
        fill: #cf79d9;
      }

      .cls-7 {
        fill: #97ffff;
      }

      .cls-8 {
        fill: #fbbcb0;
      }

      .cls-9 {
        fill: #f3860f;
      }

      .cls-10 {
        fill: #fef10d;
      }
    </style>
    <clipPath id="clippath">
      <rect class="cls-2" x="35.86" y="40.17" width="1046.28" height="670.67"/>
    </clipPath>
    <clipPath id="clippath-1">
      <rect class="cls-2" x="35.86" y="40.17" width="1046.28" height="670.67"/>
    </clipPath>
    <clipPath id="clippath-2">
      <rect class="cls-2" x="35.86" y="40.17" width="1046.28" height="670.67"/>
    </clipPath>
    <clipPath id="clippath-3">
      <rect class="cls-2" x="35.86" y="40.17" width="1046.28" height="670.67"/>
    </clipPath>
    <clipPath id="clippath-4">
      <rect class="cls-2" x="35.86" y="40.17" width="1046.28" height="670.67"/>
    </clipPath>
    <clipPath id="clippath-5">
      <rect class="cls-2" x="35.86" y="40.17" width="1046.28" height="670.67"/>
    </clipPath>
    <clipPath id="clippath-6">
      <rect class="cls-2" x="35.86" y="40.17" width="1046.28" height="670.67"/>
    </clipPath>
    <clipPath id="clippath-7">
      <rect class="cls-2" x="35.86" y="40.17" width="1046.28" height="670.67"/>
    </clipPath>
    <clipPath id="clippath-8">
      <rect class="cls-2" x="35.86" y="40.17" width="1046.28" height="670.67"/>
    </clipPath>
    <clipPath id="clippath-9">
      <rect class="cls-2" x="35.86" y="40.17" width="1046.28" height="670.67"/>
    </clipPath>
    <clipPath id="clippath-10">
      <rect class="cls-2" x="35.86" y="40.17" width="1046.28" height="670.67"/>
    </clipPath>
    <clipPath id="clippath-11">
      <rect class="cls-2" x="35.86" y="40.17" width="1046.28" height="670.67"/>
    </clipPath>
    <clipPath id="clippath-12">
      <rect class="cls-2" x="35.86" y="40.17" width="1046.28" height="670.67"/>
    </clipPath>
    <clipPath id="clippath-13">
      <rect class="cls-2" x="35.86" y="40.17" width="1046.28" height="670.67"/>
    </clipPath>
    <clipPath id="clippath-14">
      <rect class="cls-2" x="35.86" y="40.17" width="1046.28" height="670.67"/>
    </clipPath>
    <clipPath id="clippath-15">
      <rect class="cls-2" x="35.86" y="40.17" width="1046.28" height="670.67"/>
    </clipPath>
    <clipPath id="clippath-16">
      <rect class="cls-2" x="35.86" y="40.17" width="1046.28" height="670.67"/>
    </clipPath>
    <clipPath id="clippath-17">
      <rect class="cls-2" x="35.86" y="40.17" width="1046.28" height="670.67"/>
    </clipPath>
    <clipPath id="clippath-18">
      <rect class="cls-2" x="35.86" y="40.17" width="1046.28" height="670.67"/>
    </clipPath>
    <clipPath id="clippath-19">
      <rect class="cls-2" x="35.86" y="40.17" width="1046.28" height="670.67"/>
    </clipPath>
    <clipPath id="clippath-20">
      <rect class="cls-2" x="35.86" y="40.17" width="1046.28" height="670.67"/>
    </clipPath>
    <clipPath id="clippath-21">
      <rect class="cls-2" x="35.86" y="40.17" width="1046.28" height="670.67"/>
    </clipPath>
    <clipPath id="clippath-22">
      <rect class="cls-2" x="35.86" y="40.17" width="1046.28" height="670.67"/>
    </clipPath>
    <clipPath id="clippath-23">
      <rect class="cls-2" x="35.86" y="40.17" width="1046.28" height="670.67"/>
    </clipPath>
    <clipPath id="clippath-24">
      <rect class="cls-2" x="35.86" y="40.17" width="1046.28" height="670.67"/>
    </clipPath>
  </defs>
  <g class="cls-1">
    <g>
      <path class="cls-5" d="m79.26,620.41v7.1l-8.26,6.13v2.69h8.26v5.78h-22.54v-9.75c0-1.33.08-2.48.23-3.44s.48-1.86.98-2.69c.5-.85,1.16-1.52,1.96-2.02.8-.5,1.81-.75,3.02-.75,1.67,0,3.02.39,4.07,1.16,1.05.77,1.92,1.88,2.62,3.31l9.66-7.52Zm-15.64,9.07c-.56,0-1.05.12-1.45.35-.4.23-.72.63-.95,1.2-.16.39-.26.85-.29,1.38-.04.52-.05,1.13-.05,1.83v2.1h6.07v-1.79c0-.93-.05-1.71-.14-2.33-.09-.63-.3-1.15-.62-1.57-.31-.4-.66-.7-1.04-.89-.38-.19-.88-.28-1.52-.28Z"/>
      <path class="cls-5" d="m71.77,601.43v12.47c1.33-.08,2.35-.59,3.06-1.52.71-.93,1.06-2.31,1.06-4.12,0-1.15-.21-2.26-.62-3.34s-.86-1.93-1.33-2.56v-.61h4.38c.49,1.23.85,2.39,1.07,3.48s.33,2.3.33,3.62c0,3.41-.77,6.02-2.3,7.84s-3.72,2.72-6.55,2.72-5.03-.86-6.67-2.58-2.46-4.08-2.46-7.08c0-2.77.7-4.84,2.1-6.24s3.41-2.09,6.03-2.09h1.91Zm-3.19,5.42c-1.14.03-2,.31-2.57.85s-.86,1.37-.86,2.5c0,1.05.27,1.91.82,2.59s1.42,1.05,2.62,1.13v-7.07Z"/>
      <path class="cls-5" d="m79.26,592.12v5.46h-23.55v-5.46h23.55Z"/>
      <path class="cls-5" d="m71.77,570.25v12.47c1.33-.08,2.35-.59,3.06-1.52.71-.93,1.06-2.31,1.06-4.12,0-1.15-.21-2.26-.62-3.34s-.86-1.93-1.33-2.56v-.61h4.38c.49,1.23.85,2.39,1.07,3.48s.33,2.3.33,3.62c0,3.41-.77,6.02-2.3,7.84s-3.72,2.72-6.55,2.72-5.03-.86-6.67-2.58-2.46-4.08-2.46-7.08c0-2.77.7-4.84,2.1-6.24s3.41-2.09,6.03-2.09h1.91Zm-3.19,5.42c-1.14.03-2,.31-2.57.85s-.86,1.37-.86,2.5c0,1.05.27,1.91.82,2.59s1.42,1.05,2.62,1.13v-7.07Z"/>
      <path class="cls-5" d="m62.26,549.29l17,6.55v6.18l-17,6.51v-5.75l11.7-3.95-11.7-3.89v-5.65Z"/>
      <path class="cls-5" d="m59.84,532.12v4l-3.32,2.8,3.32,2.79v3.94l-5.95-4.86v-3.8l5.95-4.86Zm17.62,3.84c.22.29.49.66.8,1.09.31.43.56.84.74,1.23.24.54.42,1.09.54,1.67.12.57.17,1.21.17,1.89,0,1.61-.5,2.97-1.5,4.06-1,1.09-2.28,1.63-3.83,1.63-1.24,0-2.25-.28-3.04-.83-.79-.55-1.41-1.34-1.86-2.36-.45-1.01-.78-2.26-.97-3.75-.19-1.49-.33-3.04-.42-4.65h-.09c-.94,0-1.59.38-1.95,1.15-.36.77-.54,1.9-.54,3.39,0,.9.16,1.86.48,2.88.32,1.02.56,1.75.73,2.19v.5h-4.1c-.15-.58-.33-1.51-.54-2.81-.21-1.3-.31-2.6-.31-3.9,0-3.1.48-5.34,1.43-6.71.95-1.38,2.45-2.07,4.49-2.07h11.56v5.4h-1.8Zm-2.65,0h-3.53c.06.74.14,1.53.25,2.39s.23,1.51.37,1.95c.17.54.42.96.75,1.25.33.29.76.43,1.29.43.35,0,.64-.03.86-.09.22-.06.43-.21.63-.45.2-.23.35-.51.45-.83.1-.32.14-.83.14-1.51,0-.54-.11-1.1-.33-1.66-.22-.56-.51-1.05-.88-1.48Z"/>
      <path class="cls-5" d="m79.26,508.48v5.46h-8.43c-.69,0-1.37.04-2.05.11-.68.07-1.18.19-1.51.36-.37.2-.65.5-.82.89s-.26.93-.26,1.63c0,.49.08,1,.24,1.51.16.51.42,1.06.77,1.66h12.05v5.46h-17v-5.46h1.88c-.76-.97-1.34-1.9-1.74-2.79-.4-.89-.61-1.88-.61-2.97,0-1.83.54-3.27,1.6-4.3s2.67-1.55,4.8-1.55h11.06Z"/>
      <path class="cls-5" d="m79.71,494.61c0,1.48-.18,2.84-.53,4.06-.35,1.23-.9,2.29-1.63,3.2-.74.9-1.66,1.59-2.79,2.09-1.12.49-2.43.74-3.94.74-1.58,0-2.95-.27-4.1-.79s-2.1-1.27-2.86-2.22c-.72-.92-1.24-1.98-1.57-3.18-.33-1.2-.5-2.45-.5-3.74,0-1.16.13-2.23.38-3.21.25-.98.58-1.89.98-2.74h4.65v.77c-.18.21-.39.46-.63.76s-.48.66-.71,1.1c-.22.41-.41.87-.55,1.36-.15.49-.22,1.07-.22,1.72,0,1.45.46,2.57,1.39,3.35.92.78,2.18,1.17,3.76,1.17s2.88-.4,3.72-1.2,1.27-1.94,1.27-3.41c0-.69-.08-1.3-.24-1.85-.16-.55-.34-1.01-.55-1.37-.2-.34-.41-.65-.64-.91-.22-.26-.44-.5-.65-.72v-.77h4.65c.4.86.72,1.75.96,2.69.24.93.36,1.96.36,3.09Z"/>
      <path class="cls-5" d="m59.84,479.61v5.77h-4.13v-5.77h4.13Zm19.42.15v5.46h-17v-5.46h17Z"/>
      <path class="cls-5" d="m77.46,464.34c.22.29.49.66.8,1.09.31.43.56.84.74,1.23.24.54.42,1.09.54,1.67.12.57.17,1.21.17,1.89,0,1.61-.5,2.97-1.5,4.06-1,1.09-2.28,1.63-3.83,1.63-1.24,0-2.25-.28-3.04-.83-.79-.55-1.41-1.34-1.86-2.36-.45-1.01-.78-2.26-.97-3.75-.19-1.49-.33-3.04-.42-4.65h-.09c-.94,0-1.59.38-1.95,1.15-.36.77-.54,1.9-.54,3.39,0,.9.16,1.86.48,2.88.32,1.02.56,1.75.73,2.19v.5h-4.1c-.15-.58-.33-1.51-.54-2.81-.21-1.3-.31-2.6-.31-3.9,0-3.1.48-5.34,1.43-6.71.95-1.38,2.45-2.07,4.49-2.07h11.56v5.4h-1.8Zm-2.65,0h-3.53c.06.74.14,1.53.25,2.39s.23,1.51.37,1.95c.17.54.42.96.75,1.25.33.29.76.43,1.29.43.35,0,.64-.03.86-.09.22-.06.43-.21.63-.45.2-.23.35-.51.45-.83.1-.32.14-.83.14-1.51,0-.54-.11-1.1-.33-1.66-.22-.56-.51-1.05-.88-1.48Z"/>
      <path class="cls-5" d="m70.52,425.59c1.4,0,2.68.21,3.83.64s2.1.99,2.85,1.69c.79.73,1.38,1.55,1.79,2.46.4.92.61,1.9.61,2.95,0,.97-.1,1.79-.31,2.46-.21.68-.5,1.37-.87,2.07h7.08v5.46h-23.23v-5.46h1.77c-.67-.84-1.21-1.69-1.62-2.56-.41-.87-.62-1.88-.62-3.02,0-2.12.78-3.76,2.33-4.94,1.55-1.17,3.69-1.76,6.4-1.76Zm.11,5.62c-1.65,0-2.85.28-3.6.85-.75.56-1.12,1.46-1.12,2.67,0,.51.08,1.04.24,1.58.16.54.38,1.06.67,1.56h8.54c.14-.36.23-.75.27-1.16.04-.41.06-.82.06-1.22,0-1.44-.42-2.51-1.26-3.22-.84-.71-2.11-1.06-3.8-1.06Z"/>
      <path class="cls-5" d="m77.46,411.36c.22.29.49.66.8,1.09.31.43.56.84.74,1.23.24.54.42,1.09.54,1.67.12.57.17,1.21.17,1.89,0,1.61-.5,2.97-1.5,4.06-1,1.09-2.28,1.63-3.83,1.63-1.24,0-2.25-.28-3.04-.83-.79-.55-1.41-1.34-1.86-2.36-.45-1.01-.78-2.26-.97-3.75-.19-1.49-.33-3.04-.42-4.65h-.09c-.94,0-1.59.38-1.95,1.15-.36.77-.54,1.9-.54,3.39,0,.9.16,1.86.48,2.88.32,1.02.56,1.75.73,2.19v.5h-4.1c-.15-.58-.33-1.51-.54-2.81-.21-1.3-.31-2.6-.31-3.9,0-3.1.48-5.34,1.43-6.71.95-1.38,2.45-2.07,4.49-2.07h11.56v5.4h-1.8Zm-2.65,0h-3.53c.06.74.14,1.53.25,2.39s.23,1.51.37,1.95c.17.54.42.96.75,1.25.33.29.76.43,1.29.43.35,0,.64-.03.86-.09.22-.06.43-.21.63-.45.2-.23.35-.51.45-.83.1-.32.14-.83.14-1.51,0-.54-.11-1.1-.33-1.66-.22-.56-.51-1.05-.88-1.48Z"/>
      <path class="cls-5" d="m67.45,388.62v.48c-.08.23-.14.6-.18,1.12s-.06.94-.06,1.28c0,.78.05,1.46.15,2.05.1.59.27,1.23.51,1.92h11.38v5.46h-17v-5.46h2.5c-1.03-1.2-1.71-2.24-2.05-3.13-.34-.89-.51-1.7-.51-2.45,0-.19,0-.41.01-.65,0-.24.03-.45.05-.63h5.19Z"/>
      <path class="cls-5" d="m77.46,375.55c.22.29.49.66.8,1.09.31.43.56.84.74,1.23.24.54.42,1.09.54,1.67.12.58.17,1.21.17,1.89,0,1.61-.5,2.97-1.5,4.06-1,1.09-2.28,1.63-3.83,1.63-1.24,0-2.25-.28-3.04-.83-.79-.55-1.41-1.34-1.86-2.36-.45-1.01-.78-2.26-.97-3.75-.19-1.49-.33-3.04-.42-4.65h-.09c-.94,0-1.59.38-1.95,1.15-.36.77-.54,1.9-.54,3.39,0,.9.16,1.86.48,2.88.32,1.02.56,1.75.73,2.19v.5h-4.1c-.15-.57-.33-1.51-.54-2.81-.21-1.3-.31-2.6-.31-3.9,0-3.1.48-5.34,1.43-6.71.95-1.38,2.45-2.07,4.49-2.07h11.56v5.4h-1.8Zm-2.65,0h-3.53c.06.74.14,1.53.25,2.39.11.86.23,1.51.37,1.95.17.54.42.96.75,1.25.33.29.76.43,1.29.43.35,0,.64-.03.86-.09.22-.06.43-.21.63-.45.2-.23.35-.51.45-.83.1-.32.14-.83.14-1.51,0-.54-.11-1.1-.33-1.66-.22-.56-.51-1.05-.88-1.48Z"/>
      <path class="cls-5" d="m70.77,337.17c2.8,0,5,.81,6.61,2.44,1.61,1.63,2.41,3.92,2.41,6.86s-.8,5.23-2.41,6.86c-1.61,1.63-3.81,2.44-6.61,2.44s-5.03-.82-6.63-2.46c-1.61-1.64-2.41-3.92-2.41-6.85s.81-5.26,2.42-6.88c1.61-1.62,3.82-2.43,6.61-2.43Zm4.13,6.71c-.43-.35-.96-.62-1.57-.79-.61-.18-1.46-.27-2.54-.27-1,0-1.84.09-2.51.27-.68.18-1.22.43-1.62.76-.41.32-.71.71-.88,1.17s-.26.94-.26,1.47.07.99.21,1.4c.14.41.42.8.85,1.17.39.33.93.6,1.62.79.69.2,1.55.3,2.59.3.93,0,1.73-.09,2.41-.26.68-.17,1.23-.42,1.64-.76.39-.32.68-.71.86-1.16.18-.45.27-.96.27-1.54,0-.49-.08-.97-.25-1.42-.17-.45-.45-.83-.84-1.14Z"/>
      <path class="cls-5" d="m73.87,318.77c1.76,0,3.17.79,4.25,2.36,1.07,1.57,1.61,3.73,1.61,6.46,0,1.51-.14,2.89-.42,4.12-.28,1.23-.59,2.22-.94,2.97h-4.48v-.5c.19-.27.4-.59.63-.95.23-.36.47-.86.73-1.52.23-.56.43-1.21.6-1.92.17-.72.25-1.48.25-2.3,0-1.07-.12-1.86-.36-2.38-.24-.51-.59-.77-1.05-.77-.41,0-.71.15-.9.45s-.37.88-.54,1.73c-.09.4-.19.95-.29,1.64-.11.69-.23,1.32-.39,1.88-.4,1.54-1.03,2.69-1.88,3.44-.85.75-1.92,1.12-3.19,1.12-1.63,0-2.99-.77-4.08-2.32-1.08-1.55-1.63-3.67-1.63-6.35,0-1.27.13-2.49.39-3.66.26-1.17.53-2.08.83-2.73h4.3v.47c-.55.81-1.01,1.73-1.35,2.76-.35,1.03-.52,2.08-.52,3.14,0,.88.12,1.62.36,2.22.24.6.58.9,1.03.9.4,0,.71-.14.92-.41.21-.27.42-.91.64-1.92.11-.55.22-1.15.33-1.79.11-.64.24-1.28.4-1.93.37-1.43.96-2.49,1.76-3.18.8-.69,1.8-1.03,3-1.03Z"/>
      <path class="cls-5" d="m79.73,299.67c0,1.45-.14,2.86-.41,4.22s-.59,2.41-.95,3.13l-4.48-1.05v-.5c.19-.22.4-.5.63-.84.23-.34.47-.82.73-1.45.23-.54.43-1.16.6-1.86.17-.71.25-1.47.25-2.29,0-1.22-.14-2.14-.42-2.75-.28-.61-.69-.92-1.21-.92-.4,0-.71.22-.92.65-.21.44-.47,1.33-.79,2.7-.54,2.31-1.18,3.9-1.94,4.75s-1.7,1.28-2.83,1.28c-1.92,0-3.43-.86-4.53-2.57-1.1-1.72-1.66-4.04-1.66-6.96,0-1.27.13-2.54.39-3.81.26-1.27.53-2.2.83-2.8l4.3,1v.47c-.55.72-1.01,1.58-1.35,2.6-.35,1.02-.52,2.06-.52,3.13,0,1.16.14,2.05.42,2.68.28.62.7.93,1.28.93.44,0,.79-.27,1.02-.8.24-.54.48-1.38.73-2.53.46-2.14,1.05-3.69,1.76-4.63.71-.94,1.7-1.42,2.97-1.42,1.9,0,3.39.87,4.49,2.6,1.09,1.74,1.64,4.08,1.64,7.04Z"/>
      <path class="cls-5" d="m79.59,281.3c0,1.89-.31,3.23-.93,4.04-.62.81-1.54,1.21-2.76,1.21-.32,0-.64-.02-.94-.08-.3-.05-.66-.12-1.06-.2l-8.05-1.86v2.25l-3.59-.83v-2.25l-4.86-1.12v-5.47l4.86,1.12v-5.1l3.59.83v5.1l6.13,1.42c.42.1.85.2,1.28.29.43.09.79.14,1.1.14.61,0,1.03-.17,1.26-.51.24-.34.36-.86.36-1.57,0-.28-.05-.65-.16-1.11-.11-.46-.22-.82-.36-1.1v-.45l3.65.85c.15.62.27,1.26.36,1.94.09.68.13,1.5.13,2.44Z"/>
      <path class="cls-5" d="m77.46,262.98c.22.34.49.76.81,1.24.31.48.56.93.75,1.35.23.57.41,1.1.53,1.59.12.5.18,1.18.18,2.06,0,1.41-.4,2.57-1.19,3.46-.79.89-1.83,1.34-3.1,1.34-1.34,0-2.48-.32-3.42-.95-.94-.64-1.68-1.58-2.24-2.83-.53-1.17-.9-2.56-1.14-4.18-.23-1.62-.4-3.37-.51-5.25-.06-.01-.16-.03-.3-.07-.14-.03-.29-.05-.46-.05-.72,0-1.22.33-1.51,1-.29.67-.43,1.66-.43,2.98,0,.9.15,1.89.46,2.97s.55,1.9.76,2.44v.5l-4.03-.8c-.16-.64-.34-1.62-.54-2.95-.2-1.33-.3-2.66-.3-3.98,0-2.66.35-4.62,1.04-5.87.7-1.25,1.78-1.87,3.24-1.87.2,0,.46.02.79.05.32.04.61.08.85.14l11.56,2.66v5.42l-1.8-.42Zm-6.22-1.45c.08.97.18,1.89.29,2.74.11.85.27,1.58.48,2.18.22.62.53,1.09.94,1.42.4.32.94.49,1.61.49.58,0,1-.22,1.23-.65s.36-1.06.36-1.88c0-.54-.12-1.11-.37-1.73-.25-.61-.56-1.19-.94-1.73l-3.59-.84Z"/>
      <path class="cls-5" d="m79.26,234.76v5.75l-7.5,3.36,2.13,2.4,5.37,1.25v5.48l-23.55-5.43v-5.48l14.06,3.24-7.51-7.62v-6.28l7.4,7.88,9.6-4.55Z"/>
      <path class="cls-5" d="m79.73,222.61c0,2.9-.64,5.14-1.92,6.71-1.28,1.58-3.05,2.36-5.32,2.36-1.54,0-2.96-.26-4.26-.77s-2.43-1.26-3.41-2.23c-.95-.93-1.7-2.09-2.26-3.48-.55-1.39-.83-2.92-.83-4.59,0-2.54.51-4.45,1.54-5.73,1.03-1.29,2.54-1.93,4.54-1.93.69,0,1.36.07,2.02.2.66.14,1.31.32,1.96.54v12.65h.35c1.18,0,2.1-.41,2.77-1.24s1-2.1,1-3.81c0-1.19-.2-2.32-.61-3.39s-.85-2-1.35-2.78v-.61l4.37,1.02c.46,1.06.82,2.18,1.05,3.35.24,1.17.36,2.42.36,3.74Zm-11.14-4.17c-.18-.03-.35-.05-.5-.07s-.31-.02-.47-.02c-.8,0-1.41.25-1.84.74-.43.5-.64,1.21-.64,2.14,0,1.12.3,2.07.91,2.83.61.77,1.45,1.34,2.54,1.74v-7.37Z"/>
      <path class="cls-5" d="m66.1,191.69c.24,0,.56.02.94.06.38.04.77.11,1.15.2l11.06,2.55v5.52l-8.43-1.95c-.65-.14-1.19-.25-1.63-.33s-.84-.12-1.2-.12c-.68,0-1.16.17-1.46.51-.3.34-.45.95-.45,1.84,0,.43.09.93.28,1.5.19.57.47,1.2.84,1.89l12.05,2.78v5.48l-23.55-5.43v-5.48l8.43,1.94c-.74-1.11-1.31-2.13-1.73-3.06-.41-.93-.62-1.95-.62-3.06,0-1.54.38-2.74,1.13-3.57s1.81-1.26,3.19-1.26Z"/>
      <path class="cls-5" d="m68.48,169.93c1.59,0,3.09.27,4.48.8,1.39.54,2.59,1.29,3.59,2.26,1.04,1.01,1.84,2.18,2.4,3.51.56,1.33.84,2.89.84,4.66,0,2.53-.61,4.48-1.82,5.83-1.21,1.35-2.89,2.03-5.03,2.03-1.51,0-2.95-.25-4.31-.76-1.36-.5-2.56-1.25-3.6-2.24-1.02-.96-1.82-2.14-2.41-3.53-.59-1.4-.89-2.96-.89-4.7,0-2.54.6-4.49,1.79-5.83,1.2-1.35,2.85-2.02,4.96-2.02Zm5.57,7.08c-.71-.46-1.48-.81-2.32-1.05-.84-.24-1.86-.36-3.06-.36-1.04,0-1.84.23-2.4.68-.56.45-.84,1.18-.84,2.16,0,.77.19,1.44.56,2.02.37.58.9,1.09,1.59,1.54.63.41,1.42.74,2.36.98.94.24,1.9.36,2.89.36,1.16,0,1.99-.26,2.49-.77.5-.51.75-1.22.75-2.12,0-.66-.18-1.29-.54-1.89s-.86-1.12-1.49-1.54Z"/>
      <path class="cls-5" d="m55.71,157.35l23.55,5.44v5.48l-23.55-5.44v-5.48Z"/>
      <path class="cls-5" d="m55.71,135.67l23.55,5.44v5.48l-1.77-.41c.33.52.63.99.9,1.39.27.4.51.84.73,1.32.2.45.35.9.46,1.34.1.44.15.97.15,1.58,0,1.64-.53,2.96-1.6,3.94-1.07.98-2.59,1.48-4.56,1.48-1.61,0-3.13-.26-4.55-.78-1.42-.52-2.67-1.23-3.76-2.14-1.06-.89-1.9-1.94-2.53-3.15-.63-1.21-.94-2.48-.94-3.8,0-.93.09-1.74.28-2.42.19-.69.48-1.39.87-2.12l-7.24-1.67v-5.48Zm10.53,7.92c-.14.29-.27.68-.38,1.15-.12.47-.17.89-.17,1.26,0,.87.19,1.65.58,2.35.38.7.91,1.29,1.57,1.77.59.43,1.35.78,2.27,1.03.92.25,1.81.38,2.67.38,1.02,0,1.76-.24,2.22-.71.46-.47.7-1.19.7-2.16,0-.49-.11-1.02-.33-1.56-.22-.55-.48-1.07-.79-1.56l-8.33-1.93Z"/>
      <path class="cls-5" d="m79.73,126.42c0,2.9-.64,5.14-1.92,6.71-1.28,1.58-3.05,2.36-5.32,2.36-1.54,0-2.96-.26-4.26-.77s-2.43-1.26-3.41-2.23c-.95-.93-1.7-2.09-2.26-3.48-.55-1.39-.83-2.92-.83-4.59,0-2.54.51-4.45,1.54-5.73,1.03-1.29,2.54-1.93,4.54-1.93.69,0,1.36.07,2.02.2.66.14,1.31.32,1.96.54v12.65h.35c1.18,0,2.1-.41,2.77-1.24s1-2.1,1-3.81c0-1.19-.2-2.32-.61-3.39s-.85-2-1.35-2.78v-.61l4.37,1.02c.46,1.06.82,2.18,1.05,3.35.24,1.17.36,2.42.36,3.74Zm-11.14-4.17c-.18-.03-.35-.05-.5-.07s-.31-.02-.47-.02c-.8,0-1.41.25-1.84.74-.43.5-.64,1.21-.64,2.14,0,1.12.3,2.07.91,2.83.61.77,1.45,1.34,2.54,1.74v-7.37Z"/>
      <path class="cls-5" d="m67.45,100.34v.48c-.08.24-.14.58-.18,1.03-.04.44-.06.88-.06,1.31,0,.72.05,1.41.16,2.07.11.67.27,1.35.51,2.06l11.38,2.64v5.49l-17-3.94v-5.49l2.5.58c-.76-1.03-1.37-2.05-1.85-3.08-.47-1.02-.71-2.05-.71-3.09,0-.19,0-.41.01-.64s.03-.45.05-.63l5.19,1.21Z"/>
      <path class="cls-5" d="m79.73,93.46c0,1.45-.14,2.86-.41,4.22s-.59,2.41-.95,3.13l-4.48-1.05v-.5c.19-.22.4-.5.63-.84.23-.34.47-.82.73-1.45.23-.54.43-1.16.6-1.86.17-.71.25-1.47.25-2.29,0-1.22-.14-2.14-.42-2.75-.28-.61-.69-.92-1.21-.92-.4,0-.71.22-.92.65-.21.44-.47,1.33-.79,2.7-.54,2.31-1.18,3.9-1.94,4.75s-1.7,1.28-2.83,1.28c-1.92,0-3.43-.86-4.53-2.57-1.1-1.72-1.66-4.04-1.66-6.96,0-1.27.13-2.54.39-3.81.26-1.27.53-2.2.83-2.8l4.3,1v.47c-.55.72-1.01,1.58-1.35,2.6-.35,1.02-.52,2.06-.52,3.13,0,1.16.14,2.05.42,2.68.28.62.7.93,1.28.93.44,0,.79-.27,1.02-.8.24-.54.48-1.38.73-2.53.46-2.14,1.05-3.69,1.76-4.63.71-.94,1.7-1.42,2.97-1.42,1.9,0,3.39.87,4.49,2.6,1.09,1.74,1.64,4.08,1.64,7.04Z"/>
    </g>
    <g>
      <path class="cls-5" d="m111.9,693.92h-13.2v-4h3.69v-14.55h-3.69v-4h13.2v4h-3.69v14.55h3.69v4Z"/>
      <path class="cls-5" d="m132.94,681.87v12.05h-5.46v-8.49c0-.83-.02-1.53-.06-2.11-.04-.58-.15-1.05-.33-1.42s-.46-.63-.83-.79c-.37-.17-.89-.25-1.55-.25-.54,0-1.05.11-1.56.33-.5.22-.96.45-1.36.69v12.05h-5.46v-17h5.46v1.88c.94-.74,1.83-1.31,2.69-1.73.86-.41,1.8-.62,2.84-.62,1.12,0,2.11.25,2.96.75.86.5,1.53,1.23,2.01,2.2,1.09-.92,2.15-1.64,3.17-2.17s2.04-.79,3.02-.79c1.83,0,3.23.55,4.18,1.65.95,1.1,1.43,2.68,1.43,4.75v11.06h-5.46v-8.49c0-.84-.02-1.54-.05-2.12-.04-.57-.14-1.04-.33-1.41-.17-.36-.44-.63-.82-.79-.37-.17-.9-.25-1.57-.25-.45,0-.9.08-1.33.23-.43.16-.96.42-1.59.78Z"/>
      <path class="cls-5" d="m166.88,685.18c0,1.4-.21,2.68-.64,3.83s-.99,2.1-1.69,2.85c-.73.79-1.55,1.38-2.46,1.79-.92.4-1.9.61-2.95.61-.97,0-1.79-.1-2.46-.31-.68-.21-1.37-.5-2.07-.87v7.08h-5.46v-23.23h5.46v1.77c.84-.67,1.69-1.21,2.56-1.62.87-.41,1.88-.62,3.02-.62,2.12,0,3.76.78,4.94,2.33,1.17,1.55,1.76,3.69,1.76,6.4Zm-5.62.11c0-1.65-.28-2.85-.85-3.6-.56-.75-1.46-1.12-2.67-1.12-.51,0-1.04.08-1.59.24-.54.16-1.06.38-1.56.67v8.54c.36.14.75.23,1.16.27.41.04.82.06,1.22.06,1.44,0,2.51-.42,3.22-1.26.7-.84,1.06-2.11,1.06-3.8Z"/>
      <path class="cls-5" d="m181.1,692.11c-.29.22-.66.49-1.09.8-.43.31-.84.56-1.23.74-.54.24-1.09.42-1.67.54-.58.12-1.21.17-1.89.17-1.61,0-2.97-.5-4.06-1.5-1.09-1-1.63-2.28-1.63-3.83,0-1.24.28-2.25.83-3.04.55-.79,1.34-1.41,2.36-1.86,1.01-.45,2.26-.78,3.75-.97,1.49-.19,3.04-.33,4.65-.42v-.09c0-.94-.38-1.59-1.15-1.95-.77-.36-1.9-.54-3.39-.54-.9,0-1.86.16-2.88.48-1.02.32-1.75.56-2.19.73h-.5v-4.1c.58-.15,1.51-.33,2.81-.54,1.3-.21,2.6-.31,3.9-.31,3.1,0,5.34.48,6.71,1.43,1.38.95,2.07,2.45,2.07,4.49v11.56h-5.4v-1.8Zm0-2.65v-3.53c-.74.06-1.53.14-2.39.25-.86.11-1.51.23-1.95.37-.54.17-.96.42-1.25.75-.29.33-.43.76-.43,1.29,0,.35.03.64.09.86.06.22.21.43.45.63.23.2.51.35.83.45.32.1.83.14,1.51.14.54,0,1.1-.11,1.66-.33.56-.22,1.05-.51,1.48-.88Z"/>
      <path class="cls-5" d="m200.37,694.37c-1.48,0-2.84-.18-4.06-.53-1.23-.35-2.29-.9-3.2-1.63-.9-.74-1.59-1.66-2.09-2.79-.49-1.12-.74-2.43-.74-3.94,0-1.58.26-2.95.79-4.1.53-1.15,1.27-2.1,2.22-2.86.92-.72,1.98-1.24,3.18-1.57,1.2-.33,2.45-.5,3.74-.5,1.16,0,2.23.13,3.21.38.98.25,1.89.58,2.74.98v4.65h-.77c-.21-.18-.47-.39-.76-.63s-.66-.48-1.1-.71c-.41-.22-.87-.41-1.36-.55-.49-.15-1.07-.22-1.72-.22-1.45,0-2.57.46-3.35,1.39-.78.92-1.17,2.18-1.17,3.76s.4,2.88,1.2,3.72c.8.85,1.94,1.27,3.41,1.27.69,0,1.3-.08,1.85-.24.55-.16,1-.34,1.37-.55.34-.2.65-.41.91-.64.26-.22.5-.44.73-.65h.77v4.65c-.86.4-1.75.72-2.69.96-.93.24-1.97.36-3.1.36Z"/>
      <path class="cls-5" d="m220.63,693.77c-.59.15-1.21.27-1.86.35-.66.08-1.46.13-2.41.13-2.12,0-3.7-.43-4.73-1.29-1.03-.86-1.55-2.33-1.55-4.41v-7.95h-2.24v-3.69h2.24v-4.86h5.46v4.86h5.09v3.69h-5.09v6.03c0,.6,0,1.12.02,1.56,0,.44.09.84.24,1.2.14.35.39.63.75.84.36.21.88.31,1.56.31.28,0,.65-.06,1.11-.18.46-.12.78-.23.96-.33h.45v3.73Z"/>
      <path class="cls-5" d="m241.26,685.42c0,2.8-.81,5-2.44,6.61-1.63,1.61-3.92,2.41-6.86,2.41s-5.23-.8-6.86-2.41c-1.63-1.61-2.44-3.81-2.44-6.61s.82-5.03,2.46-6.63c1.64-1.61,3.92-2.41,6.85-2.41s5.26.81,6.88,2.42c1.62,1.61,2.43,3.82,2.43,6.61Zm-6.71,4.13c.35-.43.62-.96.79-1.57.18-.61.27-1.46.27-2.54,0-1-.09-1.84-.27-2.51-.18-.68-.43-1.22-.76-1.62-.32-.41-.71-.71-1.17-.88s-.94-.26-1.47-.26-.99.07-1.4.21c-.41.14-.8.42-1.17.85-.33.39-.6.93-.79,1.62-.2.69-.3,1.55-.3,2.59,0,.93.09,1.73.26,2.41.17.68.42,1.23.76,1.64.32.39.71.68,1.16.86.45.18.96.27,1.54.27.49,0,.97-.08,1.42-.25.45-.17.83-.45,1.14-.84Z"/>
      <path class="cls-5" d="m272.83,693.92h-5.46v-8.43c0-.69-.04-1.37-.11-2.05-.07-.68-.19-1.18-.36-1.51-.2-.37-.5-.65-.89-.82-.39-.17-.93-.26-1.63-.26-.49,0-1,.08-1.51.24-.51.16-1.06.42-1.66.77v12.05h-5.46v-17h5.46v1.88c.97-.76,1.9-1.34,2.79-1.74.89-.4,1.88-.61,2.97-.61,1.83,0,3.27.54,4.3,1.6,1.03,1.07,1.55,2.67,1.55,4.8v11.06Z"/>
      <path class="cls-5" d="m295.22,685.42c0,2.8-.81,5-2.44,6.61-1.63,1.61-3.92,2.41-6.86,2.41s-5.23-.8-6.86-2.41c-1.63-1.61-2.44-3.81-2.44-6.61s.82-5.03,2.46-6.63c1.64-1.61,3.92-2.41,6.85-2.41s5.26.81,6.88,2.42c1.62,1.61,2.43,3.82,2.43,6.61Zm-6.71,4.13c.35-.43.62-.96.79-1.57.18-.61.27-1.46.27-2.54,0-1-.09-1.84-.27-2.51-.18-.68-.43-1.22-.76-1.62-.32-.41-.71-.71-1.17-.88s-.94-.26-1.47-.26-.99.07-1.4.21c-.41.14-.8.42-1.17.85-.33.39-.6.93-.79,1.62-.2.69-.3,1.55-.3,2.59,0,.93.09,1.73.26,2.41.17.68.42,1.23.76,1.64.32.39.71.68,1.16.86.45.18.96.27,1.54.27.49,0,.97-.08,1.42-.25.45-.17.83-.45,1.14-.84Z"/>
      <path class="cls-5" d="m326.79,693.92h-5.46v-8.43c0-.69-.04-1.37-.11-2.05-.07-.68-.19-1.18-.36-1.51-.2-.37-.5-.65-.89-.82-.39-.17-.93-.26-1.63-.26-.49,0-1,.08-1.51.24-.51.16-1.06.42-1.66.77v12.05h-5.46v-17h5.46v1.88c.97-.76,1.9-1.34,2.79-1.74.89-.4,1.88-.61,2.97-.61,1.83,0,3.27.54,4.3,1.6,1.03,1.07,1.55,2.67,1.55,4.8v11.06Z"/>
      <path class="cls-5" d="m348.55,686.42h-12.47c.08,1.33.59,2.35,1.52,3.06.93.71,2.31,1.06,4.12,1.06,1.15,0,2.27-.21,3.35-.62,1.08-.41,1.93-.86,2.56-1.33h.61v4.38c-1.23.49-2.39.85-3.48,1.07s-2.3.33-3.62.33c-3.41,0-6.02-.77-7.84-2.3s-2.72-3.72-2.72-6.55.86-5.03,2.58-6.67c1.72-1.64,4.08-2.46,7.08-2.46,2.76,0,4.84.7,6.24,2.1s2.09,3.41,2.09,6.03v1.91Zm-5.42-3.19c-.03-1.14-.31-2-.85-2.57-.54-.58-1.37-.86-2.5-.86-1.05,0-1.91.27-2.59.82-.68.54-1.05,1.42-1.14,2.62h7.07Z"/>
      <path class="cls-5" d="m369.2,691.96c0,1.59-.23,2.94-.68,4.03s-1.09,1.94-1.91,2.56c-.82.63-1.8,1.08-2.96,1.35-1.16.28-2.46.42-3.91.42-1.18,0-2.34-.07-3.49-.21-1.15-.14-2.14-.31-2.97-.52v-4.25h.67c.67.26,1.48.5,2.43.72.96.22,1.81.33,2.57.33,1.01,0,1.83-.09,2.46-.28.63-.19,1.11-.45,1.44-.79.31-.32.54-.74.68-1.24.14-.5.21-1.11.21-1.82v-.32c-.66.53-1.38.96-2.18,1.27-.8.31-1.68.47-2.66.47-2.38,0-4.21-.72-5.5-2.15s-1.94-3.61-1.94-6.54c0-1.4.2-2.61.59-3.63s.95-1.91,1.66-2.66c.67-.71,1.48-1.26,2.46-1.65.97-.39,1.97-.59,2.99-.59.92,0,1.75.11,2.5.33.75.22,1.43.52,2.05.9l.2-.76h5.3v15.04Zm-5.46-3.41v-7.7c-.31-.13-.69-.24-1.15-.31-.45-.08-.86-.11-1.22-.11-1.43,0-2.5.41-3.22,1.23-.71.82-1.07,1.97-1.07,3.44,0,1.63.3,2.78.91,3.42.61.65,1.51.97,2.71.97.54,0,1.08-.09,1.6-.26.52-.17,1-.4,1.44-.68Z"/>
      <path class="cls-5" d="m391.72,685.42c0,2.8-.81,5-2.44,6.61-1.63,1.61-3.92,2.41-6.86,2.41s-5.23-.8-6.86-2.41c-1.63-1.61-2.44-3.81-2.44-6.61s.82-5.03,2.46-6.63c1.64-1.61,3.92-2.41,6.85-2.41s5.26.81,6.88,2.42c1.62,1.61,2.43,3.82,2.43,6.61Zm-3.95-16.88v.3l-5.33,5.65h-3.72l3.74-5.95h5.31Zm-2.75,21.01c.35-.43.62-.96.79-1.57.18-.61.27-1.46.27-2.54,0-1-.09-1.84-.27-2.51-.18-.68-.43-1.22-.76-1.62-.32-.41-.71-.71-1.17-.88s-.94-.26-1.47-.26-.99.07-1.4.21c-.41.14-.8.42-1.17.85-.33.39-.6.93-.79,1.62-.2.69-.3,1.55-.3,2.59,0,.93.09,1.73.26,2.41.17.68.42,1.23.76,1.64.32.39.71.68,1.16.86.45.18.96.27,1.54.27.49,0,.97-.08,1.42-.25.45-.17.83-.45,1.14-.84Z"/>
      <path class="cls-5" d="m404.48,694.37c-1.48,0-2.84-.18-4.06-.53-1.23-.35-2.29-.9-3.2-1.63-.9-.74-1.59-1.66-2.09-2.79-.49-1.12-.74-2.43-.74-3.94,0-1.58.26-2.95.79-4.1.53-1.15,1.27-2.1,2.22-2.86.92-.72,1.98-1.24,3.18-1.57,1.2-.33,2.45-.5,3.74-.5,1.16,0,2.23.13,3.21.38.98.25,1.89.58,2.74.98v4.65h-.77c-.21-.18-.47-.39-.76-.63s-.66-.48-1.1-.71c-.41-.22-.87-.41-1.36-.55-.49-.15-1.07-.22-1.72-.22-1.45,0-2.57.46-3.35,1.39-.78.92-1.17,2.18-1.17,3.76s.4,2.88,1.2,3.72c.8.85,1.94,1.27,3.41,1.27.69,0,1.3-.08,1.85-.24.55-.16,1-.34,1.37-.55.34-.2.65-.41.91-.64.26-.22.5-.44.73-.65h.77v4.65c-.86.4-1.75.72-2.69.96-.93.24-1.97.36-3.1.36Z"/>
      <path class="cls-5" d="m419.48,674.5h-5.77v-4.13h5.77v4.13Zm-.15,19.42h-5.46v-17h5.46v17Z"/>
      <path class="cls-5" d="m441.84,685.42c0,2.8-.81,5-2.44,6.61-1.63,1.61-3.92,2.41-6.86,2.41s-5.23-.8-6.86-2.41c-1.63-1.61-2.44-3.81-2.44-6.61s.82-5.03,2.46-6.63c1.64-1.61,3.92-2.41,6.85-2.41s5.26.81,6.88,2.42c1.62,1.61,2.43,3.82,2.43,6.61Zm-6.71,4.13c.35-.43.62-.96.79-1.57.18-.61.27-1.46.27-2.54,0-1-.09-1.84-.27-2.51-.18-.68-.43-1.22-.76-1.62-.32-.41-.71-.71-1.17-.88s-.94-.26-1.47-.26-.99.07-1.4.21c-.41.14-.8.42-1.17.85-.33.39-.6.93-.79,1.62-.2.69-.3,1.55-.3,2.59,0,.93.09,1.73.26,2.41.17.68.42,1.23.76,1.64.32.39.71.68,1.16.86.45.18.96.27,1.54.27.49,0,.97-.08,1.42-.25.45-.17.83-.45,1.14-.84Z"/>
      <path class="cls-5" d="m472.87,693.92h-5.46v-1.77c-.94.77-1.81,1.33-2.63,1.7s-1.76.54-2.83.54c-2.07,0-3.72-.8-4.96-2.39-1.24-1.59-1.86-3.74-1.86-6.45,0-1.44.21-2.72.63-3.84.42-1.11.99-2.07,1.72-2.87.69-.76,1.52-1.34,2.49-1.76.98-.42,1.96-.63,2.93-.63s1.85.11,2.5.33c.65.22,1.32.49,2,.83v-7.24h5.46v23.55Zm-5.46-4.68v-8.35c-.38-.16-.79-.28-1.21-.35-.42-.07-.81-.11-1.16-.11-1.43,0-2.5.45-3.22,1.34-.71.89-1.07,2.14-1.07,3.72,0,1.67.29,2.88.86,3.63.57.75,1.5,1.13,2.76,1.13.49,0,1.02-.09,1.57-.28.55-.19,1.04-.43,1.46-.74Z"/>
      <path class="cls-5" d="m495.39,685.42c0,2.8-.81,5-2.44,6.61-1.63,1.61-3.92,2.41-6.86,2.41s-5.23-.8-6.86-2.41c-1.63-1.61-2.44-3.81-2.44-6.61s.82-5.03,2.46-6.63c1.64-1.61,3.92-2.41,6.85-2.41s5.26.81,6.88,2.42c1.62,1.61,2.43,3.82,2.43,6.61Zm-6.71,4.13c.35-.43.62-.96.79-1.57.18-.61.27-1.46.27-2.54,0-1-.09-1.84-.27-2.51-.18-.68-.43-1.22-.76-1.62-.32-.41-.71-.71-1.17-.88s-.94-.26-1.47-.26-.99.07-1.4.21c-.41.14-.8.42-1.17.85-.33.39-.6.93-.79,1.62-.2.69-.3,1.55-.3,2.59,0,.93.09,1.73.26,2.41.17.68.42,1.23.76,1.64.32.39.71.68,1.16.86.45.18.96.27,1.54.27.49,0,.97-.08,1.42-.25.45-.17.83-.45,1.14-.84Z"/>
      <path class="cls-5" d="m529.48,687.01c0,1.09-.22,2.06-.66,2.92-.44.86-1.04,1.57-1.81,2.13-.89.67-1.86,1.14-2.93,1.42-1.06.28-2.41.42-4.05.42h-9.84v-22.54h8.75c1.82,0,3.15.06,3.99.18.84.12,1.68.39,2.51.8.86.43,1.5,1.02,1.91,1.75.42.73.63,1.57.63,2.51,0,1.09-.29,2.05-.86,2.88-.58.83-1.39,1.48-2.44,1.95v.12c1.47.29,2.64.9,3.5,1.82.86.92,1.29,2.13,1.29,3.63Zm-7.45-9.26c0-.37-.09-.75-.28-1.12-.19-.37-.52-.65-.99-.83-.42-.16-.95-.25-1.58-.26-.63-.01-1.52-.02-2.66-.02h-.54v4.77h.91c.92,0,1.7-.01,2.35-.04.65-.03,1.16-.13,1.53-.3.52-.23.87-.53,1.03-.9.16-.37.24-.79.24-1.28Zm1.41,9.17c0-.72-.14-1.27-.42-1.66s-.75-.68-1.41-.87c-.45-.13-1.08-.2-1.87-.21-.8-.01-1.63-.02-2.49-.02h-1.27v5.62h.42c1.63,0,2.8,0,3.5-.01.7,0,1.35-.14,1.95-.39.6-.25,1.02-.59,1.25-1.01.23-.42.34-.9.34-1.45Z"/>
      <path class="cls-5" d="m549.96,675.74h-10.37v4.19h9.61v4.36h-9.61v9.63h-5.78v-22.54h16.15v4.36Z"/>
      <path class="cls-5" d="m572.63,693.92h-6l-1.57-4.56h-8.34l-1.57,4.56h-5.86l8.33-22.54h6.69l8.33,22.54Zm-8.97-8.69l-2.77-8.07-2.77,8.07h5.55Z"/>
    </g>
  </g>
  <g>
    <path class="cls-5" d="m114.25,85.88h-4.88v-.92h1.88v-6.04h-1.88v-.82c.25,0,.53-.02.82-.06.29-.04.51-.1.66-.18.19-.1.33-.23.44-.38s.17-.36.18-.63h.94v8.13h1.84v.92Z"/>
    <path class="cls-5" d="m122.64,81.37c0,1.62-.25,2.81-.76,3.56-.51.76-1.29,1.14-2.36,1.14s-1.87-.38-2.37-1.15c-.5-.77-.75-1.95-.75-3.54s.25-2.79.76-3.55c.5-.76,1.29-1.15,2.36-1.15s1.87.39,2.37,1.17c.5.78.75,1.95.75,3.52Zm-1.59,2.75c.14-.33.24-.71.29-1.15.05-.44.08-.97.08-1.6s-.03-1.15-.08-1.6c-.05-.45-.15-.84-.29-1.15-.14-.31-.33-.54-.58-.7s-.56-.24-.94-.24-.69.08-.94.24c-.25.16-.45.4-.59.71-.14.3-.23.69-.28,1.17-.05.48-.08,1.01-.08,1.58,0,.63.02,1.16.07,1.58s.14.8.28,1.14c.13.31.32.56.57.72.24.17.57.25.97.25.38,0,.69-.08.94-.24.25-.16.44-.4.58-.71Z"/>
  </g>
  <path class="cls-5" d="m122.02,133.04c0,.79-.09,1.5-.27,2.14s-.45,1.19-.81,1.64c-.37.46-.83.82-1.38,1.07-.55.25-1.2.38-1.95.38-.21,0-.41-.01-.59-.03-.19-.02-.35-.06-.5-.11v-1.16h.06c.12.06.28.12.5.17.21.05.45.08.71.08.89,0,1.59-.27,2.1-.8.51-.53.8-1.27.88-2.21-.38.23-.73.39-1.06.48-.33.1-.69.15-1.08.15-.37,0-.71-.04-1.01-.11s-.6-.21-.91-.42c-.36-.25-.62-.56-.8-.94s-.27-.83-.27-1.36c0-.92.3-1.67.91-2.25s1.34-.87,2.22-.87c.44,0,.84.07,1.21.2.37.14.7.34.97.61.34.33.61.77.79,1.29.19.53.28,1.21.28,2.04Zm-1.22-.26c0-.63-.06-1.13-.19-1.51-.13-.38-.31-.67-.53-.88-.19-.18-.39-.31-.61-.39-.22-.08-.45-.12-.71-.12-.58,0-1.04.18-1.38.54-.34.36-.51.87-.51,1.53,0,.38.05.7.16.94s.29.45.55.64c.18.12.38.21.6.25.22.04.46.06.73.06.31,0,.63-.04.96-.13.32-.08.63-.21.91-.37,0-.08,0-.17.02-.25,0-.08,0-.19,0-.32Z"/>
  <path class="cls-5" d="m122.1,187.78c0,.78-.3,1.43-.91,1.94-.61.52-1.37.78-2.29.78-.98,0-1.75-.25-2.33-.76-.58-.5-.87-1.15-.87-1.94,0-.5.15-.95.44-1.36.29-.41.7-.73,1.23-.97v-.04c-.48-.26-.84-.54-1.07-.85-.23-.31-.35-.69-.35-1.15,0-.68.28-1.24.84-1.7s1.27-.68,2.12-.68,1.62.22,2.16.65c.54.43.81.98.81,1.65,0,.41-.13.81-.38,1.2s-.63.7-1.12.92v.04c.56.24,1,.54,1.3.9.3.36.45.81.45,1.36Zm-1.25.12c0-.37-.08-.67-.25-.89-.16-.22-.48-.45-.96-.68-.19-.09-.4-.17-.62-.25s-.53-.18-.9-.32c-.36.2-.65.47-.88.81-.22.34-.33.72-.33,1.15,0,.54.19.99.56,1.35.38.35.85.53,1.43.53s1.06-.15,1.41-.45c.35-.3.53-.72.53-1.25Zm-.19-4.52c0-.43-.17-.78-.5-1.03s-.76-.38-1.27-.38-.93.12-1.25.36c-.32.24-.49.57-.49.98,0,.29.08.54.25.75.16.21.41.4.74.57.15.07.36.17.65.28.28.12.55.21.82.29.4-.27.68-.54.83-.83s.23-.62.23-.99Z"/>
  <path class="cls-5" d="m122.06,234.84l-4.08,7.67h-1.3l4.34-7.96h-5.13v-1.06h6.17v1.35Z"/>
  <path class="cls-5" d="m122.16,291.78c0,.92-.3,1.66-.9,2.24-.6.58-1.34.87-2.22.87-.44,0-.85-.07-1.21-.21s-.68-.34-.96-.61c-.35-.33-.61-.78-.8-1.33-.19-.55-.28-1.22-.28-2s.09-1.51.26-2.12c.17-.62.44-1.17.82-1.65.35-.46.81-.81,1.37-1.07s1.21-.38,1.96-.38c.24,0,.44.01.6.03.16.02.32.06.49.11v1.16h-.06c-.11-.06-.28-.12-.51-.17-.23-.05-.46-.08-.7-.08-.87,0-1.56.27-2.08.81s-.82,1.28-.9,2.2c.34-.21.67-.36,1-.47.33-.11.71-.16,1.14-.16.38,0,.72.04,1.01.11.29.07.59.21.9.43.35.25.62.56.8.93.18.38.27.83.27,1.37Zm-1.23.05c0-.38-.06-.69-.17-.93-.11-.25-.29-.46-.55-.64-.19-.13-.39-.21-.62-.25-.23-.04-.46-.06-.71-.06-.34,0-.66.04-.96.12-.29.08-.6.21-.91.38,0,.09-.01.17-.02.26,0,.08,0,.19,0,.31,0,.64.07,1.14.2,1.51.13.37.31.66.54.88.19.18.39.31.6.39.22.08.45.12.71.12.58,0,1.05-.18,1.38-.54.33-.36.5-.87.5-1.54Z"/>
  <path class="cls-5" d="m121.96,344.05c0,.42-.08.82-.23,1.21-.15.38-.36.71-.63.97-.29.28-.64.5-1.04.65-.4.15-.87.23-1.4.23-.49,0-.97-.05-1.42-.15-.46-.1-.84-.23-1.16-.37v-1.28h.08c.33.21.72.39,1.16.54s.88.22,1.31.22c.29,0,.56-.04.83-.12.27-.08.51-.22.72-.42.18-.17.31-.38.4-.62s.14-.52.14-.84-.05-.57-.16-.79-.26-.38-.44-.51c-.21-.15-.47-.26-.77-.32-.3-.06-.64-.09-1.01-.09s-.7.02-1.03.07c-.33.05-.61.1-.85.15v-4.64h5.43v1.06h-4.26v2.4c.17-.02.35-.03.53-.04.18,0,.34-.01.47-.01.49,0,.92.04,1.28.12.37.08.7.23,1.01.44.32.22.57.51.75.86.18.35.27.79.27,1.32Z"/>
  <path class="cls-5" d="m122.24,396.59h-1.34v2.54h-1.16v-2.54h-4.32v-1.39l4.37-5.09h1.11v5.51h1.34v.97Zm-2.5-.97v-4.07l-3.49,4.07h3.49Z"/>
  <path class="cls-5" d="m121.24,446.99c.19.17.35.39.48.65.12.26.19.6.19,1.02s-.07.79-.22,1.13c-.15.34-.36.64-.63.9-.3.28-.66.49-1.07.63-.41.14-.86.2-1.35.2s-.99-.06-1.48-.18-.88-.25-1.19-.39v-1.26h.09c.34.23.75.41,1.21.56.46.15.91.22,1.34.22.25,0,.52-.04.81-.13.29-.08.52-.21.7-.38.19-.18.32-.37.42-.59s.14-.48.14-.81-.05-.59-.15-.8c-.1-.21-.25-.38-.43-.5-.18-.12-.4-.21-.66-.26-.26-.05-.54-.07-.84-.07h-.54v-1h.42c.61,0,1.1-.13,1.47-.38.37-.26.55-.63.55-1.12,0-.22-.05-.41-.14-.57-.09-.16-.22-.3-.39-.4-.17-.11-.36-.18-.56-.22-.2-.04-.42-.06-.67-.06-.38,0-.79.07-1.22.21-.43.14-.84.33-1.22.58h-.06v-1.27c.29-.14.67-.27,1.15-.39.48-.12.94-.18,1.39-.18s.83.04,1.16.12.64.21.91.39c.29.19.51.43.66.7s.22.6.22.96c0,.5-.18.94-.53,1.31-.35.37-.77.61-1.25.71v.08c.19.03.42.1.67.2.25.1.46.23.64.38Z"/>
  <path class="cls-5" d="m122.03,503.54h-6.1v-1.27c.42-.36.85-.73,1.27-1.09.43-.36.82-.72,1.19-1.08.77-.75,1.31-1.35,1.59-1.79.29-.44.43-.92.43-1.43,0-.47-.15-.83-.46-1.1-.31-.26-.74-.4-1.29-.4-.37,0-.77.06-1.19.19s-.85.33-1.25.59h-.06v-1.27c.29-.14.67-.27,1.15-.39s.94-.18,1.39-.18c.92,0,1.65.22,2.17.67.52.45.79,1.05.79,1.81,0,.34-.04.66-.13.96-.09.3-.21.58-.38.84-.16.25-.34.5-.55.74s-.47.51-.77.81c-.43.42-.88.83-1.34,1.23-.46.4-.89.77-1.29,1.11h4.85v1.04Z"/>
  <path class="cls-5" d="m121.52,555.75h-4.88v-.92h1.88v-6.04h-1.88v-.82c.25,0,.53-.02.82-.06.29-.04.51-.1.66-.18.19-.1.33-.23.44-.38s.17-.36.18-.63h.94v8.13h1.84v.92Z"/>
  <path class="cls-5" d="m122.02,603.44c0,1.62-.25,2.81-.76,3.56-.51.76-1.29,1.13-2.36,1.13s-1.87-.38-2.37-1.15c-.5-.77-.75-1.95-.75-3.54s.25-2.79.76-3.55c.5-.76,1.29-1.15,2.36-1.15s1.87.39,2.37,1.17c.5.78.75,1.95.75,3.52Zm-1.59,2.75c.14-.33.24-.71.29-1.15.05-.44.08-.97.08-1.6s-.03-1.15-.08-1.6c-.05-.45-.15-.83-.29-1.15-.14-.31-.33-.54-.58-.7s-.56-.24-.94-.24-.69.08-.94.24c-.25.16-.45.4-.59.71-.14.3-.23.69-.28,1.17s-.08,1.01-.08,1.58c0,.63.02,1.16.07,1.58s.14.8.28,1.14c.13.32.32.56.57.72.24.17.57.25.97.25.38,0,.69-.08.94-.24.25-.16.44-.4.58-.71Z"/>
  <g class="cls-11">
    <g>
      <path class="cls-5" d="m136.4,626.37c0,1.62-.25,2.81-.76,3.56-.51.76-1.29,1.13-2.36,1.13s-1.87-.38-2.37-1.15c-.5-.77-.75-1.95-.75-3.54s.25-2.79.76-3.55c.5-.76,1.29-1.15,2.36-1.15s1.87.39,2.37,1.17c.5.78.75,1.95.75,3.52Zm-1.59,2.75c.14-.33.24-.71.29-1.15.05-.44.08-.97.08-1.6s-.03-1.15-.08-1.6c-.05-.45-.15-.83-.29-1.15-.14-.31-.33-.54-.58-.7s-.56-.24-.94-.24-.69.08-.94.24c-.25.16-.45.4-.59.71-.14.3-.23.69-.28,1.17s-.08,1.01-.08,1.58c0,.63.02,1.16.07,1.58s.14.8.28,1.14c.13.32.32.56.57.72.24.17.57.25.97.25.38,0,.69-.08.94-.24.25-.16.44-.4.58-.71Z"/>
      <path class="cls-5" d="m227.75,630.88h-4.88v-.92h1.88v-6.04h-1.88v-.82c.25,0,.53-.02.82-.06.29-.04.51-.1.66-.18.19-.1.33-.23.44-.38s.17-.36.18-.63h.94v8.13h1.84v.92Z"/>
      <path class="cls-5" d="m320.12,630.88h-6.1v-1.27c.42-.36.85-.73,1.27-1.09.43-.36.82-.72,1.19-1.08.77-.75,1.31-1.35,1.59-1.79.29-.44.43-.92.43-1.43,0-.47-.15-.83-.46-1.1-.31-.26-.74-.4-1.29-.4-.37,0-.77.06-1.19.19s-.85.33-1.25.59h-.06v-1.27c.29-.14.67-.27,1.15-.39s.94-.18,1.39-.18c.92,0,1.65.22,2.17.67.52.45.79,1.05.79,1.81,0,.34-.04.66-.13.96-.09.3-.21.58-.38.84-.16.25-.34.5-.55.74s-.47.51-.77.81c-.43.42-.88.83-1.34,1.23-.46.4-.89.77-1.29,1.11h4.85v1.04Z"/>
      <path class="cls-5" d="m411.16,626.54c.19.17.35.39.48.65.12.26.19.6.19,1.02s-.07.79-.22,1.13c-.15.34-.36.64-.63.9-.3.28-.66.49-1.07.63-.41.14-.86.2-1.35.2s-.99-.06-1.48-.18-.88-.25-1.19-.39v-1.26h.09c.34.23.75.41,1.21.56.46.15.91.22,1.34.22.25,0,.52-.04.81-.13.29-.08.52-.21.7-.38.19-.18.32-.37.42-.59s.14-.48.14-.81-.05-.59-.15-.8c-.1-.21-.25-.38-.43-.5-.18-.12-.4-.21-.66-.26-.26-.05-.54-.07-.84-.07h-.54v-1h.42c.61,0,1.1-.13,1.47-.38.37-.26.55-.63.55-1.12,0-.22-.05-.41-.14-.57-.09-.16-.22-.3-.39-.4-.17-.11-.36-.18-.56-.22-.2-.04-.42-.06-.67-.06-.38,0-.79.07-1.22.21-.43.14-.84.33-1.22.58h-.06v-1.27c.29-.14.67-.27,1.15-.39.48-.12.94-.18,1.39-.18s.83.04,1.16.12.64.21.91.39c.29.19.51.43.66.7s.22.6.22.96c0,.5-.18.94-.53,1.31-.35.37-.77.61-1.25.71v.08c.19.03.42.1.67.2.25.1.46.23.64.38Z"/>
      <path class="cls-5" d="m504.01,628.34h-1.34v2.54h-1.16v-2.54h-4.32v-1.39l4.37-5.09h1.11v5.51h1.34v.97Zm-2.5-.97v-4.07l-3.49,4.07h3.49Z"/>
      <path class="cls-5" d="m595.58,628.01c0,.42-.08.82-.23,1.21-.15.38-.36.71-.63.97-.29.28-.64.5-1.04.65-.4.15-.87.23-1.4.23-.49,0-.97-.05-1.42-.15-.46-.1-.84-.23-1.16-.37v-1.28h.08c.33.21.72.39,1.16.54s.88.22,1.31.22c.29,0,.56-.04.83-.12.27-.08.51-.22.72-.42.18-.17.31-.38.4-.62s.14-.52.14-.84-.05-.57-.16-.79-.26-.38-.44-.51c-.21-.15-.47-.26-.77-.32-.3-.06-.64-.09-1.01-.09s-.7.02-1.03.07c-.33.05-.61.1-.85.15v-4.64h5.43v1.06h-4.26v2.4c.17-.02.35-.03.53-.04.18,0,.34-.01.47-.01.49,0,.92.04,1.28.12.37.08.7.23,1.01.44.32.22.57.51.75.86.18.35.27.79.27,1.32Z"/>
      <path class="cls-5" d="m687.63,627.95c0,.92-.3,1.66-.91,2.24-.6.58-1.34.87-2.22.87-.44,0-.85-.07-1.21-.21-.36-.14-.68-.34-.96-.61-.35-.33-.61-.78-.8-1.33-.19-.55-.28-1.22-.28-2s.09-1.51.26-2.12c.17-.62.44-1.17.82-1.65.35-.46.81-.81,1.37-1.07.56-.26,1.21-.38,1.96-.38.24,0,.44,0,.6.03.16.02.32.06.49.11v1.16h-.06c-.11-.06-.28-.12-.51-.17-.23-.05-.46-.08-.7-.08-.87,0-1.56.27-2.08.81s-.82,1.28-.9,2.2c.34-.21.67-.36,1-.47.33-.11.71-.16,1.14-.16.38,0,.72.04,1.01.11.29.07.59.21.9.43.35.25.62.56.8.93.18.38.27.83.27,1.37Zm-1.23.05c0-.38-.06-.69-.17-.93-.11-.25-.29-.46-.55-.64-.19-.13-.39-.21-.62-.25-.23-.04-.46-.06-.71-.06-.34,0-.66.04-.96.12-.29.08-.6.21-.91.38,0,.09-.01.17-.02.26,0,.08,0,.19,0,.31,0,.64.07,1.14.2,1.51.13.37.31.66.54.88.19.18.39.31.6.39.22.08.45.12.71.12.58,0,1.05-.18,1.38-.54s.5-.87.5-1.54Z"/>
      <path class="cls-5" d="m779.36,623.21l-4.08,7.67h-1.3l4.34-7.96h-5.13v-1.06h6.17v1.35Z"/>
      <path class="cls-5" d="m871.25,628.37c0,.78-.3,1.43-.91,1.94s-1.37.78-2.29.78c-.98,0-1.75-.25-2.33-.76s-.87-1.15-.87-1.94c0-.5.15-.95.44-1.36.29-.41.7-.73,1.23-.97v-.04c-.48-.26-.84-.54-1.07-.85s-.35-.69-.35-1.15c0-.68.28-1.24.84-1.7s1.27-.68,2.12-.68,1.62.22,2.16.65c.54.43.81.98.81,1.65,0,.41-.13.81-.38,1.2-.25.39-.63.7-1.12.92v.04c.57.24,1,.54,1.3.9.3.36.45.81.45,1.36Zm-1.25.12c0-.37-.08-.67-.25-.89-.16-.22-.48-.45-.96-.67-.19-.09-.4-.17-.62-.25-.23-.08-.53-.18-.9-.32-.36.2-.66.47-.88.81-.22.34-.33.72-.33,1.15,0,.54.19,1,.56,1.35.38.36.85.53,1.43.53s1.06-.15,1.41-.45c.35-.3.53-.72.53-1.25Zm-.19-4.52c0-.43-.17-.78-.5-1.03-.33-.26-.76-.38-1.27-.38s-.93.12-1.25.36c-.33.24-.49.57-.49.98,0,.29.08.54.25.75.16.21.41.4.74.57.15.07.36.17.65.28.28.12.55.21.82.29.4-.27.68-.54.83-.83.15-.29.23-.62.23-.99Z"/>
      <path class="cls-5" d="m963.02,625.83c0,.79-.09,1.5-.27,2.14-.18.64-.45,1.19-.81,1.64-.37.46-.83.82-1.38,1.07-.55.25-1.2.38-1.95.38-.21,0-.41-.01-.59-.03-.19-.02-.35-.06-.5-.11v-1.16h.06c.12.06.28.12.5.17s.45.08.71.08c.89,0,1.59-.27,2.1-.8s.8-1.27.88-2.21c-.38.23-.73.39-1.06.48s-.69.15-1.08.15c-.37,0-.71-.04-1.01-.11s-.6-.21-.91-.42c-.36-.25-.62-.56-.8-.94-.18-.38-.27-.83-.27-1.36,0-.92.3-1.67.91-2.25s1.34-.87,2.22-.87c.44,0,.84.07,1.21.2.37.13.7.34.97.61.34.33.61.77.79,1.29.19.53.28,1.21.28,2.04Zm-1.22-.26c0-.63-.06-1.13-.19-1.51-.13-.38-.31-.67-.53-.88-.19-.18-.39-.31-.61-.39-.22-.08-.45-.12-.71-.12-.58,0-1.04.18-1.38.54s-.51.87-.51,1.53c0,.38.05.7.16.94.11.24.29.45.55.64.18.13.38.21.6.25.22.04.46.06.73.06.31,0,.63-.04.96-.13.32-.08.63-.21.91-.37,0-.08,0-.17.02-.25s0-.19,0-.32Z"/>
      <path class="cls-5" d="m1054.37,630.88h-4.88v-.92h1.88v-6.04h-1.88v-.82c.25,0,.53-.02.82-.06.29-.04.51-.1.66-.18.19-.1.33-.23.44-.38.11-.16.17-.36.18-.63h.94v8.13h1.84v.92Z"/>
    </g>
  </g>
  <path class="cls-5" d="m1063.66,626.39c0,1.62-.25,2.81-.76,3.56-.51.76-1.29,1.13-2.36,1.13s-1.87-.38-2.37-1.15c-.5-.77-.75-1.95-.75-3.54s.25-2.79.76-3.55c.5-.76,1.29-1.15,2.36-1.15s1.87.39,2.37,1.17c.5.78.75,1.95.75,3.52Zm-1.59,2.75c.14-.33.24-.71.29-1.15.05-.44.08-.97.08-1.6s-.03-1.15-.08-1.6c-.05-.45-.15-.83-.29-1.15-.14-.31-.33-.54-.58-.7-.24-.16-.56-.24-.94-.24s-.69.08-.94.24-.44.4-.59.71c-.14.3-.23.69-.28,1.17-.05.48-.08,1.01-.08,1.58,0,.63.02,1.16.07,1.58.04.42.14.8.29,1.14.13.32.32.56.57.72.24.17.57.25.97.25.38,0,.69-.08.95-.24.25-.16.44-.4.58-.71Z"/>
  <rect class="cls-5" x="96.84" y="76.73" width="1" height="568.27"/>
  <polygon class="cls-5" points="93.98 81.07 93.25 80.39 97.34 76 101.43 80.39 100.7 81.07 97.34 77.46 93.98 81.07"/>
  <rect class="cls-5" x="97.34" y="644.5" width="968.6" height="1"/>
  <polygon class="cls-5" points="1062.27 649.08 1061.59 648.35 1065.2 645 1061.59 641.64 1062.27 640.91 1066.67 645 1062.27 649.08"/>
  <path class="cls-5" d="m1066.67,608H129.34V76h937.33v532Zm-936.33-1h935.33V77H130.34v530Z"/>
  <polygon class="cls-5" points="594.29 607.25 593.29 607.25 593.29 342.5 129.34 342.5 129.34 341.5 594.29 341.5 594.29 607.25"/>
  <g class="cls-14">
    <path class="cls-7" d="m773.97,307.36c8.56,0,15.5-6.94,15.5-15.5s-6.94-15.5-15.5-15.5-15.5,6.94-15.5,15.5,6.94,15.5,15.5,15.5"/>
  </g>
  <path class="cls-3" d="m776.78,296.36h-5.82v-1.52h1.84v-4.61h-1.84v-1.42c.28,0,.55-.02.81-.05s.47-.09.64-.17c.2-.1.36-.22.46-.38s.16-.35.18-.59h1.94v7.22h1.8v1.52Z"/>
  <g class="cls-13">
    <path class="cls-10" d="m908.84,479.25c8.56,0,15.5-6.94,15.5-15.5s-6.94-15.5-15.5-15.5-15.5,6.94-15.5,15.5,6.94,15.5,15.5,15.5"/>
  </g>
  <g>
    <path class="cls-3" d="m907.57,468.25h-5.82v-1.52h1.84v-4.61h-1.84v-1.42c.28,0,.55-.02.81-.05s.47-.09.64-.17c.2-.1.36-.22.46-.38s.16-.35.18-.59h1.94v7.22h1.8v1.52Z"/>
    <path class="cls-3" d="m916.46,465.29c0,.45-.08.87-.25,1.26s-.42.72-.74,1c-.36.3-.77.52-1.24.66s-1,.21-1.6.21c-.7,0-1.29-.06-1.77-.17s-.88-.23-1.18-.36v-1.93h.25c.36.21.74.39,1.15.53s.82.21,1.22.21c.25,0,.51-.03.8-.08s.51-.16.68-.31c.13-.12.23-.24.3-.37s.1-.32.1-.58c0-.2-.05-.38-.14-.52s-.21-.26-.35-.35c-.21-.13-.46-.21-.76-.25s-.57-.06-.81-.06c-.35,0-.69.03-1.01.09s-.6.12-.85.18h-.26v-4.92h6.21v1.67h-4.09v1.42c.12,0,.27-.01.46-.02s.35,0,.49,0c.48,0,.91.05,1.29.14s.7.22.98.38c.36.21.63.5.83.85s.3.8.3,1.33Z"/>
  </g>
  <g class="cls-12">
    <path class="cls-10" d="m861.84,516c8.56,0,15.5-6.94,15.5-15.5s-6.94-15.5-15.5-15.5-15.5,6.94-15.5,15.5,6.94,15.5,15.5,15.5"/>
  </g>
  <g>
    <path class="cls-3" d="m860.57,505h-5.82v-1.52h1.84v-4.61h-1.84v-1.42c.28,0,.55-.02.81-.05s.47-.09.64-.17c.2-.1.36-.22.46-.38s.16-.35.18-.59h1.94v7.22h1.8v1.52Z"/>
    <path class="cls-3" d="m869.64,502.02c0,.45-.08.87-.25,1.27s-.39.73-.69,1c-.32.29-.68.51-1.1.66s-.9.23-1.46.23c-.52,0-1-.07-1.43-.21s-.8-.36-1.11-.65c-.36-.34-.63-.77-.81-1.3s-.28-1.17-.28-1.9.09-1.45.26-2.04.46-1.12.86-1.58c.38-.44.88-.78,1.49-1.02s1.34-.36,2.18-.36c.29,0,.6.02.94.06s.56.07.66.09v1.72h-.22c-.11-.05-.28-.11-.54-.17s-.54-.1-.86-.1c-.75,0-1.33.18-1.75.55s-.67.88-.76,1.54c.3-.18.62-.33.95-.44s.69-.17,1.08-.17c.34,0,.66.04.95.12s.56.2.81.38c.32.23.58.53.78.91s.29.86.29,1.44Zm-2.67,1.32c.12-.13.22-.29.29-.47s.11-.43.11-.74c0-.29-.04-.52-.12-.7s-.2-.33-.34-.44c-.14-.11-.31-.18-.5-.23s-.39-.06-.59-.06c-.17,0-.35.02-.54.06s-.36.09-.52.15c0,.04,0,.1,0,.19s0,.2,0,.34c0,.48.05.88.14,1.19s.22.55.38.71c.11.12.24.21.39.27s.31.08.48.08c.13,0,.27-.03.43-.09s.29-.15.4-.26Z"/>
  </g>
  <g class="cls-18">
    <path class="cls-4" d="m727.84,471.51c8.56,0,15.5-6.94,15.5-15.5s-6.94-15.5-15.5-15.5-15.5,6.94-15.5,15.5,6.94,15.5,15.5,15.5"/>
  </g>
  <g>
    <path class="cls-3" d="m727.12,460.51h-6.85v-1.44c.52-.38,1.05-.78,1.57-1.21s.95-.79,1.26-1.1c.47-.46.81-.86,1.01-1.2s.3-.68.3-1.01c0-.4-.13-.71-.38-.92s-.62-.33-1.1-.33c-.36,0-.74.07-1.13.22s-.76.34-1.1.57h-.19v-1.94c.28-.12.69-.24,1.23-.36s1.08-.18,1.63-.18c1.09,0,1.93.23,2.5.69s.86,1.11.86,1.95c0,.55-.14,1.07-.41,1.57s-.7,1.01-1.26,1.54c-.36.33-.71.63-1.07.91s-.62.47-.77.58h3.92v1.67Z"/>
    <path class="cls-3" d="m735.65,460.51h-6.85v-1.44c.52-.38,1.05-.78,1.57-1.21s.95-.79,1.26-1.1c.47-.46.81-.86,1.01-1.2s.3-.68.3-1.01c0-.4-.13-.71-.38-.92s-.62-.33-1.1-.33c-.36,0-.74.07-1.13.22s-.76.34-1.1.57h-.19v-1.94c.28-.12.69-.24,1.23-.36s1.08-.18,1.63-.18c1.09,0,1.93.23,2.5.69s.86,1.11.86,1.95c0,.55-.14,1.07-.41,1.57s-.7,1.01-1.26,1.54c-.36.33-.71.63-1.07.91s-.62.47-.77.58h3.92v1.67Z"/>
  </g>
  <g class="cls-17">
    <path class="cls-7" d="m637.84,471.48c8.56,0,15.5-6.94,15.5-15.5s-6.94-15.5-15.5-15.5-15.5,6.94-15.5,15.5,6.94,15.5,15.5,15.5"/>
  </g>
  <path class="cls-3" d="m640.34,456.39c.19.16.34.36.46.57s.17.51.17.87c0,.41-.08.79-.24,1.15s-.41.66-.75.91c-.33.25-.71.43-1.16.57s-.98.2-1.61.2c-.72,0-1.34-.06-1.86-.17s-.94-.24-1.26-.38v-1.92h.23c.34.2.74.38,1.2.53s.89.22,1.28.22c.23,0,.47-.02.74-.06s.49-.12.67-.24c.14-.1.26-.22.35-.35s.13-.34.13-.6-.06-.45-.18-.59-.27-.24-.46-.3c-.19-.06-.42-.1-.69-.1s-.52,0-.75,0h-.48v-1.56h.5c.3,0,.57,0,.81-.03s.43-.06.6-.13c.17-.07.3-.17.39-.3s.13-.3.13-.54c0-.18-.04-.32-.13-.42s-.2-.19-.34-.25c-.15-.07-.33-.12-.54-.14s-.38-.04-.53-.04c-.37,0-.77.06-1.2.19s-.85.31-1.25.55h-.22v-1.89c.32-.13.76-.25,1.31-.37s1.11-.18,1.68-.18,1.03.05,1.45.14.76.22,1.03.38c.32.19.56.42.71.7s.23.59.23.96c0,.48-.15.92-.45,1.3s-.7.62-1.19.73v.08c.2.03.41.08.63.16s.43.2.61.36Z"/>
  <g class="cls-15">
    <path class="cls-8" d="m696.84,336.98c8.56,0,15.5-6.94,15.5-15.5s-6.94-15.5-15.5-15.5-15.5,6.94-15.5,15.5,6.94,15.5,15.5,15.5"/>
  </g>
  <path class="cls-3" d="m700.18,323c0,.45-.08.87-.25,1.27s-.39.73-.69,1c-.32.29-.68.51-1.1.66s-.9.23-1.46.23c-.52,0-1-.07-1.43-.21s-.8-.36-1.11-.65c-.36-.34-.63-.77-.81-1.3s-.28-1.17-.28-1.9.09-1.45.26-2.04.46-1.12.86-1.58c.38-.44.88-.78,1.49-1.02s1.34-.36,2.18-.36c.29,0,.6.02.94.06s.56.07.66.09v1.72h-.22c-.11-.05-.28-.11-.54-.17s-.54-.1-.86-.1c-.75,0-1.33.18-1.75.55s-.67.88-.76,1.54c.3-.18.62-.33.95-.44s.69-.17,1.08-.17c.34,0,.66.04.95.12s.56.2.81.38c.32.23.58.53.78.91s.29.86.29,1.44Zm-2.67,1.32c.12-.13.22-.29.29-.47s.11-.43.11-.74c0-.29-.04-.52-.12-.7s-.2-.33-.34-.44c-.14-.11-.31-.18-.5-.23s-.39-.06-.59-.06c-.17,0-.35.02-.54.06s-.36.09-.52.15c0,.04,0,.1,0,.19s0,.2,0,.34c0,.48.05.88.14,1.19s.22.55.38.71c.11.12.24.21.39.27s.31.08.48.08c.13,0,.27-.03.43-.09s.29-.15.4-.26Z"/>
  <g class="cls-16">
    <path class="cls-8" d="m645.84,322.5c8.56,0,15.5-6.94,15.5-15.5s-6.94-15.5-15.5-15.5-15.5,6.94-15.5,15.5,6.94,15.5,15.5,15.5"/>
  </g>
  <path class="cls-3" d="m649.01,308.54c0,.45-.08.87-.25,1.26s-.42.72-.74,1c-.36.3-.77.52-1.24.66s-1,.21-1.6.21c-.7,0-1.29-.06-1.77-.17s-.88-.23-1.18-.36v-1.93h.25c.36.21.74.39,1.15.53s.82.21,1.22.21c.25,0,.51-.03.8-.08s.51-.16.68-.31c.13-.12.23-.24.3-.37s.1-.32.1-.58c0-.2-.05-.38-.14-.52s-.21-.26-.35-.35c-.21-.13-.46-.21-.76-.25s-.57-.06-.81-.06c-.35,0-.69.03-1.01.09s-.6.12-.85.18h-.26v-4.92h6.21v1.67h-4.09v1.42c.12,0,.27-.01.46-.02s.35,0,.49,0c.48,0,.91.05,1.29.14s.7.22.98.38c.36.21.63.5.83.85s.3.8.3,1.33Z"/>
  <g class="cls-19">
    <path class="cls-8" d="m614.84,322.5c8.56,0,15.5-6.94,15.5-15.5s-6.94-15.5-15.5-15.5-15.5,6.94-15.5,15.5,6.94,15.5,15.5,15.5"/>
  </g>
  <path class="cls-3" d="m618.32,309.49h-1.19v2.03h-2.15v-2.03h-4.22v-1.65l4.08-5.06h2.29v5.12h1.19v1.59Zm-3.34-1.59v-3.16l-2.54,3.16h2.54Z"/>
  <g class="cls-28">
    <path class="cls-9" d="m359.84,281c8.56,0,15.5-6.94,15.5-15.5s-6.94-15.5-15.5-15.5-15.5,6.94-15.5,15.5,6.94,15.5,15.5,15.5"/>
  </g>
  <g>
    <path class="cls-3" d="m358.56,270h-5.82v-1.52h1.84v-4.61h-1.84v-1.42c.28,0,.55-.02.81-.05s.47-.09.64-.17c.2-.1.36-.22.46-.38s.16-.35.18-.59h1.94v7.22h1.8v1.52Z"/>
    <path class="cls-3" d="m366.79,265.91c.19.16.34.36.46.57s.17.51.17.87c0,.41-.08.79-.24,1.15s-.41.66-.75.91c-.33.25-.71.43-1.16.57s-.98.2-1.61.2c-.72,0-1.34-.06-1.86-.17s-.94-.24-1.26-.38v-1.92h.23c.34.2.74.38,1.2.53s.89.22,1.28.22c.23,0,.47-.02.74-.06s.49-.12.67-.24c.14-.1.26-.22.35-.35s.13-.34.13-.6-.06-.45-.18-.59-.27-.24-.46-.3c-.19-.06-.42-.1-.69-.1s-.52,0-.75,0h-.48v-1.56h.5c.3,0,.57,0,.81-.03s.43-.06.6-.13c.17-.07.3-.17.39-.3s.13-.3.13-.54c0-.18-.04-.32-.13-.42s-.2-.19-.34-.25c-.15-.07-.33-.12-.54-.14s-.38-.04-.53-.04c-.37,0-.77.06-1.2.19s-.85.31-1.25.55h-.22v-1.89c.32-.13.76-.25,1.31-.37s1.11-.18,1.68-.18,1.03.05,1.45.14.76.22,1.03.38c.32.19.56.42.71.7s.23.59.23.96c0,.48-.15.92-.45,1.3s-.7.62-1.19.73v.08c.2.03.41.08.63.16s.43.2.61.36Z"/>
  </g>
  <g class="cls-33">
    <path class="cls-6" d="m274.84,348c8.56,0,15.5-6.94,15.5-15.5s-6.94-15.5-15.5-15.5-15.5,6.94-15.5,15.5,6.94,15.5,15.5,15.5"/>
  </g>
  <path class="cls-3" d="m278.01,330l-3.95,6.99h-2.51l4.1-7.05h-4.48v-1.67h6.84v1.73Z"/>
  <g class="cls-27">
    <path class="cls-4" d="m335.84,433c8.56,0,15.5-6.94,15.5-15.5s-6.94-15.5-15.5-15.5-15.5,6.94-15.5,15.5,6.94,15.5,15.5,15.5"/>
  </g>
  <g>
    <path class="cls-3" d="m335.12,422h-6.85v-1.44c.52-.38,1.05-.78,1.57-1.21s.95-.79,1.26-1.1c.47-.46.81-.86,1.01-1.2s.3-.68.3-1.01c0-.4-.13-.71-.38-.92s-.62-.33-1.1-.33c-.36,0-.74.07-1.13.22s-.76.34-1.1.57h-.19v-1.94c.28-.12.69-.24,1.23-.36s1.08-.18,1.63-.18c1.09,0,1.93.23,2.5.69s.86,1.11.86,1.95c0,.55-.14,1.07-.41,1.57s-.7,1.01-1.26,1.54c-.36.33-.71.63-1.07.91s-.62.47-.77.58h3.92v1.67Z"/>
    <path class="cls-3" d="m343.59,417.63c0,.74-.07,1.39-.2,1.97-.13.58-.34,1.06-.62,1.43-.29.38-.66.67-1.11.86s-1.01.29-1.68.29-1.21-.1-1.67-.29-.83-.48-1.12-.87c-.29-.38-.5-.86-.63-1.43-.13-.57-.19-1.22-.19-1.96s.07-1.42.2-1.98c.13-.56.34-1.03.63-1.42.29-.38.66-.67,1.12-.86s1.01-.29,1.65-.29,1.23.1,1.68.3.82.49,1.11.88c.29.38.49.85.62,1.42.13.56.19,1.21.19,1.94Zm-2.27,0c0-1.06-.1-1.81-.31-2.25-.21-.45-.55-.67-1.03-.67s-.82.22-1.03.67c-.21.45-.31,1.2-.31,2.27s.11,1.78.32,2.24c.21.46.55.69,1.03.69s.81-.23,1.03-.69c.21-.46.32-1.21.32-2.25Z"/>
  </g>
  <g class="cls-26">
    <path class="cls-7" d="m368.84,419c8.56,0,15.5-6.94,15.5-15.5s-6.94-15.5-15.5-15.5-15.5,6.94-15.5,15.5,6.94,15.5,15.5,15.5"/>
  </g>
  <g>
    <path class="cls-3" d="m367.56,408h-5.82v-1.52h1.84v-4.61h-1.84v-1.42c.28,0,.55-.02.81-.05s.47-.09.64-.17c.2-.1.36-.22.46-.38s.16-.35.18-.59h1.94v7.22h1.8v1.52Z"/>
    <path class="cls-3" d="m376.66,405.56c0,.77-.33,1.41-.99,1.9s-1.56.74-2.71.74c-.64,0-1.2-.07-1.66-.2s-.84-.32-1.14-.55c-.3-.23-.52-.5-.66-.81s-.21-.64-.21-1c0-.44.13-.83.38-1.16s.7-.63,1.33-.89v-.04c-.51-.23-.88-.53-1.12-.88s-.36-.77-.36-1.24c0-.69.32-1.26.96-1.7s1.47-.66,2.5-.66c1.08,0,1.92.2,2.53.6s.92.93.92,1.6c0,.41-.13.78-.39,1.11s-.65.6-1.18.83v.04c.61.23,1.06.54,1.35.93s.44.85.44,1.38Zm-2.24.1c0-.28-.07-.49-.21-.64s-.43-.31-.87-.5c-.13-.06-.32-.13-.56-.22s-.45-.16-.62-.22c-.17.15-.32.34-.45.55s-.2.46-.2.73c0,.41.15.73.44.97s.67.36,1.14.36c.12,0,.27-.02.44-.06s.31-.09.43-.17c.14-.09.25-.2.34-.32s.13-.29.13-.49Zm-.18-4.13c0-.3-.11-.53-.34-.71s-.53-.26-.91-.26c-.14,0-.28.02-.43.05s-.28.09-.4.15c-.11.07-.21.15-.28.26s-.11.23-.11.37c0,.23.07.41.2.54s.34.26.64.39c.11.05.26.1.45.17s.42.15.69.23c.18-.21.31-.4.39-.57s.12-.38.12-.62Z"/>
  </g>
  <g class="cls-25">
    <path class="cls-4" d="m414.84,419c8.56,0,15.5-6.94,15.5-15.5s-6.94-15.5-15.5-15.5-15.5,6.94-15.5,15.5,6.94,15.5,15.5,15.5"/>
  </g>
  <g>
    <path class="cls-3" d="m413.56,408h-5.82v-1.52h1.84v-4.61h-1.84v-1.42c.28,0,.55-.02.81-.05s.47-.09.64-.17c.2-.1.36-.22.46-.38s.16-.35.18-.59h1.94v7.22h1.8v1.52Z"/>
    <path class="cls-3" d="m422.46,403.14c0,.73-.09,1.41-.28,2.04s-.47,1.16-.86,1.59c-.41.46-.93.81-1.54,1.05s-1.33.35-2.14.35c-.29,0-.6-.02-.94-.05s-.56-.07-.66-.09v-1.72h.23c.12.05.28.11.5.18s.51.09.89.09c.3,0,.6-.04.9-.11s.54-.2.76-.36c.23-.18.42-.4.57-.66s.25-.58.3-.95c-.34.2-.66.35-.95.45s-.65.16-1.09.16c-.33,0-.64-.04-.94-.12s-.57-.2-.82-.37c-.32-.23-.58-.54-.78-.91-.19-.38-.29-.85-.29-1.43,0-.93.33-1.7.98-2.28s1.5-.88,2.56-.88c.54,0,1.02.07,1.44.21s.78.36,1.09.65c.36.34.62.76.8,1.28.18.52.27,1.15.27,1.9Zm-2.24-.33c0-.48-.05-.87-.14-1.18-.09-.31-.22-.54-.38-.71-.11-.13-.24-.22-.39-.27s-.3-.08-.47-.08c-.15,0-.3.03-.44.08s-.27.14-.4.27c-.12.12-.22.29-.3.49-.08.2-.11.45-.11.73s.04.5.12.69c.08.19.2.33.34.44.14.11.3.18.48.22s.39.06.61.06c.18,0,.37-.02.57-.07s.37-.09.48-.14c0-.04,0-.11,0-.19s0-.2,0-.36Z"/>
  </g>
  <g class="cls-29">
    <path class="cls-4" d="m407.84,480c8.56,0,15.5-6.94,15.5-15.5s-6.94-15.5-15.5-15.5-15.5,6.94-15.5,15.5,6.94,15.5,15.5,15.5"/>
  </g>
  <g>
    <path class="cls-3" d="m408.12,469h-6.85v-1.44c.52-.38,1.05-.78,1.57-1.21s.95-.79,1.26-1.1c.47-.46.81-.86,1.01-1.2s.3-.68.3-1.01c0-.4-.13-.71-.38-.92s-.62-.33-1.1-.33c-.36,0-.74.07-1.13.22s-.76.34-1.1.57h-.19v-1.94c.28-.12.69-.24,1.23-.36s1.08-.18,1.63-.18c1.09,0,1.93.23,2.5.69s.86,1.11.86,1.95c0,.55-.14,1.07-.41,1.57s-.7,1.01-1.26,1.54c-.36.33-.71.63-1.07.91s-.62.47-.77.58h3.92v1.67Z"/>
    <path class="cls-3" d="m416.1,469h-5.82v-1.52h1.84v-4.61h-1.84v-1.42c.28,0,.55-.02.81-.05s.47-.09.64-.17c.2-.1.36-.22.46-.38s.16-.35.18-.59h1.94v7.22h1.8v1.52Z"/>
  </g>
  <g class="cls-31">
    <path class="cls-7" d="m451.84,500c8.56,0,15.5-6.94,15.5-15.5s-6.94-15.5-15.5-15.5-15.5,6.94-15.5,15.5,6.94,15.5,15.5,15.5"/>
  </g>
  <g>
    <path class="cls-3" d="m451.56,489h-5.82v-1.52h1.84v-4.61h-1.84v-1.42c.28,0,.55-.02.81-.05s.47-.09.64-.17c.2-.1.36-.22.46-.38s.16-.35.18-.59h1.94v7.22h1.8v1.52Z"/>
    <path class="cls-3" d="m460.47,482l-3.95,6.99h-2.51l4.1-7.05h-4.48v-1.67h6.84v1.73Z"/>
  </g>
  <g class="cls-30">
    <path class="cls-7" d="m535,498c8.56,0,15.5-6.94,15.5-15.5s-6.94-15.5-15.5-15.5-15.5,6.94-15.5,15.5,6.94,15.5,15.5,15.5"/>
  </g>
  <path class="cls-3" d="m538.36,487h-6.85v-1.44c.52-.38,1.05-.78,1.57-1.21s.95-.79,1.26-1.1c.47-.46.81-.86,1.01-1.2s.3-.68.3-1.01c0-.4-.13-.71-.38-.92s-.62-.33-1.1-.33c-.36,0-.74.07-1.13.22s-.76.34-1.1.57h-.19v-1.94c.28-.12.69-.24,1.23-.36s1.08-.18,1.63-.18c1.09,0,1.93.23,2.5.69s.86,1.11.86,1.95c0,.55-.14,1.07-.41,1.57s-.7,1.01-1.26,1.54c-.36.33-.71.63-1.07.91s-.62.47-.77.58h3.92v1.67Z"/>
  <g class="cls-34">
    <path class="cls-9" d="m236.84,557c8.56,0,15.5-6.94,15.5-15.5s-6.94-15.5-15.5-15.5-15.5,6.94-15.5,15.5,6.94,15.5,15.5,15.5"/>
  </g>
  <g>
    <path class="cls-3" d="m235.56,546h-5.82v-1.52h1.84v-4.61h-1.84v-1.42c.28,0,.55-.02.81-.05s.47-.09.64-.17c.2-.1.36-.22.46-.38s.16-.35.18-.59h1.94v7.22h1.8v1.52Z"/>
    <path class="cls-3" d="m244.77,543.99h-1.19v2.03h-2.15v-2.03h-4.22v-1.65l4.08-5.06h2.29v5.12h1.19v1.59Zm-3.34-1.59v-3.16l-2.54,3.16h2.54Z"/>
  </g>
  <g class="cls-32">
    <path class="cls-6" d="m152.84,502c8.56,0,15.5-6.94,15.5-15.5s-6.94-15.5-15.5-15.5-15.5,6.94-15.5,15.5,6.94,15.5,15.5,15.5"/>
  </g>
  <path class="cls-3" d="m156.01,486.14c0,.73-.09,1.41-.28,2.04s-.47,1.16-.86,1.59c-.41.46-.93.81-1.54,1.05s-1.33.35-2.14.35c-.29,0-.6-.02-.94-.05s-.56-.07-.66-.09v-1.72h.23c.12.05.28.11.5.18s.51.09.89.09c.3,0,.6-.04.9-.11s.54-.2.76-.36c.23-.18.42-.4.57-.66s.25-.58.3-.95c-.34.2-.66.35-.95.45s-.65.16-1.09.16c-.33,0-.64-.04-.94-.12s-.57-.2-.82-.37c-.32-.23-.58-.54-.78-.91-.19-.38-.29-.85-.29-1.43,0-.93.33-1.7.98-2.28s1.5-.88,2.56-.88c.54,0,1.02.07,1.44.21s.78.36,1.09.65c.36.34.62.76.8,1.28.18.52.27,1.15.27,1.9Zm-2.24-.33c0-.48-.05-.87-.14-1.18-.09-.31-.22-.54-.38-.71-.11-.13-.24-.22-.39-.27s-.3-.08-.47-.08c-.15,0-.3.03-.44.08s-.27.14-.4.27c-.12.12-.22.29-.3.49-.08.2-.11.45-.11.73s.04.5.12.69c.08.19.2.33.34.44.14.11.3.18.48.22s.39.06.61.06c.18,0,.37-.02.57-.07s.37-.09.48-.14c0-.04,0-.11,0-.19s0-.2,0-.36Z"/>
  <g class="cls-20">
    <path class="cls-6" d="m152.84,438c8.56,0,15.5-6.94,15.5-15.5s-6.94-15.5-15.5-15.5-15.5,6.94-15.5,15.5,6.94,15.5,15.5,15.5"/>
  </g>
  <path class="cls-3" d="m156.21,424.56c0,.77-.33,1.41-.99,1.9s-1.56.74-2.71.74c-.64,0-1.2-.07-1.66-.2s-.84-.32-1.14-.55c-.3-.23-.52-.5-.66-.81s-.21-.64-.21-1c0-.44.13-.83.38-1.16s.7-.63,1.33-.89v-.04c-.51-.23-.88-.53-1.12-.88s-.36-.77-.36-1.24c0-.69.32-1.26.96-1.7s1.47-.66,2.5-.66c1.08,0,1.92.2,2.53.6s.92.93.92,1.6c0,.41-.13.78-.39,1.11s-.65.6-1.18.83v.04c.61.23,1.06.54,1.35.93s.44.85.44,1.38Zm-2.24.1c0-.28-.07-.49-.21-.64s-.43-.31-.87-.5c-.13-.06-.32-.13-.56-.22s-.45-.16-.62-.22c-.17.15-.32.34-.45.55s-.2.46-.2.73c0,.41.15.73.44.97s.67.36,1.14.36c.12,0,.27-.02.44-.06s.31-.09.43-.17c.14-.09.25-.2.34-.32s.13-.29.13-.49Zm-.18-4.13c0-.3-.11-.53-.34-.71s-.53-.26-.91-.26c-.14,0-.28.02-.43.05s-.28.09-.4.15c-.11.07-.21.15-.28.26s-.11.23-.11.37c0,.23.07.41.2.54s.34.26.64.39c.11.05.26.1.45.17s.42.15.69.23c.18-.21.31-.4.39-.57s.12-.38.12-.62Z"/>
  <g class="cls-21">
    <path class="cls-6" d="m137.34,593c8.56,0,15.5-6.94,15.5-15.5s-6.94-15.5-15.5-15.5-15.5,6.94-15.5,15.5,6.94,15.5,15.5,15.5"/>
  </g>
  <g>
    <path class="cls-3" d="m136.62,582h-6.85v-1.44c.52-.38,1.05-.78,1.57-1.21s.95-.79,1.26-1.1c.47-.46.81-.86,1.01-1.2s.3-.68.3-1.01c0-.4-.13-.71-.38-.92s-.62-.33-1.1-.33c-.36,0-.74.07-1.13.22s-.76.34-1.1.57h-.19v-1.94c.28-.12.69-.24,1.23-.36s1.08-.18,1.63-.18c1.09,0,1.93.23,2.5.69s.86,1.11.86,1.95c0,.55-.14,1.07-.41,1.57s-.7,1.01-1.26,1.54c-.36.33-.71.63-1.07.91s-.62.47-.77.58h3.92v1.67Z"/>
    <path class="cls-3" d="m144.29,577.91c.19.16.34.36.46.57s.17.51.17.87c0,.41-.08.79-.24,1.15s-.41.66-.75.91c-.33.25-.71.43-1.16.57s-.98.2-1.61.2c-.72,0-1.34-.06-1.86-.17s-.94-.24-1.26-.38v-1.92h.23c.34.2.74.38,1.2.53s.89.22,1.28.22c.23,0,.47-.02.74-.06s.49-.12.67-.24c.14-.1.26-.22.35-.35s.13-.34.13-.6-.06-.45-.18-.59-.27-.24-.46-.3c-.19-.06-.42-.1-.69-.1s-.52,0-.75,0h-.48v-1.56h.5c.3,0,.57,0,.81-.03s.43-.06.6-.13c.17-.07.3-.17.39-.3s.13-.3.13-.54c0-.18-.04-.32-.13-.42s-.2-.19-.34-.25c-.15-.07-.33-.12-.54-.14s-.38-.04-.53-.04c-.37,0-.77.06-1.2.19s-.85.31-1.25.55h-.22v-1.89c.32-.13.76-.25,1.31-.37s1.11-.18,1.68-.18,1.03.05,1.45.14.76.22,1.03.38c.32.19.56.42.71.7s.23.59.23.96c0,.48-.15.92-.45,1.3s-.7.62-1.19.73v.08c.2.03.41.08.63.16s.43.2.61.36Z"/>
  </g>
  <g class="cls-24">
    <path class="cls-6" d="m139.84,523c8.56,0,15.5-6.94,15.5-15.5s-6.94-15.5-15.5-15.5-15.5,6.94-15.5,15.5,6.94,15.5,15.5,15.5"/>
  </g>
  <g>
    <path class="cls-3" d="m138.56,512h-5.82v-1.52h1.84v-4.61h-1.84v-1.42c.28,0,.55-.02.81-.05s.47-.09.64-.17c.2-.1.36-.22.46-.38s.16-.35.18-.59h1.94v7.22h1.8v1.52Z"/>
    <path class="cls-3" d="m147.1,512h-5.82v-1.52h1.84v-4.61h-1.84v-1.42c.28,0,.55-.02.81-.05s.47-.09.64-.17c.2-.1.36-.22.46-.38s.16-.35.18-.59h1.94v7.22h1.8v1.52Z"/>
  </g>
  <g class="cls-23">
    <path class="cls-6" d="m137.72,419c8.56,0,15.5-6.94,15.5-15.5s-6.94-15.5-15.5-15.5-15.5,6.94-15.5,15.5,6.94,15.5,15.5,15.5"/>
  </g>
  <g>
    <path class="cls-3" d="m136.44,408h-5.82v-1.52h1.84v-4.61h-1.84v-1.42c.28,0,.55-.02.81-.05s.47-.09.64-.17c.2-.1.36-.22.46-.38s.16-.35.18-.59h1.94v7.22h1.8v1.52Z"/>
    <path class="cls-3" d="m145.52,408h-6.85v-1.44c.52-.38,1.05-.78,1.57-1.21s.95-.79,1.26-1.1c.47-.46.81-.86,1.01-1.2s.3-.68.3-1.01c0-.4-.13-.71-.38-.92s-.62-.33-1.1-.33c-.36,0-.74.07-1.13.22s-.76.34-1.1.57h-.19v-1.94c.28-.12.69-.24,1.23-.36s1.08-.18,1.63-.18c1.09,0,1.93.23,2.5.69s.86,1.11.86,1.95c0,.55-.14,1.07-.41,1.57s-.7,1.01-1.26,1.54c-.36.33-.71.63-1.07.91s-.62.47-.77.58h3.92v1.67Z"/>
  </g>
  <g class="cls-22">
    <path class="cls-6" d="m137.72,467c8.56,0,15.5-6.94,15.5-15.5s-6.94-15.5-15.5-15.5-15.5,6.94-15.5,15.5,6.94,15.5,15.5,15.5"/>
  </g>
  <g>
    <path class="cls-3" d="m136.44,456h-5.82v-1.52h1.84v-4.61h-1.84v-1.42c.28,0,.55-.02.81-.05s.47-.09.64-.17c.2-.1.36-.22.46-.38s.16-.35.18-.59h1.94v7.22h1.8v1.52Z"/>
    <path class="cls-3" d="m145.47,451.63c0,.74-.07,1.39-.2,1.97-.13.58-.34,1.06-.62,1.43-.29.38-.66.67-1.11.86s-1.01.29-1.68.29-1.21-.1-1.67-.29-.83-.48-1.12-.87c-.29-.38-.5-.86-.63-1.43-.13-.57-.19-1.22-.19-1.96s.07-1.42.2-1.98c.13-.56.34-1.03.63-1.42.29-.38.66-.67,1.12-.86s1.01-.29,1.65-.29,1.23.1,1.68.3.82.49,1.11.88c.29.38.49.85.62,1.42.13.56.19,1.21.19,1.94Zm-2.27,0c0-1.06-.1-1.81-.31-2.25-.21-.45-.55-.67-1.03-.67s-.82.22-1.03.67c-.21.45-.31,1.2-.31,2.27s.11,1.78.32,2.24c.21.46.55.69,1.03.69s.81-.23,1.03-.69c.21-.46.32-1.21.32-2.25Z"/>
  </g>
</svg>